<?xml version="1.0" encoding="utf-8"?>
<!-- Generator: Adobe Illustrator 18.1.1, SVG Export Plug-In . SVG Version: 6.00 Build 0)  -->
<svg version="1.1" baseProfile="tiny" id="Capa_1" xmlns="http://www.w3.org/2000/svg" xmlns:xlink="http://www.w3.org/1999/xlink"
	 x="0px" y="0px" viewBox="0 0 300 300" xml:space="preserve">
<rect x="-1" fill="none" width="301" height="301"/>
<path fill="#512C1D" d="M171.6,162.1h25.3c2.3,0,4.1-1.8,4.1-4.1V71.6c0-2.3-1.8-4.1-4.1-4.1h-86.4c-2.3,0-4.1,1.8-4.1,4.1v86.3
	c0,2.3,1.8,4.1,4.1,4.1h46.3v-36.7h-12.6v-14.4h12.6c0,0,0-6.6,0-11.3s3.4-18,15.9-18c14.1-0.2,13.7,0.6,13.7,0.6l-0.1,12.8h-9.1
	c0,0-5.6,0.8-5.6,6.1s0.1,9.9,0.1,9.9h14.1l-1.6,14.4h-12.3L171.6,162.1z"/>
<text transform="matrix(1 0 0 1 2.2135 237.5009)" fill="#512C1D" font-family="'Futura-Medium'" font-size="35.9426">@</text>
<text transform="matrix(1 0 0 1 33.8561 237.5009)" fill="#512C1D" font-family="'Futura-Medium'" font-size="35.9426">P</text>
<text transform="matrix(1 0 0 1 52.3014 237.5009)" fill="#512C1D" font-family="'Futura-Medium'" font-size="35.9426">a</text>
<text transform="matrix(1 0 0 1 73.8532 237.5009)" fill="#512C1D" font-family="'Futura-Medium'" font-size="35.9426">n</text>
<text transform="matrix(1 0 0 1 93.5622 237.5009)" fill="#512C1D" font-family="'Futura-Medium'" font-size="35.9426">e</text>
<text transform="matrix(1 0 0 1 113.446 237.5009)" fill="#512C1D" font-family="'Futura-Medium'" font-size="35.9426">l</text>
<text transform="matrix(1 0 0 1 122.3962 237.5009)" fill="#512C1D" font-family="'Futura-Medium'" font-size="35.9426">a</text>
<text transform="matrix(1 0 0 1 143.9479 237.5009)" fill="#512C1D" font-family="'Futura-Medium'" font-size="35.9426">B</text>
<text transform="matrix(1 0 0 1 165.2009 237.5009)" fill="#512C1D" font-family="'Futura-Medium'" font-size="35.9426">e</text>
<text transform="matrix(1 0 0 1 185.0856 237.5009)" fill="#512C1D" font-family="'Futura-Medium'" font-size="35.9426">l</text>
<text transform="matrix(1 0 0 1 194.0358 237.5009)" fill="#512C1D" font-family="'Futura-Medium'" font-size="35.9426">l</text>
<text transform="matrix(1 0 0 1 202.986 237.5009)" fill="#512C1D" font-family="'Futura-Medium'" font-size="35.9426">a</text>
<text transform="matrix(1 0 0 1 224.8542 237.5009)" fill="#512C1D" font-family="'Futura-Medium'" font-size="35.9426">v</text>
<text transform="matrix(1 0 0 1 242.9128 237.5009)" fill="#512C1D" font-family="'Futura-Medium'" font-size="35.9426">i</text>
<text transform="matrix(1 0 0 1 251.863 237.5009)" fill="#512C1D" font-family="'Futura-Medium'" font-size="35.9426">s</text>
<text transform="matrix(1 0 0 1 266.4479 237.5009)" fill="#512C1D" font-family="'Futura-Medium'" font-size="35.9426">t</text>
<text transform="matrix(1 0 0 1 276.5915 237.5009)" fill="#512C1D" font-family="'Futura-Medium'" font-size="35.9426">a</text>
</svg>
