<?xml version="1.0" encoding="utf-8"?>
<!-- Generator: Adobe Illustrator 18.1.1, SVG Export Plug-In . SVG Version: 6.00 Build 0)  -->
<svg version="1.1" baseProfile="tiny" id="Capa_1" xmlns="http://www.w3.org/2000/svg" xmlns:xlink="http://www.w3.org/1999/xlink"
	 x="0px" y="0px" viewBox="0 0 300 300" xml:space="preserve">
<rect x="-1" fill="none" width="301" height="301"/>
<g>
	<path fill="#512C1D" d="M188.5,91.7c0,0,1.1-11.1-7.7-20.4c-8.8-9.3-24.7-8-24.7-8c-35.7-1.1-43.6,1.9-43.6,1.9s-6.9,2.9-11.1,7.9
		c-4.2,5-5.1,11.1-5.1,11.1s-1.3,2.1-1.1,26s2.1,29.7,2.1,29.7s2.5,7.9,8.8,12c6.3,4.1,14,4.6,14,4.6s2.6,0.6,22.2,0.6
		s25.8-1.1,25.8-1.1s8.7-1.4,13.9-7.7c5.2-6.3,5.9-9.2,6.7-22.7C189.3,112.2,188.5,91.7,188.5,91.7z M176.5,141.7
		c-3.5,4.5-10.7,6.2-10.7,6.2s-6.5,0.6-22.7,0.7c-16.2,0.1-21.7-0.2-21.7-0.2s-6.1-0.3-9.9-2.9c-3.8-2.6-6-7.7-6-7.7
		s-1.9-2.2-1.8-25.2s0.7-25.1,0.7-25.1s0.1-5.8,5.7-11c5.6-5.2,21.3-4.5,21.3-4.5s10.5-0.3,24.1,0c0,0,14.1-0.6,19.1,4.6
		c5,5.2,5.1,9.9,5.1,9.9s0.7,12.2,0.7,25.7s-0.3,18.1-0.3,18.1S180,137.2,176.5,141.7z"/>
	<path fill="#512C1D" d="M141.9,86.2c-13.3,0-24.1,10.8-24.1,24.1c0,13.3,10.8,24.1,24.1,24.1c13.3,0,24.1-10.8,24.1-24.1
		C166,97,155.2,86.2,141.9,86.2z M142.1,125.8c-8.6,0-15.6-7-15.6-15.6s7-15.6,15.6-15.6c8.6,0,15.6,7,15.6,15.6
		S150.7,125.8,142.1,125.8z"/>
	<circle fill="#512C1D" cx="167" cy="85.4" r="5.8"/>
</g>
<text transform="matrix(1 0 0 1 2.6082 234.1075)" fill="#512C1D" font-family="'Futura-Medium'" font-size="35.3397">@</text>
<text transform="matrix(1 0 0 1 33.7205 234.1075)" fill="#512C1D" font-family="'Futura-Medium'" font-size="35.3397">p</text>
<text transform="matrix(1 0 0 1 54.9105 234.1075)" fill="#512C1D" font-family="'Futura-Medium'" font-size="35.3397">a</text>
<text transform="matrix(1 0 0 1 76.1004 234.1075)" fill="#512C1D" font-family="'Futura-Medium'" font-size="35.3397">n</text>
<text transform="matrix(1 0 0 1 95.4783 234.1075)" fill="#512C1D" font-family="'Futura-Medium'" font-size="35.3397">e</text>
<text transform="matrix(1 0 0 1 115.0291 234.1075)" fill="#512C1D" font-family="'Futura-Medium'" font-size="35.3397">l</text>
<text transform="matrix(1 0 0 1 123.8299 234.1075)" fill="#512C1D" font-family="'Futura-Medium'" font-size="35.3397">a</text>
<text transform="matrix(1 0 0 1 145.0194 234.1075)" fill="#512C1D" font-family="'Futura-Medium'" font-size="35.3397">b</text>
<text transform="matrix(1 0 0 1 166.2098 234.1075)" fill="#512C1D" font-family="'Futura-Medium'" font-size="35.3397">e</text>
<text transform="matrix(1 0 0 1 185.7606 234.1075)" fill="#512C1D" font-family="'Futura-Medium'" font-size="35.3397">l</text>
<text transform="matrix(1 0 0 1 194.5614 234.1075)" fill="#512C1D" font-family="'Futura-Medium'" font-size="35.3397">l</text>
<text transform="matrix(1 0 0 1 203.3612 234.1075)" fill="#512C1D" font-family="'Futura-Medium'" font-size="35.3397">a</text>
<text transform="matrix(1 0 0 1 224.8621 234.1075)" fill="#512C1D" font-family="'Futura-Medium'" font-size="35.3397">v</text>
<text transform="matrix(1 0 0 1 242.618 234.1075)" fill="#512C1D" font-family="'Futura-Medium'" font-size="35.3397">i</text>
<text transform="matrix(1 0 0 1 251.4188 234.1075)" fill="#512C1D" font-family="'Futura-Medium'" font-size="35.3397">s</text>
<text transform="matrix(1 0 0 1 265.7576 234.1075)" fill="#512C1D" font-family="'Futura-Medium'" font-size="35.3397">t</text>
<text transform="matrix(1 0 0 1 275.7322 234.1075)" fill="#512C1D" font-family="'Futura-Medium'" font-size="35.3397">a</text>
</svg>
