<?xml version="1.0" encoding="utf-8"?>
<!-- Generator: Adobe Illustrator 18.1.1, SVG Export Plug-In . SVG Version: 6.00 Build 0)  -->
<svg version="1.1" baseProfile="tiny" id="Capa_1" xmlns="http://www.w3.org/2000/svg" xmlns:xlink="http://www.w3.org/1999/xlink"
	 x="0px" y="0px" viewBox="0 0 359.5 308.8" xml:space="preserve">
<rect x="0" y="0" fill="none" width="359.5" height="308.8"/>
<path fill="#FFDA85" d="M12.9,183.7c1,1.8,3.5,1.8,5.5,0c2-1.7,2.7-4.6,1.6-6.4c-1-1.8-3.5-1.8-5.5-0.1
	C12.6,179,11.8,181.9,12.9,183.7"/>
<path fill="#FFDA85" d="M34.2,176.8c1,1.6,3.2,1.7,5.1,0.1c1.8-1.6,2.5-4.3,1.5-5.9c-1-1.6-3.3-1.7-5.1-0.1
	C33.8,172.5,33.2,175.2,34.2,176.8"/>
<path fill="#FFDA85" d="M39.3,154.5c2-1.7,2.7-4.6,1.6-6.4c-1-1.8-3.5-1.8-5.4-0.1c-2,1.7-2.7,4.6-1.6,6.4
	C34.8,156.2,37.3,156.2,39.3,154.5"/>
<path fill="#FFDA85" d="M39.3,132.1c2.1-1.8,2.9-4.9,1.7-6.8c-1.1-1.9-3.8-2-5.8-0.1c-2.1,1.9-2.9,4.9-1.7,6.8
	C34.6,134,37.2,134,39.3,132.1"/>
<path fill="#FFDA85" d="M56.9,187c-1.7,1.5-2.3,4-1.4,5.6c0.9,1.5,3.1,1.6,4.8,0.1c1.7-1.5,2.3-4,1.4-5.5
	C60.7,185.6,58.6,185.5,56.9,187"/>
<path fill="#FFDA85" d="M60.3,125.5c2.1-1.8,2.9-4.9,1.7-6.8c-1.1-1.9-3.8-2-5.8-0.1c-2.1,1.9-2.9,4.9-1.7,6.9
	C55.6,127.3,58.2,127.4,60.3,125.5"/>
<path fill="#FFDA85" d="M62,96.1c-1.1-1.9-3.7-1.9-5.8-0.1c-2.1,1.8-2.9,4.9-1.8,6.8c1.1,1.9,3.8,1.9,5.8,0.1
	C62.3,101,63.1,98,62,96.1"/>
<path fill="#FFDA85" d="M78.1,203.3c-1.5,1.4-2.1,3.6-1.3,5.1c0.8,1.4,2.8,1.4,4.3,0.1c1.6-1.4,2.2-3.7,1.3-5.1
	C81.6,201.9,79.7,201.9,78.1,203.3"/>
<path fill="#FFDA85" d="M78.1,180.6c-1.6,1.4-2.2,3.7-1.3,5.1c0.8,1.4,2.8,1.4,4.4,0.1c1.6-1.4,2.1-3.7,1.3-5.1
	C81.6,179.3,79.6,179.3,78.1,180.6"/>
<path fill="#FFDA85" d="M76.1,140.9c1,1.7,3.3,1.7,5.1,0.1c1.8-1.6,2.5-4.3,1.5-5.9c-1-1.6-3.3-1.7-5.1-0.1
	C75.8,136.6,75.1,139.3,76.1,140.9"/>
<path fill="#FFDA85" d="M81.2,118.6c2-1.7,2.7-4.6,1.6-6.4c-1.1-1.8-3.5-1.8-5.4-0.1c-2,1.7-2.7,4.6-1.6,6.4
	C76.8,120.3,79.2,120.4,81.2,118.6"/>
<path fill="#FFDA85" d="M81.2,96.3c2.1-1.9,2.9-5,1.8-6.8c-1.1-1.9-3.7-1.9-5.9-0.1c-2.1,1.9-2.9,4.9-1.8,6.8
	C76.5,98.1,79.1,98.1,81.2,96.3"/>
<path fill="#FFDA85" d="M99.5,219.7c-1.3,1.1-1.7,3-1.1,4.1c0.7,1.2,2.3,1.2,3.5,0.1c1.3-1.1,1.8-3,1.1-4.2
	C102.4,218.6,100.8,218.6,99.5,219.7"/>
<path fill="#FFDA85" d="M99.3,196.9c-1.4,1.3-1.9,3.3-1.2,4.6c0.8,1.3,2.5,1.3,3.9,0.1c1.4-1.3,2-3.4,1.2-4.6
	C102.5,195.6,100.7,195.6,99.3,196.9"/>
<path fill="#FFDA85" d="M98.7,128.4c-1.8,1.6-2.5,4.3-1.5,5.9c1,1.7,3.2,1.7,5.1,0.1c1.8-1.6,2.5-4.3,1.5-5.9
	C102.7,126.8,100.4,126.8,98.7,128.4"/>
<path fill="#FFDA85" d="M96.8,111.9c1,1.8,3.5,1.8,5.5,0.1c2-1.7,2.7-4.6,1.6-6.4c-1-1.8-3.5-1.8-5.4-0.1
	C96.4,107.3,95.7,110.1,96.8,111.9"/>
<path fill="#FFDA85" d="M102.1,89.4c2-1.7,2.7-4.6,1.6-6.4c-1-1.8-3.5-1.8-5.4-0.1c-2,1.8-2.7,4.6-1.6,6.4
	C97.7,91.1,100.2,91.1,102.1,89.4"/>
<path fill="#FFDA85" d="M103.9,60.2c-1.1-1.9-3.7-1.9-5.8-0.1C96,62,95.2,65,96.3,66.9c1.1,1.9,3.8,1.9,5.9,0.1
	C104.3,65.2,105.1,62.1,103.9,60.2"/>
<path fill="#FFDA85" d="M104.1,37.4c-1.2-2-4-2-6.2-0.1c-2.3,2-3.1,5.3-1.9,7.3c1.2,2,4,2.1,6.3,0C104.4,42.7,105.3,39.4,104.1,37.4
	"/>
<path fill="#FFDA85" d="M120.6,213.1c-1.3,1.2-1.8,3-1.1,4.2c0.7,1.1,2.2,1.2,3.5,0c1.3-1.1,1.8-3,1.1-4.2
	C123.4,211.9,121.8,211.9,120.6,213.1"/>
<path fill="#FFDA85" d="M120.3,190.2c-1.4,1.3-2,3.4-1.2,4.6c0.8,1.3,2.5,1.3,4,0c1.4-1.2,1.9-3.3,1.2-4.6
	C123.5,189,121.7,189,120.3,190.2"/>
<path fill="#FFDA85" d="M119.8,121.9c-1.7,1.5-2.3,4-1.4,5.6c0.9,1.5,3,1.6,4.8,0c1.7-1.5,2.3-4,1.4-5.5
	C123.6,120.5,121.5,120.4,119.8,121.9"/>
<path fill="#FFDA85" d="M118,105.1c1,1.7,3.2,1.7,5.1,0.1c1.8-1.6,2.5-4.3,1.5-5.9c-1-1.6-3.3-1.6-5-0.1
	C117.8,100.8,117.1,103.4,118,105.1"/>
<path fill="#FFDA85" d="M123.1,82.8c2-1.7,2.7-4.6,1.7-6.3c-1.1-1.8-3.5-1.8-5.5-0.1c-2,1.8-2.7,4.6-1.6,6.4
	C118.8,84.5,121.2,84.5,123.1,82.8"/>
<path fill="#FFDA85" d="M123.2,60.4c2.1-1.9,2.9-5,1.8-6.9c-1.1-1.9-3.7-1.9-5.8,0c-2.1,1.9-2.9,4.9-1.8,6.8
	C118.5,62.2,121.1,62.3,123.2,60.4"/>
<path fill="#FFDA85" d="M125.1,30.7c-1.2-2.1-4-2.1-6.3-0.1c-2.2,2-3.1,5.2-1.9,7.3c1.2,2,4,2,6.2,0.1
	C125.5,36,126.3,32.8,125.1,30.7"/>
<path fill="#FFDA85" d="M141.1,232.8c0.5,0.9,1.8,0.9,2.8,0c1-0.9,1.4-2.3,0.8-3.2c-0.5-0.9-1.8-0.9-2.8,0
	C140.9,230.4,140.6,231.9,141.1,232.8"/>
<path fill="#FFDA85" d="M140.8,210.4c0.6,1,2,1,3.1,0c1.2-1,1.6-2.7,1-3.7c-0.6-1-2-1.1-3.2,0C140.6,207.7,140.1,209.4,140.8,210.4"
	/>
<path fill="#FFDA85" d="M141.5,183.8c-1.3,1.1-1.7,3-1.1,4.2c0.7,1.2,2.3,1.2,3.6,0c1.3-1.2,1.8-3,1.1-4.1
	C144.3,182.7,142.8,182.7,141.5,183.8"/>
<path fill="#FFDA85" d="M140.8,115.3c-1.7,1.5-2.3,4-1.4,5.6c0.9,1.5,3,1.5,4.7,0c1.7-1.5,2.3-4,1.4-5.5
	C144.6,113.9,142.5,113.8,140.8,115.3"/>
<path fill="#FFDA85" d="M140.6,92.5c-1.8,1.6-2.5,4.3-1.6,5.9c1,1.7,3.2,1.7,5.1,0.1c1.8-1.6,2.5-4.3,1.5-5.9
	C144.7,90.9,142.4,90.9,140.6,92.5"/>
<path fill="#FFDA85" d="M138.7,76.1c1,1.8,3.5,1.8,5.4,0c2-1.7,2.7-4.6,1.7-6.3c-1.1-1.8-3.5-1.8-5.5-0.1
	C138.4,71.4,137.7,74.3,138.7,76.1"/>
<path fill="#FFDA85" d="M144.1,53.5c1.9-1.7,2.7-4.6,1.6-6.4c-1.1-1.8-3.5-1.8-5.4-0.1c-2,1.7-2.7,4.6-1.7,6.4
	C139.7,55.2,142.2,55.3,144.1,53.5"/>
<path fill="#FFDA85" d="M145.9,24.4c-1.1-1.9-3.7-2-5.8-0.1c-2.1,1.9-2.9,4.9-1.8,6.9c1.1,1.9,3.8,1.9,5.9,0.1
	C146.2,29.3,147,26.2,145.9,24.4"/>
<path fill="#FFDA85" d="M162.8,270.9c0.4,0.7,1.3,0.7,2.1,0.1c0.7-0.6,1-1.7,0.6-2.4c-0.4-0.6-1.3-0.6-2,0
	C162.7,269.2,162.4,270.2,162.8,270.9"/>
<path fill="#FFDA85" d="M162.5,248.5c0.5,0.8,1.5,0.8,2.4,0c0.8-0.8,1.2-2,0.7-2.8c-0.5-0.8-1.5-0.8-2.4-0.1
	C162.3,246.5,162,247.7,162.5,248.5"/>
<path fill="#FFDA85" d="M162.1,226.1c0.5,0.9,1.8,0.9,2.8,0.1c1-0.9,1.4-2.3,0.8-3.2c-0.5-0.9-1.8-0.9-2.8,0
	C162,223.7,161.6,225.2,162.1,226.1"/>
<path fill="#FFDA85" d="M161.8,203.7c0.6,1,2,1.1,3.2,0.1c1.1-1,1.5-2.7,0.9-3.7c-0.6-1-2-1.1-3.2-0.1
	C161.6,201.1,161.2,202.7,161.8,203.7"/>
<path fill="#FFDA85" d="M162.5,177.2c-1.3,1.2-1.7,3-1.1,4.2c0.7,1.2,2.2,1.2,3.5,0.1c1.3-1.1,1.8-3,1.1-4.2
	C165.4,176.1,163.8,176.1,162.5,177.2"/>
<path fill="#FFDA85" d="M162.2,131.8c-1.4,1.3-2,3.3-1.2,4.6c0.8,1.3,2.5,1.4,4,0.1c1.4-1.3,2-3.3,1.2-4.6
	C165.4,130.5,163.6,130.5,162.2,131.8"/>
<path fill="#FFDA85" d="M162,108.9c-1.5,1.4-2.1,3.7-1.3,5.1c0.8,1.4,2.8,1.4,4.3,0.1c1.6-1.4,2.1-3.6,1.3-5.1
	C165.5,107.6,163.5,107.5,162,108.9"/>
<path fill="#FFDA85" d="M161.7,86.1c-1.7,1.5-2.3,4-1.4,5.5c0.9,1.6,3,1.6,4.7,0.1c1.7-1.5,2.3-4,1.4-5.6
	C165.5,84.6,163.4,84.6,161.7,86.1"/>
<path fill="#FFDA85" d="M160,69.2c1,1.6,3.2,1.7,5.1,0c1.8-1.6,2.5-4.3,1.5-5.9c-1-1.6-3.3-1.7-5.1-0.1
	C159.7,64.9,159,67.6,160,69.2"/>
<path fill="#FFDA85" d="M165.1,46.9c2-1.7,2.7-4.6,1.6-6.4c-1.1-1.8-3.5-1.8-5.5,0c-2,1.8-2.7,4.6-1.6,6.4
	C160.7,48.6,163.1,48.7,165.1,46.9"/>
<path fill="#FFDA85" d="M165.2,24.5c2.1-1.9,2.9-4.9,1.8-6.8c-1.1-1.9-3.7-2-5.8-0.1c-2.1,1.9-2.9,5-1.8,6.9
	C160.4,26.4,163.1,26.4,165.2,24.5"/>
<path fill="#FFDA85" d="M183.4,219.2c0.5,0.8,1.5,0.8,2.4,0c0.9-0.8,1.2-2,0.7-2.8c-0.5-0.8-1.5-0.8-2.4,0
	C183.3,217.3,182.9,218.5,183.4,219.2"/>
<path fill="#FFDA85" d="M183,196.9c0.5,0.9,1.8,0.9,2.8,0c1-0.9,1.4-2.3,0.8-3.2c-0.5-0.9-1.8-0.9-2.8,0
	C182.9,194.5,182.5,196,183,196.9"/>
<path fill="#FFFFFF" d="M191.7,173.7c0.6,1,2,1,3.2,0c1.1-1,1.6-2.7,1-3.7c-0.6-1-2-1-3.2,0C191.6,171,191.1,172.7,191.7,173.7"/>
<path fill="#FFDA85" d="M183.2,125.1c-1.4,1.3-2,3.3-1.2,4.6c0.8,1.3,2.5,1.3,4,0.1c1.4-1.3,2-3.3,1.2-4.6
	C186.4,123.9,184.6,123.9,183.2,125.1"/>
<path fill="#FFDA85" d="M183,102.3c-1.6,1.4-2.1,3.7-1.3,5.1c0.8,1.4,2.8,1.5,4.3,0c1.6-1.4,2.2-3.7,1.3-5.1
	C186.5,100.9,184.5,100.9,183,102.3"/>
<path fill="#FFDA85" d="M182.8,79.5c-1.7,1.5-2.4,4-1.4,5.5c0.9,1.5,3.1,1.6,4.8,0.1c1.7-1.5,2.3-4,1.4-5.6
	C186.6,78,184.5,78,182.8,79.5"/>
<path fill="#FFDA85" d="M182.6,56.7c-1.8,1.6-2.5,4.3-1.5,5.9c1,1.6,3.2,1.7,5.1,0c1.8-1.6,2.5-4.2,1.5-5.9
	C186.6,55.1,184.4,55.1,182.6,56.7"/>
<path fill="#FFDA85" d="M180.7,40.2c1,1.8,3.5,1.8,5.4,0.1c1.9-1.7,2.7-4.6,1.7-6.4c-1-1.8-3.5-1.8-5.5-0.1
	C180.4,35.5,179.6,38.4,180.7,40.2"/>
<path fill="#FFDA85" d="M186,17.7c2-1.7,2.7-4.6,1.6-6.4c-1.1-1.8-3.5-1.8-5.5-0.1c-2,1.7-2.7,4.6-1.6,6.4
	C181.6,19.4,184.1,19.4,186,17.7"/>
<path fill="#FFDA85" d="M204.4,212.6c0.5,0.8,1.5,0.8,2.3,0c0.9-0.8,1.2-2,0.7-2.8c-0.5-0.8-1.5-0.8-2.4,0
	C204.3,210.6,204,211.9,204.4,212.6"/>
<path fill="#FFDA85" d="M204.1,190.2c0.6,0.9,1.8,0.9,2.8,0.1c1-0.9,1.4-2.3,0.8-3.3c-0.5-0.9-1.8-0.9-2.8-0.1
	C203.9,187.9,203.5,189.3,204.1,190.2"/>
<path fill="#FFDA85" d="M204.2,118.5c-1.4,1.3-1.9,3.3-1.2,4.6c0.8,1.3,2.5,1.3,3.9,0.1c1.4-1.3,2-3.3,1.2-4.6
	C207.4,117.3,205.6,117.2,204.2,118.5"/>
<path fill="#FFDA85" d="M204.2,95.9c-1.4,1.3-2,3.3-1.2,4.6c0.8,1.3,2.5,1.3,3.9,0c1.4-1.3,1.9-3.3,1.2-4.6
	C207.3,94.7,205.6,94.6,204.2,95.9"/>
<path fill="#FFDA85" d="M203.9,73.1c-1.6,1.4-2.1,3.7-1.3,5.1c0.8,1.4,2.8,1.5,4.3,0.1c1.6-1.4,2.1-3.7,1.3-5.1
	C207.4,71.7,205.5,71.7,203.9,73.1"/>
<path fill="#FFDA85" d="M203.7,50.2c-1.7,1.5-2.3,4-1.4,5.5c0.9,1.6,3,1.6,4.7,0.1c1.7-1.5,2.4-4,1.4-5.5
	C207.5,48.8,205.4,48.7,203.7,50.2"/>
<path fill="#FFDA85" d="M203.5,27.4c-1.8,1.6-2.5,4.2-1.5,5.9c1,1.6,3.2,1.7,5.1,0.1c1.8-1.6,2.5-4.3,1.5-5.9
	C207.5,25.8,205.3,25.8,203.5,27.4"/>
<path fill="#FFDA85" d="M225.7,228.4c0.4,0.7,1.3,0.7,2,0c0.8-0.7,1-1.7,0.6-2.4c-0.4-0.7-1.3-0.7-2.1,0
	C225.6,226.7,225.3,227.7,225.7,228.4"/>
<path fill="#FFDA85" d="M225.4,206c0.5,0.8,1.5,0.8,2.3,0c0.9-0.8,1.2-2,0.8-2.8c-0.5-0.8-1.5-0.8-2.4,0
	C225.3,204,225,205.2,225.4,206"/>
<path fill="#FFDA85" d="M225.4,183.4c0.4,0.8,1.5,0.8,2.3,0.1c0.9-0.8,1.2-2,0.7-2.8c-0.5-0.8-1.5-0.8-2.4,0
	C225.2,181.4,224.9,182.6,225.4,183.4"/>
<path fill="#FFDA85" d="M225.4,112.1c-1.3,1.1-1.7,3-1.1,4.2c0.7,1.2,2.3,1.2,3.5,0.1c1.3-1.1,1.8-3,1.1-4.2
	C228.3,111,226.7,111,225.4,112.1"/>
<path fill="#FFDA85" d="M225.2,89.3c-1.4,1.2-1.9,3.3-1.2,4.6c0.8,1.3,2.5,1.3,3.9,0.1c1.4-1.3,2-3.3,1.2-4.6
	C228.3,88,226.6,88,225.2,89.3"/>
<path fill="#FFDA85" d="M224.9,66.4c-1.5,1.4-2.1,3.7-1.3,5.1c0.8,1.4,2.8,1.5,4.4,0.1c1.5-1.4,2.1-3.7,1.3-5.1
	C228.4,65.1,226.5,65,224.9,66.4"/>
<path fill="#FFDA85" d="M247,221.6c0.3,0.5,1.1,0.5,1.7,0c0.6-0.5,0.8-1.4,0.5-2c-0.3-0.5-1.1-0.5-1.7,0
	C246.9,220.1,246.7,221,247,221.6"/>
<path fill="#FFDA85" d="M246.7,199.2c0.4,0.7,1.3,0.7,2,0c0.7-0.6,1-1.7,0.6-2.4c-0.4-0.7-1.3-0.7-2.1,0
	C246.5,197.4,246.3,198.5,246.7,199.2"/>
<path fill="#FFDA85" d="M245.7,132c0.6,1,2,1.1,3.2,0.1c1.1-1,1.6-2.7,1-3.7c-0.6-1-2-1-3.2,0C245.5,129.3,245.1,131,245.7,132"/>
<path fill="#FFDA85" d="M246.4,105.5c-1.3,1.1-1.8,3-1.1,4.1c0.7,1.2,2.3,1.2,3.5,0.1c1.3-1.1,1.8-3,1.1-4.2
	C249.3,104.4,247.7,104.3,246.4,105.5"/>
<path fill="#FFDA85" d="M246.3,82.9c-1.3,1.1-1.7,3-1.1,4.1c0.7,1.2,2.3,1.2,3.5,0.1c1.3-1.2,1.8-3,1.1-4.2
	C249.2,81.8,247.6,81.7,246.3,82.9"/>
<path fill="#FFDA85" d="M246.1,60.1c-1.4,1.2-1.9,3.3-1.2,4.6c0.8,1.3,2.6,1.3,3.9,0.1c1.4-1.3,2-3.3,1.2-4.6
	C249.3,58.8,247.5,58.8,246.1,60.1"/>
<path fill="#FFDA85" d="M268,214.9c0.3,0.5,1.1,0.6,1.7,0c0.6-0.5,0.8-1.4,0.5-2c-0.3-0.5-1.1-0.5-1.7,0
	C267.9,213.5,267.7,214.4,268,214.9"/>
<path fill="#FFDA85" d="M267.7,192.5c0.4,0.7,1.3,0.7,2,0c0.8-0.7,1-1.8,0.6-2.4c-0.4-0.7-1.3-0.7-2.1,0
	C267.6,190.8,267.3,191.9,267.7,192.5"/>
<path fill="#FFFFFF" d="M276.6,169.1c0.4,0.7,1.3,0.7,2,0.1c0.8-0.7,1-1.8,0.6-2.4c-0.4-0.7-1.3-0.7-2.1,0
	C276.5,167.4,276.3,168.4,276.6,169.1"/>
<path fill="#FFDA85" d="M267,125.1c0.5,0.9,1.8,0.9,2.8,0c1-0.9,1.4-2.3,0.8-3.2c-0.5-0.9-1.8-0.9-2.8-0.1
	C266.8,122.8,266.4,124.2,267,125.1"/>
<path fill="#FFDA85" d="M266.6,102.8c0.6,1,2,1.1,3.2,0.1c1.1-1,1.6-2.7,1-3.7c-0.6-1-2-1-3.2,0C266.4,100.1,266,101.7,266.6,102.8"
	/>
<path fill="#FFDA85" d="M267.3,76.2c-1.3,1.1-1.7,3-1.1,4.1c0.7,1.2,2.3,1.2,3.5,0.1c1.3-1.1,1.8-3,1.1-4.2
	C270.2,75.2,268.6,75.1,267.3,76.2"/>
<path fill="#FFDA85" d="M289,185.7c0.3,0.5,1.1,0.5,1.6,0c0.6-0.5,0.8-1.4,0.5-1.9c-0.3-0.5-1.1-0.6-1.7,0
	C288.9,184.3,288.6,185.2,289,185.7"/>
<path fill="#FFDA85" d="M288,118.5c0.5,0.9,1.8,0.9,2.8,0c1-0.9,1.4-2.3,0.8-3.2c-0.5-0.9-1.8-0.9-2.7,0
	C287.8,116.2,287.5,117.6,288,118.5"/>
<path fill="#FFDA85" d="M287.7,96.2c0.6,1,2,1,3.1,0c1.1-1,1.6-2.7,1-3.7c-0.6-1-2-1.1-3.2,0C287.5,93.5,287,95.1,287.7,96.2"/>
<path fill="#FFDA85" d="M288.4,69.6c-1.3,1.1-1.7,3-1.1,4.2c0.7,1.2,2.3,1.2,3.5,0c1.3-1.1,1.8-3,1.1-4.2
	C291.2,68.5,289.6,68.5,288.4,69.6"/>
<path fill="#FFDA85" d="M309.6,134.1c0.4,0.7,1.3,0.7,2,0c0.7-0.6,1-1.7,0.6-2.3c-0.4-0.7-1.3-0.7-2-0.1
	C309.4,132.3,309.2,133.4,309.6,134.1"/>
<path fill="#FFDA85" d="M331.6,194.5c0.2,0.3,0.6,0.3,0.9,0c0.3-0.3,0.4-0.8,0.3-1.1c-0.2-0.3-0.6-0.3-0.9,0
	C331.6,193.8,331.5,194.3,331.6,194.5"/>
<path fill="#FFDA85" d="M330.6,127.5c0.4,0.7,1.3,0.7,2.1,0c0.7-0.6,1-1.7,0.6-2.4c-0.4-0.7-1.3-0.7-2-0.1
	C330.4,125.7,330.2,126.8,330.6,127.5"/>
<path fill="#512C1D" d="M311.9,147.7c0-5.2-4.3-9.3-9.7-9.3c-0.4,0-0.8,0.1-1.2,0.1c0.1-2.1,0.2-4.2,0.2-6.3c0-2.5-0.1-4.9-0.3-7.4
	c0.6,0.1,1.2,0.2,1.8,0.2c5.4,0,9.7-4.2,9.7-9.3c0-4.1-2.7-7.5-6.4-8.8c2.1-1.7,3.5-4.2,3.5-7.1c0-3.9-2.5-7.2-6-8.6
	c1.1-1.5,1.7-3.3,1.7-5.3c0-5.1-4.3-9.3-9.5-9.3c0.8-1.4,1.3-2.9,1.3-4.6c0-5-4.1-9.1-9.2-9.3c0.6-1.2,0.9-2.5,0.9-3.9
	c0-5.2-4.3-9.4-9.7-9.4c-0.7,0-1.3,0.1-2,0.2c0.4-1,0.6-2.1,0.6-3.2c0-5.2-4.3-9.3-9.7-9.3c-0.6,0-1.1,0.1-1.7,0.2
	c0.1-0.6,0.2-1.1,0.2-1.7c0-5.2-4.3-9.4-9.7-9.4c-1.5,0-3,0.4-4.2,1c-0.3-4.9-4.5-8.8-9.6-8.8c-2.2,0-4.3,0.8-5.9,2
	c0-0.1,0-0.1,0-0.2c0-5.2-4.3-9.4-9.7-9.4c-2.1,0-4.1,0.7-5.7,1.8c-0.9-4.3-4.8-7.5-9.5-7.5c-2.6,0-5,1-6.7,2.6
	c-1.3-3.6-4.9-6.2-9.1-6.2c-3.8,0-7,2.1-8.6,5.1c-1.6-3-4.8-5.1-8.6-5.1c-4.2,0-7.7,2.6-9.1,6.2c-1.7-2.8-4.8-4.8-8.4-4.8
	c-4.1,0-7.5,2.4-9,5.8c-1.7-1.5-4-2.4-6.4-2.4c-4.3,0-8,2.8-9.2,6.6c-1.7-1.3-3.7-2-6-2c-5.4,0-9.7,4.2-9.7,9.4c0,0.1,0,0.2,0,0.4
	c-1.6-1.2-3.7-2-5.9-2c-5.4,0-9.7,4.2-9.7,9.3c0,0.4,0.1,0.7,0.1,1.1c-1.3-0.7-2.8-1.1-4.5-1.1c-5.2,0-9.4,4-9.7,8.9
	c-0.6-0.1-1.2-0.2-1.8-0.2c-5.4,0-9.7,4.2-9.7,9.3c0,1.3,0.3,2.5,0.7,3.6c-0.6-0.1-1.2-0.2-1.8-0.2c-5.4,0-9.7,4.2-9.7,9.3
	c0,1.1,0.2,2,0.6,3c-0.2,0-0.4-0.1-0.6-0.1c-5.4,0-9.7,4.2-9.7,9.3c0,1.9,0.6,3.6,1.6,5.1c-4.6,0.8-8.1,4.6-8.1,9.2
	c0,2.3,0.9,4.3,2.3,5.9c-3.7,1.3-6.4,4.7-6.4,8.7c0,3.2,1.7,6,4.2,7.7c-3.9,1.2-6.8,4.7-6.8,8.9c0,5.2,4.3,9.3,9.7,9.3
	c0.4,0,0.9-0.1,1.3-0.1c-0.1,2.2-0.2,4.3-0.2,6.5c0,2.4,0.1,4.8,0.2,7.2c-0.6-0.1-1.2-0.2-1.8-0.2c-5.4,0-9.7,4.2-9.7,9.3
	c0,4.1,2.7,7.5,6.4,8.8c-2.1,1.7-3.5,4.3-3.5,7.1c0,3.9,2.5,7.2,6,8.6c-1.1,1.5-1.7,3.3-1.7,5.3c0,5.1,4.3,9.3,9.5,9.3
	c-0.8,1.4-1.3,2.9-1.3,4.6c0,5,4.1,9.1,9.2,9.3c-0.6,1.2-0.9,2.5-0.9,3.9c0,5.2,4.3,9.3,9.7,9.3c0.7,0,1.4-0.1,2-0.2
	c-0.4,1-0.6,2.1-0.6,3.2c0,5.2,4.3,9.3,9.7,9.3c0.6,0,1.1-0.1,1.7-0.2c-0.1,0.5-0.2,1.1-0.2,1.7c0,5.2,4.3,9.3,9.7,9.3
	c1.5,0,3-0.4,4.2-1c0.3,4.9,4.5,8.8,9.6,8.8c2.2,0,4.3-0.8,5.9-2c0,0.1,0,0.2,0,0.2c0,5.2,4.3,9.4,9.7,9.4c2.1,0,4.1-0.7,5.7-1.8
	c0.9,4.3,4.8,7.5,9.5,7.5c2.6,0,5-1,6.7-2.6c1.3,3.6,4.9,6.2,9.1,6.2c3.8,0,7-2.1,8.6-5.1c1.6,3,4.8,5.1,8.6,5.1
	c4.2,0,7.8-2.6,9.1-6.2c1.7,2.8,4.8,4.8,8.4,4.8c4.1,0,7.5-2.4,9-5.8c1.7,1.5,4,2.4,6.4,2.4c4.3,0,8-2.8,9.2-6.6c1.7,1.3,3.7,2,6,2
	c5.4,0,9.7-4.2,9.7-9.4c0-0.1,0-0.2,0-0.3c1.6,1.2,3.7,2,5.9,2c5.4,0,9.7-4.2,9.7-9.3c0-0.4-0.1-0.7-0.1-1.1
	c1.3,0.7,2.8,1.1,4.5,1.1c5.2,0,9.4-4,9.7-8.9c0.6,0.1,1.2,0.2,1.8,0.2c5.4,0,9.7-4.2,9.7-9.3c0-1.3-0.3-2.5-0.7-3.6
	c0.6,0.1,1.2,0.2,1.8,0.2c5.4,0,9.7-4.2,9.7-9.4c0-1.1-0.2-2-0.6-3c0.2,0,0.4,0.1,0.6,0.1c5.4,0,9.7-4.2,9.7-9.3
	c0-1.9-0.6-3.6-1.6-5.1c4.6-0.8,8.1-4.6,8.1-9.2c0-2.3-0.9-4.3-2.3-5.9c3.7-1.3,6.4-4.7,6.4-8.7c0-3.2-1.7-6-4.2-7.7
	C309.1,155.4,311.9,151.9,311.9,147.7"/>
<path fill="#E20613" d="M179,242.1c-62.9,0-114.1-49.3-114.1-109.9c0-60.6,51.2-109.9,114.1-109.9c62.9,0,114.1,49.3,114.1,109.9
	C293.1,192.8,241.9,242.1,179,242.1"/>
<path fill="#FFEC00" d="M179,230.9c-56.5,0-102.5-44.3-102.5-98.7c0-54.4,46-98.7,102.5-98.7c56.5,0,102.5,44.3,102.5,98.7
	C281.5,186.6,235.5,230.9,179,230.9"/>
<path fill="#FFFFFF" d="M179,219.7c-50.1,0-90.8-39.2-90.8-87.5c0-48.2,40.7-87.5,90.8-87.5c50.1,0,90.8,39.2,90.8,87.5
	C269.9,180.4,229.1,219.7,179,219.7"/>
<path fill="#E20613" d="M264,132.2c0,45.2-38.1,81.9-85,81.9c-47,0-85-36.7-85-81.9c0-45.2,38.1-81.9,85-81.9
	C226,50.3,264,87,264,132.2"/>
<path fill="#FFEC00" d="M253.5,70.9c-4,0-7.8,1-11.1,2.7V62.2h-21.5v11.9c-3.1-1.2-6-1.6-8.1-1.8c-0.8-0.1-1.5-0.1-2.2-0.1
	c-6.5,0-12.2,2-16.6,5.7c-3.6-3.4-8.6-5.6-15-5.6l-0.4,0c-7.4,0-12.8,2.3-16.4,5.4c-4.4-4.3-10.4-6.9-17-6.9
	c-4.5,0-8.8,1.3-12.4,3.4c-1.1-2.7-2.8-5.1-5-7.1c-3.8-3.5-8.6-5.5-13.3-5.5c-0.2,0-0.4,0-0.6,0c-1,0-2.5,0-4.2,0
	c-3.5,0-7.4-0.1-7.6-0.1l-8.8-0.2l0,0.3h-2.3v57.9h21.5v-15.9h2.4l0.6,0l0.5,0c1.9-0.2,3.8-0.7,5.6-1.4c3,10.3,12.4,17.8,23.6,17.8
	c1.4,0,2.8-0.1,4.2-0.4h6.3h13.9h7.6V93.2c0.3,0,0.7-0.1,1.3-0.1v26.5h21.5v-2.5c3.1,1.4,6.4,2.1,10,2.1h0h0c4.2,0,7.8-1,10.9-2.4
	v2.8h21.5v-2.3c3.4,1.7,7.1,2.7,11.1,2.7c1.4,0,2.8-0.1,4.2-0.4h20.2V98.1c0.1-0.9,0.2-1.8,0.2-2.7C278.1,81.9,267,70.9,253.5,70.9
	 M256.4,96.6c-0.4,1.5-1.6,2.7-2.9,2.7c-1.6,0-3-1.8-3-3.8c0-2,1.4-3.8,3-3.8c1.3,0,2.5,1.1,2.9,2.7V96.6z M147.9,96.6
	c-0.4,1.5-1.6,2.7-2.9,2.7c-1.6,0-3-1.8-3-3.8c0-2,1.4-3.8,3-3.8c1.3,0,2.5,1.1,2.9,2.7V96.6z M112.4,83v-0.5c0.2,0,0.3,0,0.5,0
	c0,0.1,0,0.3,0,0.5H112.4z"/>
<polygon fill="#FFEC00" points="2.6,195.7 26.1,157.6 2.6,119.6 358.4,119.6 331.1,158.2 358.7,195.7 "/>
<polygon fill="#512C1D" points="12.8,125.2 347.4,125.2 324,158.3 347.4,190.1 12.8,190.1 32.8,157.6 "/>
<line fill="none" stroke="#FFFFFF" stroke-width="0.354" stroke-miterlimit="1" stroke-dasharray="0.98,0.98" x1="336.7" y1="132.1" x2="21.9" y2="132.1"/>
<line fill="none" stroke="#FFFFFF" stroke-width="0.354" stroke-miterlimit="1" stroke-dasharray="0.98,0.98" x1="336.7" y1="185.3" x2="21.9" y2="185.3"/>
<path fill="#512C1D" d="M145.1,79.3c-8.7,0-15.8,7.3-15.8,16.2c0,8.9,7.1,16.2,15.8,16.2c4.6,0,8.7-2,11.6-5.2v4.8h4.1V97.6
	c0.1-0.7,0.2-1.4,0.2-2.2C160.9,86.5,153.8,79.3,145.1,79.3 M145.1,107.7c-6.5,0-11.7-5.5-11.7-12.2c0-6.7,5.3-12.2,11.7-12.2
	c5.8,0,10.7,4.5,11.6,10.3v3.9C155.8,103.2,150.9,107.7,145.1,107.7"/>
<path fill="#512C1D" d="M269.3,95.5c0-8.9-7.1-16.2-15.9-16.2c-8.7,0-15.9,7.3-15.9,16.2c0,8.9,7.1,16.2,15.9,16.2
	c4.6,0,8.7-2,11.6-5.2v4.8h4.1V97.6C269.3,96.9,269.3,96.2,269.3,95.5 M253.5,107.7c-6.5,0-11.8-5.5-11.8-12.2
	c0-6.7,5.3-12.2,11.8-12.2c5.8,0,10.7,4.5,11.6,10.3v3.9C264.2,103.2,259.3,107.7,253.5,107.7"/>
<path fill="#512C1D" d="M178.8,80.8L178.8,80.8h-0.3c-13.9,0-14.2,10.4-14.2,10.5v20h4.1v-20c0-0.7,0.4-6.7,10.4-6.6
	c7.4,0,8.3,5.8,8.3,6.3v20.2h4.1l0-20.4C190.9,87.4,187.9,80.8,178.8,80.8"/>
<path fill="#512C1D" d="M225.2,96.8l-0.1-2c-0.1-3.6-0.5-13.1-13.1-14c-5.1-0.3-9.5,0.9-12.6,3.7c-3,2.6-4.8,6.6-4.9,10.9
	c-0.1,4.2,1.7,8.4,4.7,11.4c2.8,2.8,6.4,4.2,10.5,4.2h0c11.2,0,15-9.9,15.1-10.3l-3.9-1.3c0,0.1-2.9,7.7-11.3,7.7h0
	c-3.7,0-6.2-1.6-7.6-3c-1.9-1.8-3.1-4.4-3.5-7h24.3L225.2,96.8z M199,93c0.5-2.2,1.6-4.2,3.2-5.6c2.3-2,5.5-2.9,9.5-2.6
	c7,0.5,8.7,4.2,9.1,8.3H199z"/>
<rect x="229.5" y="70.6" fill="#512C1D" width="4.1" height="40.6"/>
<path fill="#512C1D" d="M114.1,70.1c-3.1,0.1-12.4,0-12.5,0v0h-2.1v41.1h4.1V95.3h11.1l0.1,0c3.7-0.4,10.8-3.5,10.8-12.2
	c0-5-2.2-8.1-4.1-9.8C119.4,71.2,116.5,70,114.1,70.1 M114.5,91.4h-10.9V74.1c3,0,8.3,0.1,10.6,0c1.1,0,2.9,0.6,4.5,2
	c1.3,1.2,2.8,3.4,2.8,7C121.6,90.1,115.6,91.2,114.5,91.4"/>
<path fill="#FFFFFF" d="M284.1,161.6c0-7.8-6.5-14.1-14.4-14.1c-7.9,0-14.4,6.3-14.4,14.1c0,7.8,6.5,14.1,14.4,14.1
	c3.5,0,6.7-1.2,9.1-3.2v2.1h5.1v-11.1C284,162.9,284.1,162.2,284.1,161.6 M269.7,170.8c-5.1,0-9.3-4.1-9.3-9.2
	c0-5.1,4.2-9.2,9.3-9.2c4.7,0,8.5,3.4,9.1,7.8v2.7C278.2,167.4,274.3,170.8,269.7,170.8"/>
<path fill="#FFFFFF" d="M178.9,161.6c0-7.8-6.5-14.1-14.4-14.1c-8,0-14.4,6.3-14.4,14.1c0,7.8,6.5,14.1,14.4,14.1
	c3.5,0,6.7-1.2,9.1-3.2v2.1h5.1v-11.1C178.8,162.9,178.9,162.2,178.9,161.6 M164.5,170.8c-5.1,0-9.3-4.1-9.3-9.2
	c0-5.1,4.2-9.2,9.3-9.2c4.7,0,8.5,3.4,9.1,7.8v2.7C173,167.4,169.1,170.8,164.5,170.8"/>
<path fill="#FFFFFF" d="M115.8,175.7c-3.6,0-6.9-1.3-9.5-3.8c-2.9-2.8-4.5-6.8-4.4-10.8c0.1-4.1,1.7-7.8,4.6-10.3
	c2.8-2.5,6.7-3.6,11.3-3.3c11.5,0.8,11.8,10.1,12,13.1l0.1,2.6l-2.6,0.1h-19.9c0.4,1.9,1.4,3.8,2.8,5.1c1.6,1.6,3.6,2.4,5.8,2.3
	c6.5,0,8.8-6.1,8.9-6.4l4.8,1.6C129.5,166.5,126.1,175.7,115.8,175.7L115.8,175.7z M107.5,158.4h16.9c-0.5-3.1-1.9-5.6-7-5.9
	c-3.2-0.2-5.7,0.5-7.5,2C108.8,155.5,108,156.8,107.5,158.4"/>
<path fill="#FFFFFF" d="M96,156.4c2-1.4,3.5-3.7,3.5-6.9c0-2.6-1-4.9-2.9-6.7c-2.4-2.2-5.5-3-7.3-2.9c-1.5,0.1-5,0-7.4,0v0h-2.2
	c-0.2,0-0.3,0-0.3,0v0h-2.6v34.7h2.6h2.6h8.1l0.1,0c3.3-0.3,9.5-2.9,9.5-10.1c0-3.9-1.8-6.4-3.3-7.8C96.1,156.5,96,156.5,96,156.4
	 M89.4,144.8c0.8,0,2.4,0.4,3.6,1.5c0.9,0.8,1.4,1.9,1.4,3.2c0,3.5-4,4.2-4.8,4.2h-7.8v-8.9C84.2,144.8,87.7,144.8,89.4,144.8
	 M89.6,169.6h-7.8v-10.9c2.4,0,6,0,7.6,0c0.6,0,2,0.4,3.2,1.4c1.2,1.1,1.8,2.5,1.8,4.3C94.4,168.7,90.6,169.5,89.6,169.6"/>
<rect x="132.9" y="140.2" fill="#FFFFFF" width="5.1" height="34.4"/>
<rect x="142.2" y="140.2" fill="#FFFFFF" width="5.1" height="34.4"/>
<polygon fill="#FFFFFF" points="193.7,178 176.3,141.2 180.9,139.1 193.5,165.8 205.5,139.2 210.2,141.1 "/>
<rect x="214" y="140.2" fill="#FFFFFF" width="5.1" height="5.8"/>
<rect x="214" y="147.9" fill="#FFFFFF" width="5.1" height="26"/>
<path fill="#FFFFFF" d="M230.1,174.9c-1.7,0-3.2-0.3-4.4-0.8c-4-1.8-3.9-5.8-3.9-7.5l0-0.5h5.1c0,0.2,0,0.4,0,0.7
	c-0.1,2,0.1,2.6,0.9,2.9c1.1,0.5,3.9,0.6,5.4-0.3c0.5-0.3,1-0.8,1-2c-0.1-2.9-1.7-3.7-5.4-5.1c-0.8-0.3-1.6-0.6-2.4-1
	c-3.4-1.5-5.2-5.2-4.4-8.6c0.7-2.6,3.2-5.3,8.3-5.1c7.8,0.3,9.9,4.8,9.9,7.1H235h2.6l-2.6,0.1c-0.1-0.8-1.2-2.1-5-2.3
	c-1,0-2.8,0.1-3.1,1.3c-0.2,1,0.3,2.4,1.6,2.9c0.7,0.3,1.5,0.6,2.2,0.9c3.7,1.5,8.4,3.3,8.5,9.6c0.1,2.6-1.1,4.9-3.3,6.2
	C234.3,174.5,232.1,174.9,230.1,174.9"/>
<path fill="#FFFFFF" d="M248.5,167.8c-0.9-0.9-0.8-2-0.8-2l0-12.8h6.3v-4.9h-6.3l0-7.9h-5.1v25.3c-0.1,0.7-0.1,3.3,2,5.6
	c2,2.2,5.1,3.3,9.4,3.4l0.1-4.9C251.4,169.4,249.4,168.8,248.5,167.8"/>
<polygon fill="#E20613" points="133.4,211.8 137.1,209.9 136.4,213.9 139.4,216.7 135.2,217.3 133.4,220.9 131.5,217.3 127.4,216.7 
	130.4,213.9 129.7,209.9 "/>
<polygon fill="#E20613" points="152.6,219 156.3,217.1 155.6,221.1 158.6,223.9 154.4,224.5 152.6,228.1 150.7,224.5 146.6,223.9 
	149.6,221.1 148.8,217.1 "/>
<polygon fill="#E20613" points="178.2,221.8 181.9,219.9 181.2,223.9 184.2,226.7 180,227.3 178.2,230.9 176.3,227.3 172.2,226.7 
	175.2,223.9 174.5,219.9 "/>
<polygon fill="#E20613" points="203.8,219.5 207.5,217.6 206.8,221.6 209.8,224.4 205.6,225 203.8,228.6 201.9,225 197.8,224.4 
	200.8,221.6 200.1,217.6 "/>
<polygon fill="#E20613" points="221.2,213.4 225,211.6 224.3,215.5 227.3,218.4 223.1,219 221.2,222.6 219.4,219 215.2,218.4 
	218.2,215.5 217.5,211.6 "/>
<path fill="none" stroke="#1D1D1B" stroke-width="1.5" stroke-linejoin="round" stroke-miterlimit="22.926" d="M324.6,257.5
	c-0.1-0.7-0.4-1.4-1-2.1c-0.6-0.7-1.2-1-2-0.9c-2.1,0.2-3.6,2.2-4.6,6.1c-0.8,3.1-1.1,6-0.8,8.7c0.1,1.5,0.5,2.8,1,3.9
	c0.8,1.6,1.8,2.3,3.1,2.2c2.1-0.2,3.4-2.8,4.1-7.7C324.9,264.1,324.9,260.7,324.6,257.5z M332.4,272.9c0,0.4-0.1,0.7-0.5,1
	c-0.4,0.3-0.9,0.5-1.4,0.5c-1.4,0.1-2.7-0.7-3.7-2.5c-0.4-0.7-0.8-1.6-1.2-2.6c-0.7,2.1-1.4,3.6-2,4.5c-1,1.6-2.3,2.5-3.9,2.7
	c-2.1,0.2-3.9-0.9-5.4-3.3c-1.1-1.9-1.8-4-2-6.4c-0.3-2.9,0.4-6.1,1.9-9.6c1.6-3.6,3.1-5.4,4.7-5.6c0.3,0,0.7,0,1.1,0.2
	c0.4,0.2,0.7,0.3,1,0.5c0.3,0.1,0.5,0.3,0.7,0.4c1.4,0.7,2.5,1.2,3.1,1.5c0.5-0.5,1-0.8,1.5-0.9c0.5,0,1,0.1,1.5,0.3
	c0.5,0.3,0.8,0.7,0.8,1.2c-0.3,1.6-0.5,3.5-0.6,5.6c-0.1,2.2-0.1,4.3,0.1,6.3c0.1,1.4,0.4,2.8,0.7,4.2c0.3,1.4,0.9,2.1,1.7,2
	c0.3,0,0.6-0.2,0.8-0.4c0.2-0.3,0.3-0.4,0.4-0.4C332.2,272.1,332.4,272.3,332.4,272.9z M311.1,274.6c0,0.4-0.2,0.9-0.7,1.5
	c-0.6,0.6-1.1,0.9-1.5,0.9c-1.5,0.1-2.8-0.8-3.8-2.8c-0.8-1.5-1.3-3.2-1.4-5c-0.1-1.5-0.2-3-0.1-4.6c0.1-1.6,0.2-3.1,0.4-4.7
	c-0.1,0-0.6,0.2-1.7,0.5c-0.4,0.1-0.8,0.2-1.2,0.2c-0.4,3.1-0.7,5.9-0.9,8.6c-0.2,2.7-0.2,4.9-0.1,6.5c0,0.4,0.1,0.8,0.1,1.1
	c0,0.4,0.1,0.7,0.2,1c0.1,0.7-0.3,1.1-0.9,1.1c-0.4,0-0.8-0.2-1-0.6c-0.2-0.4-0.4-0.9-0.4-1.4c-0.2-1.7-0.1-3.6,0.2-5.9
	c0.8-6.6,1.3-10,1.3-10.3c0-0.3-0.2-0.8-0.4-1.5c-0.2-0.7-0.4-1.2-0.4-1.7c-0.1-1.6-0.2-3,0-4.3c0.1-1.2,0.5-1.8,1.3-1.9
	c0.4,0,0.8,0.1,1.2,0.3c0.3,0.3,0.5,0.6,0.6,1.1c0,0.5,0,1.1-0.1,1.8c-0.1,0.7-0.2,1.5-0.3,2.2c0,0.5,0.2,0.9,0.4,1.2
	c0.2,0.4,0.5,0.6,1,0.5c0.6-0.1,1.1-0.4,1.5-1.2c0.4-0.7,0.8-1,1.2-1.1c0.6-0.1,1.3,0.1,2,0.5c0.7,0.5,1,1,1.1,1.7
	c-0.4,1.4-0.8,2.6-1,3.6c-0.6,3-0.8,5.6-0.6,7.9c0.1,1.3,0.4,2.5,0.8,3.5c0.4,1,0.8,1.5,1.3,1.5c0.2,0,0.5-0.3,0.7-0.7
	c0.2-0.4,0.4-0.6,0.6-0.6c0,0,0.1,0,0.1,0C310.9,273.9,311.1,274.1,311.1,274.6z M296.2,275.9c0,0.4-0.1,0.7-0.5,1
	c-0.4,0.3-0.8,0.4-1.2,0.5c-1.1,0.1-2.1-0.4-3-1.4c-0.7-0.8-1.2-1.9-1.6-3.1c-0.6,2.4-1.3,4.1-2.1,4.9c-0.8,0.8-1.9,1.3-3.1,1.4
	c-2,0.2-3.5-0.8-4.6-2.9c-0.8-1.6-1.3-3.5-1.5-5.7c-0.3-3.6-0.5-6-0.5-7.2c0-3,0.5-4.5,1.5-4.6c0.5,0,1,0,1.6,0.3
	c0.6,0.3,0.9,0.6,1,1.1c-0.1,2.4-0.3,4.6-0.3,6.6c-0.1,2-0.1,3.6,0,4.8c0.2,1.7,0.4,3.1,0.7,4c0.6,1.6,1.5,2.4,2.7,2.3
	c1.5-0.1,2.5-2,3.1-5.5c0.5-3.5,0.5-8,0-13.5c0-0.4,0.1-0.7,0.4-1c0.3-0.3,0.7-0.4,1.2-0.5c0.6-0.1,1.2,0.1,1.7,0.5
	c0.5,0.4,0.8,0.9,0.8,1.6c-0.1,2.5-0.1,4.9-0.2,7.2c0,2.3,0,4,0.1,5.2c0.1,1.4,0.3,2.5,0.7,3.3c0.3,0.9,0.7,1.3,1.1,1.2
	c0.2,0,0.4-0.2,0.7-0.5c0.3-0.3,0.5-0.5,0.6-0.5C296,275.1,296.2,275.3,296.2,275.9z M275.1,261.2c0.1,0.6-0.7,1-2.3,1.3
	c-1.6,0.4-2.8,0.6-3.7,0.7c-0.1,1.2-0.2,2.6-0.1,4c0,1.5,0.1,3.1,0.2,4.7c0,0.5,0.1,0.9,0.1,1.2c0.2,1.8,0.4,3.1,0.7,3.9
	c0.5,1.5,1.4,2.1,2.6,2c0.6-0.1,1-0.3,1.5-0.8c0.4-0.4,0.8-0.9,1.3-1.5c0.5,0,0.8,0.3,0.9,0.9c0.1,0.8-0.3,1.5-1.2,2.1
	c-0.9,0.6-1.8,1-2.6,1c-2.3,0.2-4-0.7-5.3-2.8c-0.9-1.5-1.5-3.5-1.7-6.1c-0.2-1.7-0.2-3.3-0.1-5c0-1.7,0.1-2.9,0.1-3.5
	c-0.7,0-1.1-0.1-1.4-0.1c-0.7-0.2-1.1-0.5-1.1-0.9c0-0.2,0.3-0.5,1.1-0.8c0.7-0.2,1.2-0.4,1.6-0.4c-0.1-0.8,0-2.4,0.2-4.6
	c0.1-1.1,0.2-2.2,0.3-3.3c0-0.7,0-1.5-0.1-2.4c-0.1-0.8-0.1-1.5-0.2-1.8c0-0.4,0.2-0.7,0.6-1c0.4-0.2,0.9-0.4,1.3-0.4
	c0.5,0,1,0.1,1.6,0.4c0.6,0.4,0.9,0.8,1,1.3c0,0.1,0,0.3-0.1,0.5c-0.3,0.6-0.4,1.2-0.5,1.6c-0.2,1.1-0.3,2.8-0.4,5.1
	c-0.1,2.3-0.1,3.7-0.1,4.3c1.4-0.1,2.7-0.2,3.9-0.2C274.4,260.7,275,260.9,275.1,261.2z M255.1,263.9c-0.1-0.7-0.4-1.4-1-2.1
	c-0.6-0.7-1.2-1-2-0.9c-2.1,0.2-3.6,2.2-4.6,6.1c-0.8,3.1-1.1,6-0.8,8.7c0.1,1.5,0.5,2.8,1,3.9c0.8,1.6,1.8,2.3,3.1,2.2
	c2.1-0.2,3.4-2.8,4.1-7.7C255.3,270.4,255.4,267.1,255.1,263.9z M262.9,279.3c0,0.4-0.1,0.7-0.5,1c-0.4,0.3-0.9,0.5-1.4,0.5
	c-1.4,0.1-2.7-0.7-3.7-2.5c-0.4-0.7-0.8-1.6-1.2-2.6c-0.7,2.1-1.4,3.6-2,4.5c-1,1.6-2.3,2.5-3.9,2.7c-2.1,0.2-3.9-0.9-5.4-3.3
	c-1.1-1.9-1.8-4-2-6.4c-0.3-2.9,0.4-6.1,1.9-9.6c1.6-3.6,3.1-5.4,4.7-5.6c0.3,0,0.7,0,1.1,0.2c0.4,0.2,0.7,0.3,1,0.5
	c0.3,0.1,0.5,0.3,0.7,0.4c1.4,0.7,2.5,1.2,3.1,1.5c0.5-0.5,1-0.8,1.5-0.9c0.5,0,1,0.1,1.5,0.3c0.5,0.3,0.8,0.7,0.8,1.2
	c-0.3,1.6-0.5,3.5-0.6,5.6c-0.1,2.2-0.1,4.3,0.1,6.3c0.1,1.4,0.4,2.8,0.7,4.2c0.3,1.4,0.9,2.1,1.7,2c0.3,0,0.6-0.2,0.8-0.4
	c0.2-0.3,0.3-0.4,0.5-0.4C262.7,278.4,262.9,278.7,262.9,279.3z M237.4,242.1c-0.8,0.7-1.4,2-1.9,3.8c-0.5,1.9-0.6,4.5-0.3,7.7
	c0.2,1.7,0.6,5.1,1.4,10.1c0.4,2.9,0.7,4.9,0.8,6.1c0.4,4.3,0.3,7.6-0.1,9.8c-0.5,2.2-1.6,3.4-3,3.5c-2.5,0.2-4.9-1.4-7.2-5
	c-1.8-2.8-3.5-6.9-5.1-12.2c-0.6-1.9-1.7-6.1-3.4-12.6c-0.1,6.5-0.3,11.5-0.8,14.9c-0.7,5.7-2.1,10.1-4.2,13.4
	c-1.4,2.2-2.7,3.8-3.9,4.7c-1.2,1-2.9,1.6-5.1,1.8c-3.3,0.3-6.3-0.6-8.8-2.6c-2.6-2-4-4.7-4.3-8c-0.2-1.8,0.2-3.8,1.1-5.9
	c0.8-2,1.9-3.1,3.1-3.2c0.2,0,0.4,0,0.6,0.1c0.3,0.1,0.4,0.3,0.4,0.5c-1.1,1-2,2.1-2.8,3.3c-0.9,1.4-1.3,3.1-1.1,4.9
	c0.3,2.8,1.6,5,4,6.5c2.2,1.3,4.7,1.9,7.7,1.6c1.4-0.1,2.7-0.5,3.7-1.1c1-0.6,1.9-1.4,2.6-2.4c0.7-1,1.6-2.4,2.4-4.1
	c1.9-3.9,3.1-9.1,3.5-15.6c0.3-4.8,0.2-10.2-0.4-16.2c0-0.4,0.1-0.7,0.4-1c0.3-0.2,0.7-0.4,1.1-0.4c0.8-0.1,1.8,0.1,2.9,0.6
	c1.1,0.5,1.6,1.1,1.7,1.8c0.3,3.2,1,7.6,2.2,13.3c1.2,5.6,2.5,10.4,4,14.4c1.9,5,3.6,7.4,5.3,7.2c1-0.1,1.5-1,1.7-2.7
	c0.1-0.9,0-2.5-0.2-4.8c-0.2-2.2-0.4-4.2-0.7-6c-0.8-6.3-1.3-9.6-1.3-10.1c-0.3-3.3-0.2-6.7,0.2-10.1c0.5-4.2,1.5-6.4,2.9-6.5
	C237.1,241.5,237.3,241.7,237.4,242.1z M169.3,279.7c-0.3-3-0.9-5.5-1.9-7.6c-1-2.1-2.2-3-3.5-2.9c-0.4-0.2-0.7-0.3-1-0.3
	c-1.5,0.1-2.6,1.9-3.3,5.4c-0.6,2.9-0.8,5.7-0.5,8.5c0.2,1.7,0.6,3.2,1.4,4.6c1,1.7,2.3,2.5,3.8,2.4c1.7-0.2,3.1-1.4,4-3.9
	C169.2,283.9,169.5,281.8,169.3,279.7z M171.5,278c0.3,3.1-0.1,5.9-1,8.3c-1.3,3.1-3.3,4.8-6.1,5c-2.6,0.2-4.8-0.8-6.4-3.1
	c-1.4-1.9-2.2-4.3-2.5-7.1c-0.3-3,0.2-6.1,1.3-9.5c1.1-3.3,2.5-5,4.1-5.2c0.7-0.1,1.6,0.1,2.7,0.6c1,0.5,1.8,0.7,2.3,0.7
	c1.9,0,3.4,1.4,4.4,4C170.8,273.3,171.2,275.4,171.5,278z M152.5,272.4c0.1,0.6-0.7,1-2.3,1.3c-1.6,0.4-2.8,0.6-3.7,0.7
	c-0.1,1.2-0.2,2.6-0.1,4c0,1.5,0.1,3.1,0.2,4.7c0,0.5,0.1,0.9,0.1,1.2c0.2,1.8,0.4,3.1,0.7,3.9c0.5,1.5,1.4,2.1,2.6,2
	c0.6-0.1,1-0.3,1.5-0.8c0.4-0.4,0.8-0.9,1.3-1.5c0.5,0,0.8,0.3,0.9,0.9c0.1,0.8-0.3,1.5-1.2,2.1c-0.9,0.6-1.8,1-2.6,1
	c-2.3,0.2-4-0.7-5.3-2.8c-0.9-1.5-1.5-3.5-1.7-6.1c-0.2-1.7-0.2-3.3-0.1-5.1c0-1.7,0.1-2.9,0.1-3.5c-0.7,0-1.1-0.1-1.4-0.1
	c-0.7-0.2-1.1-0.5-1.1-0.9c0-0.2,0.3-0.5,1.1-0.8c0.7-0.2,1.2-0.4,1.6-0.4c-0.1-0.8,0-2.4,0.2-4.6c0.1-1.1,0.2-2.2,0.3-3.3
	c0-0.7,0-1.5-0.1-2.4c-0.1-0.8-0.1-1.5-0.2-1.8c0-0.4,0.2-0.7,0.6-1c0.4-0.2,0.9-0.4,1.3-0.4c0.5,0,1,0.1,1.6,0.4
	c0.6,0.4,0.9,0.8,1,1.3c0,0.1,0,0.3-0.1,0.5c-0.3,0.6-0.4,1.2-0.5,1.6c-0.2,1.1-0.3,2.8-0.4,5.1c-0.1,2.3-0.1,3.7-0.1,4.3
	c1.4-0.1,2.7-0.2,3.9-0.2C151.8,271.9,152.5,272.1,152.5,272.4z M140.8,291.4c0,0.2,0,0.3-0.2,0.4c-0.2,0.1-0.6,0.2-1,0.3
	c-1.8,0.2-3.2-0.7-4.2-2.5c-0.7-1.3-1.2-3.4-1.4-6.2c-0.1-1.2-0.2-2.3-0.2-3.3c-0.1-1.1-0.1-2.1-0.2-3.1c-0.1-0.9-0.2-1.6-0.4-2.2
	c-0.2-0.5-0.5-0.8-0.8-0.7c-1.1,0.1-1.8,1.8-2,5.1c-0.2,3.3-0.4,6.6-0.6,9.8c-0.3,3.5-1.2,5.3-2.4,5.4c-0.9,0.1-1.6-0.4-2.1-1.5
	c-0.5-1-0.8-2.1-0.9-3.3c-0.2-1.8-0.2-5.3-0.1-10.5c0-2.6,0-4.7-0.1-6.2c0-0.5,0-1.1,0-1.6c0.1-0.6,0.5-0.9,1.2-1
	c0.6-0.1,1.2,0,1.7,0.3c0.6,0.2,0.9,0.6,0.9,1.1c-0.4,2.9-0.7,5.9-0.9,9.2c-0.2,3.4-0.2,5.9-0.1,7.6c0.1,0.8,0.2,1.3,0.4,1.2
	c0.4-3,0.8-6,1.2-9c0.9-6.1,2.4-9.2,4.6-9.4c1.3-0.1,2.3,0.8,2.9,2.7c0.5,1.4,0.9,3.6,1.2,6.6c0.1,0.9,0.2,1.8,0.2,2.7
	c0,0.9,0.1,1.8,0.2,2.7c0.1,1.6,0.3,2.8,0.6,3.5c0.2,0.8,0.5,1.2,1,1.1C140.3,290.8,140.8,291,140.8,291.4z M117.7,277.3
	c-0.1-1.1-0.4-2-0.8-2.7c-0.6-1-1.4-1.4-2.4-1.3c-1.9,0.2-3.3,2.3-4.2,6.4c-0.4,1.7-0.6,3.3-0.6,4.8c0.4,0.1,0.8,0.5,1.2,1.1
	c0.4,0.6,1.1,0.9,2.2,0.8c1.7-0.2,3-1.3,3.9-3.5C117.6,281.1,117.9,279.2,117.7,277.3z M121.4,289c0.1,1.6-0.4,3.1-1.6,4.5
	c-1.3,1.4-2.7,2.1-4.3,2.3c-2.9,0.3-5.1-0.8-6.9-3.2c-1.4-2-2.3-4.5-2.6-7.6c-0.2-2.4,0.2-5.2,1.1-8.2c1.2-3.7,2.8-5.6,4.8-5.8
	c0.7-0.1,1.2,0,1.4,0.3c1.9,0.4,3.4,1.1,4.5,2.1c1.1,1,1.7,2.3,1.9,3.8c0.2,2.3-0.3,4.5-1.5,6.6c-1.4,2.4-3.2,3.6-5.4,3.8
	c-0.8,0.1-1.8,0-2.9-0.2c0.2,1.9,0.6,3.5,1.3,4.8c0.9,1.7,2.2,2.5,3.9,2.3c2.2-0.2,3.7-1.4,4.4-3.5c0.4-1,0.7-2.1,1-3.2
	C121,287.9,121.3,288.2,121.4,289z M104.7,294.6c0.1,0.6-0.3,0.9-1.1,0.9c-1.9,0.2-3.3-0.8-4.2-2.8c-0.7-1.5-1.2-3.8-1.5-6.7
	c-0.1-1.1-0.2-2.2-0.2-3.2c0-0.9-0.1-1.9-0.1-2.8c-0.1-1.6-0.4-2.3-0.8-2.3c-0.9,0.1-1.6,3.2-1.9,9.3c-0.3,6.1-1,9.2-2.1,9.3
	c-1,0.1-1.8-0.5-2.2-1.7c-0.5-1.2-0.8-2.8-1-5c-0.1-1.2-0.2-2.4-0.3-3.6c-0.1-1.2-0.1-2.4-0.2-3.6c-0.3-2.8-0.8-4.1-1.6-4
	c-1.1,0.1-1.8,3.4-2.2,10c-0.4,6.6-1.4,10-3.2,10.1c-1,0.1-1.6-0.4-2-1.6c-0.4-1.1-0.7-2.4-0.9-4c-0.2-1.7-0.2-4.2-0.1-7.6
	c0.1-3.4,0-5.9-0.1-7.4c0-0.5-0.1-0.9-0.1-1.2c-0.1-0.3-0.1-0.5-0.1-0.7c0-0.2,0.1-0.5,0.4-0.7c0.3-0.2,0.7-0.3,1.2-0.3
	c0.6-0.1,1.2,0.1,1.9,0.3c0.6,0.3,1,0.6,1,1.1c-0.4,1.5-0.7,4-0.8,7.5c-0.2,3.6-0.2,6.4,0,8.4c0.1,1.1,0.3,1.7,0.5,1.7
	c0,0,0.5-3,1.3-8.9c0.8-5.9,2.2-8.9,4.1-9.1c1.4-0.1,2.4,0.7,3.1,2.4c0.5,1.1,0.8,2.6,0.9,4.3l0.7,8c0.4-3.8,0.8-6.8,1.2-9.2
	c0.8-4.5,2-6.9,3.6-7c1.2-0.1,2.1,0.7,2.7,2.4c0.4,1.2,0.8,3.2,1,6c0.1,0.9,0.2,1.8,0.3,2.8c0,0.9,0.1,1.9,0.2,2.8
	c0.2,1.9,0.4,3.3,0.7,4.3c0.3,0.9,0.8,1.4,1.5,1.3C104.4,294.2,104.6,294.3,104.7,294.6z M76.6,295.7c0.1,0.6-0.2,1.1-0.8,1.5
	c-0.6,0.5-1.2,0.7-1.8,0.8c-1.8,0.2-3.3-0.7-4.4-2.5c-0.8-1.4-1.3-3.1-1.5-5.2c-0.1-1.5-0.2-3.7-0.1-6.6c0.1-2.9,0.1-4.8,0-5.7
	c0-0.4,0.1-0.7,0.4-0.9c0.3-0.1,0.7-0.2,1.3-0.2c0.5,0,1,0.1,1.6,0.5c0.6,0.4,0.9,0.8,1,1.3c-0.5,1.7-0.7,4.1-0.8,7.1
	c-0.1,3,0,5.5,0.1,7.4c0.1,1.4,0.4,2.3,0.7,2.8c0.3,0.5,0.8,0.7,1.5,0.7c0.3,0,0.6-0.3,1-0.8c0.3-0.5,0.6-0.8,0.8-0.8
	c0.1,0,0.3,0,0.4,0.1C76.5,295.2,76.6,295.5,76.6,295.7z M73,271.5c0.1,0.6-0.2,1.1-0.8,1.7c-0.6,0.6-1.2,1-1.8,1
	c-0.6,0.1-1.3-0.1-1.9-0.4c-0.6-0.3-1-0.8-1-1.4c-0.1-0.7,0.2-1.3,0.7-1.8c0.5-0.5,1.1-0.8,1.9-0.8c0.6-0.1,1.2,0.1,1.9,0.4
	C72.6,270.6,73,271,73,271.5z M61.3,270.9c-0.2-1.8-0.4-3.3-0.6-4.5c-0.6-2.5-1.3-3.7-2.2-3.6c-1.3,0.1-2.2,2.7-2.7,7.8
	c-0.5,5.1-0.6,9.8-0.2,14c0.1,1.3,0.3,2.5,0.5,3.6c0.2,1.2,0.4,2.5,0.7,3.8c2-2.3,3.4-5.6,4.2-9.8C61.5,278.8,61.6,275,61.3,270.9z
	 M62.9,268.4c0.3,3,0.4,5.5,0.4,7.5c0,2-0.2,3.9-0.6,5.7c-1,4.4-2.8,8.4-5.6,11.8c0.1,1.3,0.6,2.6,1.5,3.7c0.9,1.2,2,1.7,3.2,1.6
	c0.8-0.1,1.4-0.5,1.8-1.2c0.4-0.7,0.7-1.1,0.9-1.1c0.5,0,0.8,0.3,0.9,0.9c0.1,0.7-0.3,1.4-1.1,2c-0.8,0.6-1.7,0.9-2.5,1
	c-1.6,0.1-3.1-0.4-4.4-1.6c-1-0.9-1.9-2.2-2.9-3.9l-1.1,0.2c-0.4,0-1-0.1-1.6-0.3c-0.7-0.2-1.1-0.6-1.1-1.2c0-0.4,0.1-0.6,0.4-0.7
	c0.1,0,0.2,0,0.4,0.1c0.2,0.1,0.4,0.2,0.6,0.3c0.5,0.2,0.9,0.3,1.3,0.2c0.2,0,0.3,0,0.5-0.1c-0.5-1.6-0.9-3.2-1.3-4.7
	c-0.4-1.5-0.6-2.9-0.8-4.3c-0.2-2.4-0.2-5.2,0-8.5c0.2-4.4,0.8-7.9,1.7-10.5c1.1-3.5,2.7-5.3,4.7-5.5c0.9-0.1,1.6,0.1,2.1,0.6
	c0.5,0.5,1,1.3,1.5,2.5C62.3,264.1,62.7,266,62.9,268.4z M36.7,265c-0.2,0-0.6,1.9-1.3,5.6c-0.4,1.8-1,5.2-1.9,10.2
	c-0.6,3.7-1,5.5-1,5.5l5.8-0.6l-0.7-5.4c-0.1-1.3-0.2-2.8-0.2-4.5c-0.1-4-0.2-6.5-0.3-7.6c0-0.5-0.1-0.9-0.1-1.1
	c0-0.3-0.1-0.7-0.1-1C36.8,265.6,36.7,265.2,36.7,265z M49,299.7c0,0.4-0.1,0.7-0.4,1c-0.3,0.3-0.7,0.4-1.3,0.5
	c-0.5,0-0.9,0-1.3-0.2c-0.4-0.2-0.7-0.4-1-0.8c-0.3-0.3-0.8-1-1.4-1.9c-0.6-0.9-1-1.5-1.1-1.6c-1.7-2.5-3-5.4-3.9-8.7l-6.7,0.6
	c-1.1,4.7-2.7,8.5-5,11.5c-2.8,3.8-6.3,5.9-10.5,6.3c-3.3,0.3-6.2-0.5-8.8-2.4c-2.6-1.9-4-4.5-4.3-7.7c-0.1-1.5,0-3.1,0.4-4.9
	c0.5-2.3,1.3-3.5,2.4-3.6c0.6-0.1,0.9,0.2,1,0.7c-0.8,1-1.4,2.3-1.9,3.7c-0.5,1.4-0.7,2.8-0.5,4.2c0.2,2.6,1.3,4.6,3.2,6
	c1.9,1.4,4.2,2,6.9,1.8c3.7-0.3,7-2.1,9.8-5.3c2.3-2.6,4.1-6,5.4-10.1c-1.4,0.1-2.6,0.2-3.7,0.1c-2.1,0-3.2-0.4-3.3-1
	c0-0.3,0.3-0.5,0.9-0.5l6.7-0.9c1.3-5,2.3-9.7,3-13.9c0.4-3.5,0.8-7,1.3-10.5c0.8-0.8,1.8-1.3,2.9-1.4c0.6-0.1,1.4,0.1,2.4,0.6
	c0.9,0.4,1.5,0.9,1.6,1.5c-0.3,1.1-0.4,3.4-0.5,6.9c-0.1,3.5,0,6.3,0.1,8.2l0.9,7.3l4.4-0.5c0.6-0.1,1,0.1,1,0.4
	c0,0.5-0.7,1-2.2,1.5c-1.5,0.5-2.5,0.7-2.8,0.7c0.2,1.9,0.8,4.3,1.9,7.2c0.3,0.7,0.6,1.6,0.9,2.7c0.3,1.1,0.6,1.8,0.8,2.2
	c0.2,0.3,0.5,0.5,0.9,0.4c0.5-0.4,1-0.6,1.3-0.6L49,299.7z"/>
<path fill="none" stroke="#1D1D1B" stroke-width="1.5" stroke-linejoin="round" stroke-miterlimit="22.926" d="M344.1,245.1
	c-0.2-1.8-0.4-3.3-0.6-4.5c-0.6-2.5-1.3-3.7-2.2-3.6c-1.3,0.1-2.2,2.7-2.7,7.8c-0.5,5.1-0.6,9.8-0.2,14c0.1,1.3,0.3,2.5,0.5,3.6
	c0.2,1.2,0.4,2.5,0.7,3.8c2-2.3,3.4-5.6,4.2-9.8C344.4,253,344.5,249.2,344.1,245.1z M345.8,242.6c0.3,3,0.4,5.5,0.4,7.5
	c0,2-0.2,3.9-0.6,5.7c-1,4.4-2.8,8.4-5.6,11.8c0.1,1.3,0.6,2.6,1.5,3.7c0.9,1.2,2,1.7,3.2,1.6c0.8-0.1,1.4-0.5,1.8-1.2
	c0.4-0.7,0.7-1.1,0.9-1.1c0.5,0,0.8,0.3,0.9,0.9c0.1,0.7-0.3,1.4-1.1,2c-0.8,0.6-1.7,0.9-2.5,1c-1.6,0.1-3.1-0.4-4.4-1.6
	c-1-0.9-1.9-2.2-2.9-3.9l-1.1,0.2c-0.4,0-1-0.1-1.6-0.3c-0.7-0.2-1.1-0.6-1.1-1.2c0-0.4,0.1-0.6,0.4-0.7c0.1,0,0.2,0,0.4,0.1
	c0.2,0.1,0.4,0.2,0.6,0.3c0.5,0.2,0.9,0.3,1.3,0.2c0.2,0,0.3,0,0.5-0.1c-0.5-1.6-0.9-3.2-1.3-4.7c-0.4-1.5-0.6-2.9-0.8-4.3
	c-0.2-2.4-0.2-5.2,0-8.5c0.2-4.4,0.8-7.9,1.7-10.5c1.1-3.5,2.7-5.3,4.7-5.5c0.9-0.1,1.6,0.1,2.1,0.6c0.5,0.5,1,1.3,1.5,2.5
	C345.2,238.3,345.6,240.2,345.8,242.6z"/>
<path fill="#1D1D1B" d="M120.6,286.5c-0.1,0-0.2,0-0.2,0c-0.6,0.1-1.1,0.4-1.2,1c-0.3,1.1-0.7,2.1-1,3.1c-0.5,1.6-1.5,2.3-3.2,2.5
	c-0.1,0-0.2,0-0.3,0c-0.6,0-1.4-0.2-2.2-1.6c-0.4-0.7-0.7-1.5-0.9-2.5c0.2,0,0.4,0,0.6,0c0.3,0,0.5,0,0.8,0c2.7-0.2,4.9-1.8,6.5-4.5
	c1.4-2.4,2-4.9,1.7-7.5c-0.2-1.9-1-3.5-2.4-4.7c-1.2-1.1-2.8-1.9-4.8-2.4c-0.4-0.3-1-0.4-1.7-0.4c-0.2,0-0.3,0-0.5,0
	c-2.7,0.2-4.7,2.5-6.1,6.8c-1,3.2-1.4,6.2-1.2,8.8c0.3,3.3,1.3,6.1,2.8,8.3c1.8,2.6,4.3,3.9,7.2,3.9c0.3,0,0.6,0,1,0
	c2-0.2,3.7-1.1,5.2-2.8c1.5-1.7,2.1-3.5,2-5.6C122.7,287.1,121.6,286.5,120.6,286.5 M111.2,283.7c0.1-1.1,0.3-2.4,0.5-3.7
	c0.7-3.3,1.7-5.2,2.9-5.3c0,0,0.1,0,0.1,0c0.3,0,0.6,0,0.9,0.6c0.3,0.5,0.5,1.2,0.6,2.1c0.2,1.7-0.1,3.4-0.7,4.9
	c-0.9,2.2-1.9,2.5-2.7,2.6c-0.1,0-0.2,0-0.3,0c-0.2,0-0.5,0-0.6-0.2C111.8,284.3,111.5,283.9,111.2,283.7"/>
<path fill="#1D1D1B" d="M64.7,295c-0.1,0-0.2,0-0.2,0c-1,0.1-1.5,1-2,1.8c-0.2,0.4-0.5,0.5-0.7,0.5c-0.1,0-0.1,0-0.2,0
	c-0.5,0-1.1-0.1-1.8-1.1c-0.6-0.8-1-1.6-1.2-2.4c2.7-3.5,4.5-7.5,5.5-11.9c0.4-1.9,0.6-3.9,0.6-6.1c0-2-0.2-4.5-0.4-7.6
	c-0.2-2.6-0.6-4.5-1.2-6c-0.5-1.3-1.1-2.3-1.8-3c-0.7-0.7-1.6-1-2.7-1c-0.2,0-0.3,0-0.5,0c-2.6,0.2-4.6,2.4-6,6.5
	c-0.9,2.8-1.5,6.4-1.7,10.9c-0.2,3.3-0.2,6.3,0,8.7c0.1,1.4,0.4,3,0.8,4.5c0.2,0.8,0.4,1.7,0.6,2.5c-0.2-0.1-0.5-0.1-0.7-0.1
	c0,0-0.1,0-0.2,0c-0.1,0-0.2,0-0.3,0.1c-0.9,0.3-1.5,1.2-1.4,2.2c0.1,1.2,0.9,2.1,2.1,2.5c0.7,0.2,1.4,0.4,1.9,0.4
	c0.1,0,0.2,0,0.3,0c0,0,0.1,0,0.1,0l0.1,0c0.8,1.4,1.7,2.6,2.6,3.4c1.5,1.3,3.1,2,4.9,2c0.2,0,0.4,0,0.6,0c1.1-0.1,2.1-0.5,3.2-1.3
	c1.5-1.1,1.7-2.4,1.7-3.3C66.8,295.5,65.6,295,64.7,295 M57.4,288c-0.2-1.1-0.3-2.3-0.4-3.5c-0.4-4.2-0.3-8.8,0.2-13.8
	c0.4-4.1,1-5.7,1.3-6.2c0.2,0.3,0.5,1,0.7,2.3c0.3,1.2,0.5,2.6,0.6,4.3c0.4,4,0.2,7.7-0.3,11.1c-0.4,2.4-1.1,4.5-2,6.3
	C57.5,288.3,57.5,288.2,57.4,288"/>
<path fill="#1D1D1B" d="M106.1,294.2c-0.3-0.9-1-1.4-1.9-1.4c0,0-0.1,0-0.1,0c0-0.1-0.1-0.2-0.1-0.3c-0.2-0.6-0.5-1.7-0.7-3.9
	c-0.1-0.9-0.1-1.8-0.2-2.7c0,0-0.3-2.8-0.3-2.8c-0.3-2.9-0.6-5-1.1-6.3c-1-2.8-2.6-3.4-3.9-3.4c-0.1,0-0.2,0-0.3,0
	c-2.6,0.2-3.8,3.3-4.5,6.3c-0.1-0.5-0.3-1-0.5-1.5c-1.1-2.7-2.9-3.3-4.2-3.3c-0.1,0-0.3,0-0.4,0c-1.1,0.1-2.4,0.6-3.6,3.3
	c0.1-0.4,0.1-0.7,0.2-1c0-0.2,0.1-0.3,0-0.5c-0.1-0.6-0.4-1.7-1.9-2.3c0,0,0,0-0.1,0c-0.7-0.3-1.4-0.4-2.1-0.4c-0.1,0-0.3,0-0.4,0
	c-0.8,0.1-1.5,0.3-1.9,0.6c0,0-0.1,0.1-0.1,0.1c-0.8,0.7-0.9,1.5-0.9,1.9c0,0.2,0.1,0.4,0.1,0.7l0.1,1.1c0.1,1.4,0.2,3.9,0.1,7.2
	c-0.1,3.5,0,6,0.2,7.8c0.1,0.7,0.1,1.3,0.3,1.9c-0.1-0.4-0.4-0.8-1-1.2c-0.4-0.3-0.8-0.4-1.2-0.4c0,0-0.1,0-0.2,0
	c-1,0.1-1.6,0.9-1.9,1.5c0,0,0,0,0,0.1c-0.1-0.1-0.3-0.6-0.4-2.1c-0.2-1.9-0.2-4.3-0.1-7.3c0.1-2.9,0.4-5.2,0.8-6.8
	c0-0.2,0.1-0.3,0-0.5c-0.1-0.9-0.6-1.7-1.6-2.3c0,0,0,0-0.1,0c-0.3-0.2-0.7-0.4-1-0.5c0.7-0.2,1.4-0.7,2-1.3
	c1.1-1.1,1.2-2.2,1.2-2.8c-0.1-0.7-0.4-1.6-1.8-2.4c-0.8-0.4-1.6-0.6-2.3-0.6c-0.1,0-0.2,0-0.4,0c-1.1,0.1-2,0.5-2.8,1.3
	c-0.8,0.8-1.2,1.9-1.1,3c0.1,1.1,0.8,2,1.8,2.5c0.3,0.2,0.6,0.3,0.9,0.4c-0.3,0.1-0.5,0.1-0.7,0.2c0,0-0.1,0-0.1,0
	c-0.9,0.4-1.3,1.3-1.2,2.3c0.1,0.6,0.1,2,0,5.5c-0.1,2.9-0.1,5.2,0.1,6.8c0.2,2.3,0.8,4.3,1.7,5.8c1.5,2.7,3.7,3.3,5.2,3.3
	c0.2,0,0.4,0,0.6,0c0.8-0.1,1.7-0.4,2.5-1c1.3-0.9,1.4-2.1,1.4-2.8c0.2,0.7,0.3,1.4,0.6,2c0.8,2.2,2.3,2.6,3.2,2.6
	c0.1,0,0.2,0,0.3,0c2.7-0.2,4-3.7,4.5-11.5c0.2-3.8,0.5-6,0.8-7.3c0.1,0.4,0.1,0.8,0.2,1.3l0.2,3.6c0.1,1.2,0.2,2.5,0.3,3.7
	c0.2,2.3,0.6,4.1,1.1,5.4c0.9,2.3,2.5,2.6,3.4,2.6c0.1,0,0.2,0,0.3,0c2.1-0.2,3-3,3.4-10.7c0-0.7,0.1-1.4,0.1-2c0,0.3,0.1,0.7,0.1,1
	c0.3,3.1,0.8,5.5,1.6,7.2c1.4,3,3.6,3.6,5.1,3.6c0.2,0,0.4,0,0.5,0c0.7-0.1,1.3-0.3,1.7-0.6c0.5-0.5,0.8-1.1,0.7-1.9
	C106.1,294.4,106.1,294.3,106.1,294.2"/>
<path fill="#1D1D1B" d="M139.8,289.4C139.8,289.4,139.8,289.3,139.8,289.4c-0.2-0.5-0.4-1.5-0.5-3.4c-0.1-0.9-0.1-1.8-0.2-2.7
	c0,0-0.3-2.8-0.3-2.8c-0.3-3.1-0.7-5.4-1.2-6.9c-1-3.1-2.8-3.7-4.1-3.7c-0.1,0-0.2,0-0.3,0c-1.7,0.2-2.9,1.4-3.8,3.1
	c0-0.4,0.1-0.7,0.1-1.1c0-0.1,0-0.2,0-0.3c-0.1-0.6-0.4-1.7-1.9-2.3c-0.6-0.3-1.3-0.4-1.9-0.4c-0.2,0-0.3,0-0.5,0
	c-1.3,0.1-2.2,0.9-2.5,2.1c0,0.1,0,0.1,0,0.2c0,0.6,0,1.2,0,1.7c0,0,0,0.1,0,0.1c0.1,1.5,0.2,3.5,0.1,6c-0.1,5.3-0.1,8.8,0.1,10.7
	c0.1,1.3,0.5,2.6,1,3.7c0.9,2,2.4,2.3,3.2,2.3c0.1,0,0.2,0,0.3,0c2.8-0.3,3.5-3.9,3.7-6.7c0,0,0,0,0-0.1c0.2-3.5,0.4-6.7,0.6-9.8
	c0.1-1,0.2-1.8,0.3-2.4c0,0.1,0,0.1,0,0.2l0.2,3.1c0.1,1,0.1,2.2,0.2,3.4c0.3,3,0.8,5.2,1.6,6.7c1.4,2.7,3.5,3.3,5,3.3
	c0.2,0,0.4,0,0.6,0c0.7-0.1,1.2-0.2,1.7-0.5c0.6-0.4,0.9-1.1,0.9-1.8C142.1,290.4,141.5,289.4,139.8,289.4"/>
<path fill="#1D1D1B" d="M49.9,298.5l-0.5-0.4c-0.2-0.2-0.5-0.3-0.8-0.3c0,0-0.1,0-0.1,0c-0.3,0-0.7,0.1-1.1,0.3
	c-0.1-0.3-0.2-0.7-0.4-1.3c-0.4-1.2-0.7-2.1-0.9-2.8c-0.8-2.2-1.4-4-1.6-5.6c0.4-0.1,1-0.3,1.7-0.5c0.9-0.3,3.4-1,3.2-3
	c-0.1-0.8-0.7-1.7-2.2-1.7c-0.1,0-0.3,0-0.4,0l-3,0.3l-0.7-5.9c-0.2-1.8-0.2-4.5-0.1-8c0.1-4.2,0.3-6,0.4-6.6c0.1-0.2,0-0.5,0-0.7
	c-0.3-1-1.1-1.8-2.4-2.5c-1.1-0.5-2-0.7-2.7-0.7c-0.1,0-0.2,0-0.3,0c-1.5,0.1-2.8,0.7-3.8,1.8c-0.2,0.2-0.4,0.5-0.4,0.8
	c-0.5,3.5-0.9,7-1.3,10.5c-0.6,3.9-1.5,8.2-2.7,12.8l-5.8,0.7c-0.3,0-1.2,0.1-1.7,0.8c-0.3,0.4-0.4,0.8-0.4,1.3
	c0.2,2.2,3.3,2.3,4.7,2.3c0.2,0,0.4,0,0.7,0c0.3,0,0.7,0,1,0c-1.2,3-2.6,5.5-4.4,7.6c-2.6,3-5.5,4.5-8.8,4.9c-0.4,0-0.7,0-1,0
	c-1.9,0-3.5-0.5-4.8-1.5c-1.5-1.1-2.4-2.8-2.6-5c-0.1-1.2,0-2.4,0.5-3.7c0.4-1.2,1-2.3,1.7-3.3c0.2-0.3,0.3-0.6,0.3-1
	c-0.1-1.2-1-2-2.2-2c-0.1,0-0.2,0-0.3,0c-2.7,0.2-3.4,3.6-3.6,4.7c-0.4,1.8-0.5,3.6-0.4,5.3c0.3,3.6,2,6.6,4.9,8.7
	c2.5,1.8,5.3,2.8,8.3,2.8c0.5,0,0.9,0,1.4-0.1c4.6-0.4,8.4-2.7,11.5-6.8c2.2-2.9,3.9-6.6,5-11l4.5-0.4c1,3,2.2,5.7,3.8,8l1.1,1.6
	c0.7,1,1.1,1.7,1.5,2.1c0.4,0.5,0.9,0.9,1.5,1.1c0.5,0.2,1,0.3,1.5,0.3c0.1,0,0.3,0,0.4,0c0.9-0.1,1.6-0.4,2.1-0.8
	c0.6-0.6,1-1.4,0.9-2.2C50.4,299.2,50.2,298.8,49.9,298.5 M34.2,284.7c0.2-0.9,0.4-2.1,0.6-3.6c0.4-2.2,0.7-4.1,1-5.7
	c0,0.2,0,0.3,0,0.5c0,1.7,0.1,3.3,0.2,4.7l0.5,4L34.2,284.7z"/>
<path fill="#1D1D1B" d="M275.5,275.4c-0.1,0-0.2,0-0.2,0c-0.4,0-0.7,0.2-1,0.5c-0.4,0.5-0.8,1-1.2,1.4c0,0,0,0-0.1,0.1
	c-0.2,0.3-0.4,0.3-0.5,0.3c0,0-0.1,0-0.1,0c-0.2,0-0.6,0-1-1.1c-0.2-0.5-0.4-1.5-0.6-3.5l-0.1-1.2c-0.1-1.5-0.2-3.1-0.2-4.7
	c0-1,0-1.9,0-2.8c0.7-0.1,1.6-0.3,2.6-0.5c2.4-0.5,3.6-1.4,3.4-2.8c-0.2-1.9-2.6-1.9-3.3-1.9c0,0,0,0-0.1,0c-0.8,0-1.6,0-2.5,0.1
	c0-0.6,0-1.5,0.1-2.7c0.1-2.2,0.2-3.9,0.4-4.9c0,0,0-0.1,0-0.1c0-0.2,0.1-0.6,0.4-1.2c0.2-0.4,0.3-0.8,0.2-1.2
	c-0.1-0.7-0.4-1.7-1.7-2.4c0,0,0,0-0.1,0c-0.7-0.4-1.4-0.6-2.1-0.6c-0.1,0-0.2,0-0.3,0c-0.6,0.1-1.3,0.3-1.9,0.6c0,0-0.1,0-0.1,0.1
	c-1.2,0.8-1.3,1.8-1.2,2.3l0.2,1.8c0.1,0.9,0.1,1.6,0.1,2.2l-0.3,3.3c-0.1,1.5-0.2,2.7-0.2,3.6c-0.2,0.1-0.4,0.1-0.6,0.2
	c-0.5,0.2-2.2,0.8-2,2.2c0.1,0.6,0.4,1.7,2.2,2.2c0,0,0.1,0,0.1,0c0.1,0,0.1,0,0.2,0c0,0.6,0,1.3-0.1,2.2c-0.1,1.7,0,3.5,0.2,5.2
	c0.3,2.7,0.9,5,1.9,6.7c1.4,2.3,3.4,3.5,5.9,3.5c0.2,0,0.5,0,0.7,0c1.1-0.1,2.2-0.5,3.3-1.3c1.7-1.2,1.9-2.5,1.9-3.4
	C277.6,276,276.4,275.4,275.5,275.4"/>
<path fill="#1D1D1B" d="M310.5,272.5c-0.1,0-0.1,0-0.3,0l-0.1,0c-0.4,0-0.8,0.2-1.1,0.5c-0.3-0.8-0.5-1.8-0.6-2.9
	c-0.2-2.1,0-4.7,0.6-7.5c0.2-0.9,0.5-2.1,0.9-3.4c0.1-0.2,0.1-0.4,0.1-0.6c-0.1-0.7-0.4-1.8-1.7-2.7c0,0-0.1,0-0.1-0.1
	c-0.8-0.5-1.7-0.8-2.5-0.8c-0.1,0-0.2,0-0.4,0c-0.9,0.1-1.7,0.7-2.3,1.8c0,0.1-0.1,0.2-0.1,0.2c0,0,0-0.1,0-0.1
	c0.1-0.7,0.2-1.4,0.3-2c0.1-0.8,0.2-1.5,0.1-2.1c-0.1-0.9-0.5-1.6-1.2-2.2c-0.6-0.4-1.2-0.6-1.8-0.6c-0.1,0-0.2,0-0.3,0
	c-0.7,0.1-2.4,0.5-2.6,3.2c-0.1,1.3-0.1,2.8,0,4.5c0,0.6,0.2,1.2,0.5,2c0.2,0.6,0.3,0.9,0.3,1.1c-0.1,0.7-0.5,4.1-1.2,9.3l-0.1,0.7
	c-0.1,1-0.2,2-0.3,2.9c-0.3-0.2-0.6-0.2-0.9-0.2c-0.1,0-0.1,0-0.2,0c-0.4,0-0.8,0.2-1,0.4c-0.2-0.7-0.4-1.6-0.5-2.7
	c-0.1-1.1-0.1-2.8-0.1-5c0-2.2,0.1-4.6,0.2-7.2c0-0.1,0-0.1,0-0.2c-0.1-1-0.6-1.9-1.3-2.5c-0.7-0.6-1.5-0.9-2.4-0.9
	c-0.1,0-0.2,0-0.4,0c-0.9,0.1-1.5,0.4-2.1,0.9c-0.6,0.6-1,1.3-0.9,2.2c0.5,5.3,0.5,9.8,0,13.1c-0.5,3.3-1.4,4.3-1.8,4.3
	c0,0-0.1,0-0.1,0c-0.4,0-0.8-0.4-1.1-1.3c-0.2-0.6-0.5-1.6-0.6-3.6c-0.1-1.1-0.1-2.7,0-4.6c0.1-1.9,0.2-4.1,0.3-6.5
	c0-0.1,0-0.1,0-0.2c-0.1-0.6-0.4-1.6-1.8-2.2c0,0,0,0-0.1,0c-0.7-0.3-1.3-0.4-1.9-0.4c-0.1,0-0.2,0-0.4,0c-2.8,0.3-2.8,4.4-2.8,6
	c0,1.3,0.1,3.7,0.5,7.4c0.2,2.4,0.8,4.5,1.6,6.2c1.6,3.1,3.8,3.7,5.4,3.7c0.2,0,0.4,0,0.6,0c1.6-0.1,2.9-0.8,4-1.9
	c0.5-0.5,1-1.2,1.4-2.1c0.1,0.1,0.2,0.2,0.2,0.3c1.3,1.6,2.8,2,3.8,2c0.1,0,0.3,0,0.4,0c0.7-0.1,1.3-0.3,1.9-0.7
	c0.1,0,0.1-0.1,0.1-0.1c0.1,0.4,0.3,0.8,0.5,1.2c0.4,0.9,1.2,1.4,2.1,1.4c0.1,0,0.2,0,0.2,0c1.5-0.1,2.4-1.2,2.2-2.7
	c0-0.1,0-0.1,0-0.2c-0.1-0.3-0.1-0.5-0.1-0.9l-0.1-1.1c-0.1-1.5-0.1-3.6,0.1-6.3c0.1-1.8,0.3-3.7,0.5-5.6c0,0.3,0,0.5,0,0.8
	c-0.1,1.6,0,3.2,0.1,4.8c0.2,2,0.7,3.8,1.6,5.5c1.5,3,3.4,3.6,4.8,3.6c0.1,0,0.3,0,0.4,0c0.8-0.1,1.6-0.5,2.4-1.4
	c0.8-0.8,1.2-1.7,1.1-2.6C312.4,273.1,311.5,272.5,310.5,272.5"/>
<path fill="#1D1D1B" d="M331.9,270.7c-0.1,0-0.1,0-0.2,0c-0.5,0-0.9,0.3-1.1,0.6c-0.1-0.2-0.1-0.4-0.2-0.7c-0.3-1.3-0.6-2.7-0.7-3.9
	c-0.2-1.9-0.2-4-0.1-6.1c0.1-2,0.3-3.9,0.6-5.4c0-0.1,0-0.3,0-0.4c-0.1-1-0.7-1.8-1.6-2.3c-0.6-0.4-1.3-0.5-2-0.5
	c-0.1,0-0.2,0-0.4,0c0,0-0.1,0-0.1,0c-0.5,0.1-1,0.3-1.4,0.6c-0.5-0.2-1.2-0.6-2.3-1.1c-0.2-0.1-0.4-0.2-0.6-0.3c0,0-0.1,0-0.1,0
	c-0.3-0.1-0.6-0.3-0.9-0.4c0,0-0.1,0-0.1,0c-0.5-0.2-1-0.3-1.5-0.3c-0.1,0-0.2,0-0.3,0c-2.2,0.2-4,2.2-5.9,6.4
	c-1.6,3.8-2.3,7.2-2,10.3c0.2,2.6,1,5,2.2,7c1.6,2.7,3.7,4,6.1,4c0.2,0,0.4,0,0.6,0c2-0.2,3.7-1.3,4.9-3.3c0.3-0.4,0.5-1,0.8-1.6
	c1.5,2.4,3.2,2.9,4.5,2.9c0.1,0,0.3,0,0.4,0c0.7-0.1,1.4-0.3,2.1-0.8c0.8-0.6,1.2-1.4,1.1-2.3C333.7,271.2,332.7,270.7,331.9,270.7
	 M323,267.4c-0.5,4-1.5,6.4-2.8,6.5c0,0-0.1,0-0.1,0c-0.2,0-0.8,0-1.5-1.4c-0.5-0.9-0.8-2-0.9-3.3c-0.2-2.5,0-5.3,0.8-8.2
	c0.6-2.2,1.6-4.9,3.4-5c0,0,0,0,0.1,0c0.1,0,0.3,0,0.7,0.4c0.4,0.4,0.6,0.9,0.6,1.3C323.5,260.7,323.4,264,323,267.4"/>
<path fill="#1D1D1B" d="M171.5,271.1c-1.5-4-4-4.9-5.7-4.9c-0.1,0-0.6,0-1.7-0.6c-1.1-0.5-2.1-0.8-3-0.8c-0.1,0-0.3,0-0.4,0
	c-2.3,0.2-4,2.2-5.3,6.2c-1.2,3.5-1.6,6.9-1.3,10c0.3,3.1,1.2,5.7,2.7,7.9c1.8,2.5,4.1,3.8,6.9,3.8c0.3,0,0.6,0,0.9,0
	c3.4-0.3,5.8-2.3,7.3-5.9c1-2.6,1.4-5.6,1.1-8.9C172.7,275.1,172.2,272.9,171.5,271.1 M167.1,285.4c-1.1,2.8-2.4,2.9-2.8,3
	c-0.1,0-0.1,0-0.2,0c-0.3,0-1.3,0-2.3-1.7c-0.7-1.1-1.1-2.4-1.2-4c-0.2-2.6-0.1-5.4,0.5-8.1c0.6-3.1,1.5-4.2,2-4.3
	c0,0,0.1,0,0.1,0.1c0.2,0.1,0.5,0.2,0.7,0.2c0,0,0.1,0,0.1,0c0,0,0.1,0,0.1,0c0.8,0,1.6,1.3,2,2.1c0.9,1.9,1.5,4.4,1.7,7.2
	C168.1,281.7,167.8,283.6,167.1,285.4"/>
<path fill="#1D1D1B" d="M152.9,286.6c-0.1,0-0.2,0-0.2,0c-0.4,0-0.7,0.2-1,0.5c-0.4,0.5-0.8,1-1.2,1.4c0,0,0,0.1-0.1,0.1
	c-0.2,0.3-0.4,0.3-0.5,0.3c0,0-0.1,0-0.1,0c-0.2,0-0.6,0-1-1.1c-0.2-0.5-0.5-1.5-0.6-3.5l-0.1-1.2c-0.1-1.5-0.2-3.1-0.2-4.7
	c0-1,0-1.9,0-2.8c0.7-0.1,1.6-0.3,2.6-0.5c2.4-0.5,3.5-1.4,3.4-2.8c-0.2-1.9-2.6-1.9-3.3-1.9c0,0,0,0-0.1,0c-0.8,0-1.6,0-2.5,0.1
	c0-0.7,0-1.6,0.1-2.7c0.1-2.2,0.2-3.9,0.4-4.9c0,0,0-0.1,0-0.1c0-0.2,0.1-0.6,0.4-1.2c0.2-0.4,0.3-0.8,0.2-1.2
	c-0.1-0.7-0.4-1.7-1.7-2.4c0,0,0,0-0.1,0c-0.7-0.4-1.4-0.6-2.1-0.6c-0.1,0-0.2,0-0.3,0c-0.6,0.1-1.3,0.3-1.9,0.6c0,0-0.1,0-0.1,0.1
	c-1.2,0.8-1.3,1.8-1.2,2.4l0.2,1.8c0.1,0.9,0.1,1.6,0.1,2.2l-0.3,3.3c-0.1,1.5-0.2,2.7-0.2,3.6c-0.2,0.1-0.4,0.1-0.6,0.2
	c-0.5,0.2-2.2,0.8-2,2.2c0.1,0.6,0.4,1.7,2.2,2.2c0,0,0.1,0,0.1,0c0.1,0,0.1,0,0.2,0c0,0.6,0,1.3-0.1,2.2c-0.1,1.7,0,3.5,0.2,5.2
	c0.3,2.7,0.9,5,1.9,6.7c1.4,2.3,3.4,3.5,5.9,3.5c0.2,0,0.5,0,0.7,0c1.1-0.1,2.2-0.5,3.3-1.3c1.7-1.2,1.9-2.5,1.9-3.4
	C155,287.2,153.9,286.6,152.9,286.6"/>
<path fill="#1D1D1B" d="M262.4,277c-0.1,0-0.1,0-0.2,0c-0.4,0-0.8,0.2-1.1,0.6c-0.1-0.2-0.1-0.4-0.2-0.7c-0.3-1.3-0.6-2.7-0.7-3.9
	c-0.2-1.9-0.2-4-0.1-6.1c0.1-2,0.3-3.9,0.6-5.4c0-0.1,0-0.3,0-0.4c-0.1-1-0.7-1.8-1.6-2.3c-0.6-0.4-1.3-0.5-2-0.5
	c-0.1,0-0.2,0-0.4,0c0,0-0.1,0-0.1,0c-0.5,0.1-1,0.3-1.4,0.6c-0.5-0.2-1.2-0.6-2.3-1.1c-0.2-0.1-0.4-0.2-0.6-0.3c0,0-0.1,0-0.1,0
	c-0.3-0.1-0.6-0.3-0.9-0.4c0,0-0.1,0-0.1-0.1c-0.5-0.2-1-0.3-1.5-0.3c-0.1,0-0.2,0-0.3,0c-2.2,0.2-4,2.2-5.9,6.4
	c-1.6,3.8-2.3,7.2-2,10.3c0.2,2.6,1,5,2.2,7c1.6,2.7,3.7,4,6.1,4c0.2,0,0.4,0,0.6,0c2-0.2,3.7-1.3,4.9-3.3c0.3-0.4,0.5-1,0.8-1.6
	c1.5,2.4,3.2,2.9,4.5,2.9c0.1,0,0.3,0,0.4,0c0.7-0.1,1.4-0.3,2.1-0.8c0.8-0.6,1.2-1.4,1.1-2.3C264.2,277.6,263.2,277,262.4,277
	 M253.4,273.7c-0.5,4-1.5,6.4-2.8,6.5c0,0-0.1,0-0.1,0c-0.2,0-0.8,0-1.5-1.4c-0.5-0.9-0.8-2-0.9-3.3c-0.2-2.5,0-5.3,0.8-8.2
	c0.6-2.2,1.6-4.9,3.4-5c0,0,0,0,0.1,0c0.1,0,0.3,0,0.7,0.4c0.4,0.4,0.6,0.9,0.6,1.3C254,267.1,253.9,270.4,253.4,273.7"/>
<path fill="#1D1D1B" d="M238,263.6c-0.7-4.9-1.2-8.3-1.4-10c-0.3-3.1-0.2-5.5,0.2-7.2c0.5-2,1.1-2.8,1.5-3.1
	c0.3-0.3,0.5-0.8,0.5-1.2c-0.1-1.1-0.9-1.8-2.1-1.8c-0.1,0-0.2,0-0.3,0c-2.8,0.3-3.7,4.3-4.2,7.8c-0.5,3.6-0.5,7.1-0.2,10.5
	c0,0.4,0.4,3,1.3,10.1c0.2,1.7,0.5,3.7,0.7,6c0.2,2.2,0.3,3.7,0.2,4.5c-0.1,1.2-0.4,1.4-0.4,1.4h0c0,0-1.4-0.1-3.8-6.3
	c-1.5-3.9-2.8-8.7-3.9-14.2c-1.2-5.5-1.9-9.9-2.2-13.1c-0.1-1.3-1-2.3-2.5-3c-1.1-0.5-2.2-0.7-3.1-0.7c-0.2,0-0.3,0-0.5,0
	c-0.7,0.1-1.4,0.3-1.9,0.7c-0.7,0.6-1.1,1.4-1,2.3c0.5,5.9,0.7,11.3,0.4,16c-0.4,6.3-1.6,11.4-3.4,15.1c-0.8,1.7-1.6,3-2.3,3.9
	c-0.6,0.9-1.3,1.5-2.2,2c-0.8,0.5-1.8,0.8-3.1,0.9c-0.4,0-0.9,0.1-1.3,0.1c-2.1,0-3.9-0.5-5.5-1.5c-2-1.2-3.1-3-3.3-5.4
	c-0.1-1.6,0.1-2.9,0.9-4c0.7-1.1,1.6-2.1,2.5-3c0.3-0.3,0.5-0.8,0.5-1.2c-0.1-0.7-0.5-1.3-1.3-1.6c-0.4-0.2-0.7-0.2-1.1-0.2
	c-0.1,0-0.2,0-0.2,0c-1.8,0.2-3.3,1.5-4.3,4.1c-1,2.3-1.4,4.5-1.2,6.6c0.3,3.7,2,6.8,4.8,9c2.4,2,5.2,3,8.4,3c0.5,0,0.9,0,1.4-0.1
	c2.4-0.2,4.4-0.9,5.9-2.1c1.4-1.1,2.8-2.8,4.3-5.1c2.2-3.4,3.7-8.2,4.4-14c0.2-1.5,0.4-3.3,0.5-5.3c0.4,1.4,0.7,2.5,0.9,3.2
	c1.7,5.4,3.4,9.6,5.2,12.5c2.4,3.8,5,5.7,7.9,5.7c0.2,0,0.4,0,0.6,0c1.5-0.1,3.4-1,4.3-4.6c0.5-2.4,0.6-5.7,0.2-10.2
	C238.7,268.6,238.4,266.6,238,263.6"/>
<path fill="#1D1D1B" d="M349.8,271.3c-0.1-1.6-1.3-2.2-2.2-2.2c-0.1,0-0.2,0-0.2,0c-1,0.1-1.5,1-2,1.8c-0.2,0.4-0.5,0.5-0.7,0.5
	c-0.1,0-0.1,0-0.2,0c-0.5,0-1.1-0.1-1.8-1.1c-0.6-0.8-1-1.6-1.2-2.4c2.7-3.5,4.5-7.5,5.5-11.9c0.4-1.9,0.6-3.9,0.6-6.1
	c0-2-0.2-4.5-0.4-7.6c-0.2-2.6-0.6-4.5-1.2-6c-0.5-1.3-1.1-2.3-1.8-3c-0.7-0.7-1.6-1-2.7-1c-0.2,0-0.3,0-0.5,0
	c-2.6,0.2-4.6,2.4-6,6.5c-0.9,2.8-1.5,6.4-1.7,10.9c-0.2,3.3-0.2,6.3,0,8.7c0.1,1.4,0.4,3,0.8,4.5c0.2,0.8,0.4,1.7,0.6,2.5
	c-0.2-0.1-0.4-0.1-0.7-0.1c0,0-0.1,0-0.1,0c-0.1,0-0.2,0-0.4,0.1c-0.9,0.3-1.5,1.2-1.4,2.2c0.1,1.2,0.9,2.1,2.1,2.5
	c0.7,0.2,1.4,0.4,1.9,0.4c0.1,0,0.2,0,0.3,0c0,0,0.1,0,0.1,0l0.1,0c0.8,1.4,1.7,2.6,2.6,3.4c1.5,1.3,3.1,2,4.9,2c0.2,0,0.4,0,0.6,0
	c1.1-0.1,2.1-0.5,3.2-1.3C349.6,273.5,349.9,272.2,349.8,271.3 M340.3,262.2c-0.2-1.1-0.3-2.3-0.4-3.5c-0.4-4.2-0.3-8.8,0.2-13.8
	c0.4-4.1,1-5.7,1.3-6.2c0.2,0.3,0.5,1,0.7,2.3c0.3,1.2,0.5,2.6,0.6,4.3c0.4,4,0.2,7.7-0.3,11.1c-0.4,2.4-1.1,4.5-2,6.3
	C340.3,262.4,340.3,262.3,340.3,262.2"/>
<path fill="#FFFFFF" d="M324.6,257.5c-0.1-0.7-0.4-1.4-1-2.1c-0.6-0.7-1.2-1-2-0.9c-2.1,0.2-3.6,2.2-4.6,6.1c-0.8,3.1-1.1,6-0.8,8.7
	c0.1,1.5,0.5,2.8,1,3.9c0.8,1.6,1.8,2.3,3.1,2.2c2.1-0.2,3.4-2.8,4.1-7.7C324.9,264.1,324.9,260.7,324.6,257.5 M332.4,272.9
	c0,0.4-0.1,0.7-0.5,1c-0.4,0.3-0.9,0.5-1.4,0.5c-1.4,0.1-2.7-0.7-3.7-2.5c-0.4-0.7-0.8-1.6-1.2-2.6c-0.7,2.1-1.4,3.6-2,4.5
	c-1,1.6-2.3,2.5-3.9,2.7c-2.1,0.2-3.9-0.9-5.4-3.3c-1.1-1.9-1.8-4-2-6.4c-0.3-2.9,0.4-6.1,1.9-9.6c1.6-3.6,3.1-5.4,4.7-5.6
	c0.3,0,0.7,0,1.1,0.2c0.4,0.2,0.7,0.3,1,0.5c0.3,0.1,0.5,0.3,0.7,0.4c1.4,0.7,2.5,1.2,3.1,1.5c0.5-0.5,1-0.8,1.5-0.9
	c0.5,0,1,0.1,1.5,0.3c0.5,0.3,0.8,0.7,0.8,1.2c-0.3,1.6-0.5,3.5-0.6,5.6c-0.1,2.2-0.1,4.3,0.1,6.3c0.1,1.4,0.4,2.8,0.7,4.2
	c0.3,1.4,0.9,2.1,1.7,2c0.3,0,0.6-0.2,0.8-0.4c0.2-0.3,0.3-0.4,0.4-0.4C332.2,272.1,332.4,272.3,332.4,272.9 M311.1,274.6
	c0,0.4-0.2,0.9-0.7,1.5c-0.6,0.6-1.1,0.9-1.5,0.9c-1.5,0.1-2.8-0.8-3.8-2.8c-0.8-1.5-1.3-3.2-1.4-5c-0.1-1.5-0.2-3-0.1-4.6
	c0.1-1.6,0.2-3.1,0.4-4.7c-0.1,0-0.6,0.2-1.7,0.5c-0.4,0.1-0.8,0.2-1.2,0.2c-0.4,3.1-0.7,5.9-0.9,8.6c-0.2,2.7-0.2,4.9-0.1,6.5
	c0,0.4,0.1,0.8,0.1,1.1c0,0.4,0.1,0.7,0.2,1c0.1,0.7-0.3,1.1-0.9,1.1c-0.4,0-0.8-0.2-1-0.6c-0.2-0.4-0.4-0.9-0.4-1.4
	c-0.2-1.7-0.1-3.6,0.2-5.9c0.8-6.6,1.3-10,1.3-10.3c0-0.3-0.2-0.8-0.4-1.5c-0.2-0.7-0.4-1.2-0.4-1.7c-0.1-1.6-0.2-3,0-4.3
	c0.1-1.2,0.5-1.8,1.3-1.9c0.4,0,0.8,0.1,1.2,0.3c0.3,0.3,0.5,0.6,0.6,1.1c0,0.5,0,1.1-0.1,1.8c-0.1,0.7-0.2,1.5-0.3,2.2
	c0,0.5,0.2,0.9,0.4,1.2c0.2,0.4,0.5,0.6,1,0.5c0.6-0.1,1.1-0.4,1.5-1.2c0.4-0.7,0.8-1,1.2-1.1c0.6-0.1,1.3,0.1,2,0.5
	c0.7,0.5,1,1,1.1,1.7c-0.4,1.4-0.8,2.6-1,3.6c-0.6,3-0.8,5.6-0.6,7.9c0.1,1.3,0.4,2.5,0.8,3.5c0.4,1,0.8,1.5,1.3,1.5
	c0.2,0,0.5-0.3,0.7-0.7c0.2-0.4,0.4-0.6,0.6-0.6c0,0,0.1,0,0.1,0C310.9,273.9,311.1,274.1,311.1,274.6 M296.2,275.9
	c0,0.4-0.1,0.7-0.5,1c-0.4,0.3-0.8,0.4-1.2,0.5c-1.1,0.1-2.1-0.4-3-1.4c-0.7-0.8-1.2-1.9-1.6-3.1c-0.6,2.4-1.3,4.1-2.1,4.9
	c-0.8,0.8-1.9,1.3-3.1,1.4c-2,0.2-3.5-0.8-4.6-2.9c-0.8-1.6-1.3-3.5-1.5-5.7c-0.3-3.6-0.5-6-0.5-7.2c0-3,0.5-4.5,1.5-4.6
	c0.5,0,1,0,1.6,0.3c0.6,0.3,0.9,0.6,1,1.1c-0.1,2.4-0.3,4.6-0.3,6.6c-0.1,2-0.1,3.6,0,4.8c0.2,1.7,0.4,3.1,0.7,4
	c0.6,1.6,1.5,2.4,2.7,2.3c1.5-0.1,2.5-2,3.1-5.5c0.5-3.5,0.5-8,0-13.5c0-0.4,0.1-0.7,0.4-1c0.3-0.3,0.7-0.4,1.2-0.5
	c0.6-0.1,1.2,0.1,1.7,0.5c0.5,0.4,0.8,0.9,0.8,1.6c-0.1,2.5-0.1,4.9-0.2,7.2c0,2.3,0,4,0.1,5.2c0.1,1.4,0.3,2.5,0.7,3.3
	c0.3,0.9,0.7,1.3,1.1,1.2c0.2,0,0.4-0.2,0.7-0.5c0.3-0.3,0.5-0.5,0.6-0.5C296,275.1,296.2,275.3,296.2,275.9 M275.1,261.2
	c0.1,0.6-0.7,1-2.3,1.3c-1.6,0.4-2.8,0.6-3.7,0.7c-0.1,1.2-0.2,2.6-0.1,4c0,1.5,0.1,3.1,0.2,4.7c0,0.5,0.1,0.9,0.1,1.2
	c0.2,1.8,0.4,3.1,0.7,3.9c0.5,1.5,1.4,2.1,2.6,2c0.6-0.1,1-0.3,1.5-0.8c0.4-0.4,0.8-0.9,1.3-1.5c0.5,0,0.8,0.3,0.9,0.9
	c0.1,0.8-0.3,1.5-1.2,2.1c-0.9,0.6-1.8,1-2.6,1c-2.3,0.2-4-0.7-5.3-2.8c-0.9-1.5-1.5-3.5-1.7-6.1c-0.2-1.7-0.2-3.3-0.1-5
	c0-1.7,0.1-2.9,0.1-3.5c-0.7,0-1.1-0.1-1.4-0.1c-0.7-0.2-1.1-0.5-1.1-0.9c0-0.2,0.3-0.5,1.1-0.8c0.7-0.2,1.2-0.4,1.6-0.4
	c-0.1-0.8,0-2.4,0.2-4.6c0.1-1.1,0.2-2.2,0.3-3.3c0-0.7,0-1.5-0.1-2.4c-0.1-0.8-0.1-1.5-0.2-1.8c0-0.4,0.2-0.7,0.6-1
	c0.4-0.2,0.9-0.4,1.3-0.4c0.5,0,1,0.1,1.6,0.4c0.6,0.4,0.9,0.8,1,1.3c0,0.1,0,0.3-0.1,0.5c-0.3,0.6-0.4,1.2-0.5,1.6
	c-0.2,1.1-0.3,2.8-0.4,5.1c-0.1,2.3-0.1,3.7-0.1,4.3c1.4-0.1,2.7-0.2,3.9-0.2C274.4,260.7,275,260.9,275.1,261.2 M255.1,263.9
	c-0.1-0.7-0.4-1.4-1-2.1c-0.6-0.7-1.2-1-2-0.9c-2.1,0.2-3.6,2.2-4.6,6.1c-0.8,3.1-1.1,6-0.8,8.7c0.1,1.5,0.5,2.8,1,3.9
	c0.8,1.6,1.8,2.3,3.1,2.2c2.1-0.2,3.4-2.8,4.1-7.7C255.3,270.4,255.4,267.1,255.1,263.9 M262.9,279.3c0,0.4-0.1,0.7-0.5,1
	c-0.4,0.3-0.9,0.5-1.4,0.5c-1.4,0.1-2.7-0.7-3.7-2.5c-0.4-0.7-0.8-1.6-1.2-2.6c-0.7,2.1-1.4,3.6-2,4.5c-1,1.6-2.3,2.5-3.9,2.7
	c-2.1,0.2-3.9-0.9-5.4-3.3c-1.1-1.9-1.8-4-2-6.4c-0.3-2.9,0.4-6.1,1.9-9.6c1.6-3.6,3.1-5.4,4.7-5.6c0.3,0,0.7,0,1.1,0.2
	c0.4,0.2,0.7,0.3,1,0.5c0.3,0.1,0.5,0.3,0.7,0.4c1.4,0.7,2.5,1.2,3.1,1.5c0.5-0.5,1-0.8,1.5-0.9c0.5,0,1,0.1,1.5,0.3
	c0.5,0.3,0.8,0.7,0.8,1.2c-0.3,1.6-0.5,3.5-0.6,5.6c-0.1,2.2-0.1,4.3,0.1,6.3c0.1,1.4,0.4,2.8,0.7,4.2c0.3,1.4,0.9,2.1,1.7,2
	c0.3,0,0.6-0.2,0.8-0.4c0.2-0.3,0.3-0.4,0.5-0.4C262.7,278.4,262.9,278.7,262.9,279.3 M237.4,242.1c-0.8,0.7-1.4,2-1.9,3.8
	c-0.5,1.9-0.6,4.5-0.3,7.7c0.2,1.7,0.6,5.1,1.4,10.1c0.4,2.9,0.7,4.9,0.8,6.1c0.4,4.3,0.3,7.6-0.1,9.8c-0.5,2.2-1.6,3.4-3,3.5
	c-2.5,0.2-4.9-1.4-7.2-5c-1.8-2.8-3.5-6.9-5.1-12.2c-0.6-1.9-1.7-6.1-3.4-12.6c-0.1,6.5-0.3,11.5-0.8,14.9
	c-0.7,5.7-2.1,10.1-4.2,13.4c-1.4,2.2-2.7,3.8-3.9,4.7c-1.2,1-2.9,1.6-5.1,1.8c-3.3,0.3-6.3-0.6-8.8-2.6c-2.6-2-4-4.7-4.3-8
	c-0.2-1.8,0.2-3.8,1.1-5.9c0.8-2,1.9-3.1,3.1-3.2c0.2,0,0.4,0,0.6,0.1c0.3,0.1,0.4,0.3,0.4,0.5c-1.1,1-2,2.1-2.8,3.3
	c-0.9,1.4-1.3,3.1-1.1,4.9c0.3,2.8,1.6,5,4,6.5c2.2,1.3,4.7,1.9,7.7,1.6c1.4-0.1,2.7-0.5,3.7-1.1c1-0.6,1.9-1.4,2.6-2.4
	c0.7-1,1.6-2.4,2.4-4.1c1.9-3.9,3.1-9.1,3.5-15.6c0.3-4.8,0.2-10.2-0.4-16.2c0-0.4,0.1-0.7,0.4-1c0.3-0.2,0.7-0.4,1.1-0.4
	c0.8-0.1,1.8,0.1,2.9,0.6c1.1,0.5,1.6,1.1,1.7,1.8c0.3,3.2,1,7.6,2.2,13.3c1.2,5.6,2.5,10.4,4,14.4c1.9,5,3.6,7.4,5.3,7.2
	c1-0.1,1.5-1,1.7-2.7c0.1-0.9,0-2.5-0.2-4.8c-0.2-2.2-0.4-4.2-0.7-6c-0.8-6.3-1.3-9.6-1.3-10.1c-0.3-3.3-0.2-6.7,0.2-10.1
	c0.5-4.2,1.5-6.4,2.9-6.5C237.1,241.5,237.3,241.7,237.4,242.1 M169.3,279.7c-0.3-3-0.9-5.5-1.9-7.6c-1-2.1-2.2-3-3.5-2.9
	c-0.4-0.2-0.7-0.3-1-0.3c-1.5,0.1-2.6,1.9-3.3,5.4c-0.6,2.9-0.8,5.7-0.5,8.5c0.2,1.7,0.6,3.2,1.4,4.6c1,1.7,2.3,2.5,3.8,2.4
	c1.7-0.2,3.1-1.4,4-3.9C169.2,283.9,169.5,281.8,169.3,279.7 M171.5,278c0.3,3.1-0.1,5.9-1,8.3c-1.3,3.1-3.3,4.8-6.1,5
	c-2.6,0.2-4.8-0.8-6.4-3.1c-1.4-1.9-2.2-4.3-2.5-7.1c-0.3-3,0.2-6.1,1.3-9.5c1.1-3.3,2.5-5,4.1-5.2c0.7-0.1,1.6,0.1,2.7,0.6
	c1,0.5,1.8,0.7,2.3,0.7c1.9,0,3.4,1.4,4.4,4C170.8,273.3,171.2,275.4,171.5,278 M152.5,272.4c0.1,0.6-0.7,1-2.3,1.3
	c-1.6,0.4-2.8,0.6-3.7,0.7c-0.1,1.2-0.2,2.6-0.1,4c0,1.5,0.1,3.1,0.2,4.7c0,0.5,0.1,0.9,0.1,1.2c0.2,1.8,0.4,3.1,0.7,3.9
	c0.5,1.5,1.4,2.1,2.6,2c0.6-0.1,1-0.3,1.5-0.8c0.4-0.4,0.8-0.9,1.3-1.5c0.5,0,0.8,0.3,0.9,0.9c0.1,0.8-0.3,1.5-1.2,2.1
	c-0.9,0.6-1.8,1-2.6,1c-2.3,0.2-4-0.7-5.3-2.8c-0.9-1.5-1.5-3.5-1.7-6.1c-0.2-1.7-0.2-3.3-0.1-5.1c0-1.7,0.1-2.9,0.1-3.5
	c-0.7,0-1.1-0.1-1.4-0.1c-0.7-0.2-1.1-0.5-1.1-0.9c0-0.2,0.3-0.5,1.1-0.8c0.7-0.2,1.2-0.4,1.6-0.4c-0.1-0.8,0-2.4,0.2-4.6
	c0.1-1.1,0.2-2.2,0.3-3.3c0-0.7,0-1.5-0.1-2.4c-0.1-0.8-0.1-1.5-0.2-1.8c0-0.4,0.2-0.7,0.6-1c0.4-0.2,0.9-0.4,1.3-0.4
	c0.5,0,1,0.1,1.6,0.4c0.6,0.4,0.9,0.8,1,1.3c0,0.1,0,0.3-0.1,0.5c-0.3,0.6-0.4,1.2-0.5,1.6c-0.2,1.1-0.3,2.8-0.4,5.1
	c-0.1,2.3-0.1,3.7-0.1,4.3c1.4-0.1,2.7-0.2,3.9-0.2C151.8,271.9,152.5,272.1,152.5,272.4 M140.8,291.4c0,0.2,0,0.3-0.2,0.4
	c-0.2,0.1-0.6,0.2-1,0.3c-1.8,0.2-3.2-0.7-4.2-2.5c-0.7-1.3-1.2-3.4-1.4-6.2c-0.1-1.2-0.2-2.3-0.2-3.3c-0.1-1.1-0.1-2.1-0.2-3.1
	c-0.1-0.9-0.2-1.6-0.4-2.2c-0.2-0.5-0.5-0.8-0.8-0.7c-1.1,0.1-1.8,1.8-2,5.1c-0.2,3.3-0.4,6.6-0.6,9.8c-0.3,3.5-1.2,5.3-2.4,5.4
	c-0.9,0.1-1.6-0.4-2.1-1.5c-0.5-1-0.8-2.1-0.9-3.3c-0.2-1.8-0.2-5.3-0.1-10.5c0-2.6,0-4.7-0.1-6.2c0-0.5,0-1.1,0-1.6
	c0.1-0.6,0.5-0.9,1.2-1c0.6-0.1,1.2,0,1.7,0.3c0.6,0.2,0.9,0.6,0.9,1.1c-0.4,2.9-0.7,5.9-0.9,9.2c-0.2,3.4-0.2,5.9-0.1,7.6
	c0.1,0.8,0.2,1.3,0.4,1.2c0.4-3,0.8-6,1.2-9c0.9-6.1,2.4-9.2,4.6-9.4c1.3-0.1,2.3,0.8,2.9,2.7c0.5,1.4,0.9,3.6,1.2,6.6
	c0.1,0.9,0.2,1.8,0.2,2.7c0,0.9,0.1,1.8,0.2,2.7c0.1,1.6,0.3,2.8,0.6,3.5c0.2,0.8,0.5,1.2,1,1.1C140.3,290.8,140.8,291,140.8,291.4
	 M117.7,277.3c-0.1-1.1-0.4-2-0.8-2.7c-0.6-1-1.4-1.4-2.4-1.3c-1.9,0.2-3.3,2.3-4.2,6.4c-0.4,1.7-0.6,3.3-0.6,4.8
	c0.4,0.1,0.8,0.5,1.2,1.1c0.4,0.6,1.1,0.9,2.2,0.8c1.7-0.2,3-1.3,3.9-3.5C117.6,281.1,117.9,279.2,117.7,277.3 M121.4,289
	c0.1,1.6-0.4,3.1-1.6,4.5c-1.3,1.4-2.7,2.1-4.3,2.3c-2.9,0.3-5.1-0.8-6.9-3.2c-1.4-2-2.3-4.5-2.6-7.6c-0.2-2.4,0.2-5.2,1.1-8.2
	c1.2-3.7,2.8-5.6,4.8-5.8c0.7-0.1,1.2,0,1.4,0.3c1.9,0.4,3.4,1.1,4.5,2.1c1.1,1,1.7,2.3,1.9,3.8c0.2,2.3-0.3,4.5-1.5,6.6
	c-1.4,2.4-3.2,3.6-5.4,3.8c-0.8,0.1-1.8,0-2.9-0.2c0.2,1.9,0.6,3.5,1.3,4.8c0.9,1.7,2.2,2.5,3.9,2.3c2.2-0.2,3.7-1.4,4.4-3.5
	c0.4-1,0.7-2.1,1-3.2C121,287.9,121.3,288.2,121.4,289 M104.7,294.6c0.1,0.6-0.3,0.9-1.1,0.9c-1.9,0.2-3.3-0.8-4.2-2.8
	c-0.7-1.5-1.2-3.8-1.5-6.7c-0.1-1.1-0.2-2.2-0.2-3.2c0-0.9-0.1-1.9-0.1-2.8c-0.1-1.6-0.4-2.3-0.8-2.3c-0.9,0.1-1.6,3.2-1.9,9.3
	c-0.3,6.1-1,9.2-2.1,9.3c-1,0.1-1.8-0.5-2.2-1.7c-0.5-1.2-0.8-2.8-1-5c-0.1-1.2-0.2-2.4-0.3-3.6c-0.1-1.2-0.1-2.4-0.2-3.6
	c-0.3-2.8-0.8-4.1-1.6-4c-1.1,0.1-1.8,3.4-2.2,10c-0.4,6.6-1.4,10-3.2,10.1c-1,0.1-1.6-0.4-2-1.6c-0.4-1.1-0.7-2.4-0.9-4
	c-0.2-1.7-0.2-4.2-0.1-7.6c0.1-3.4,0-5.9-0.1-7.4c0-0.5-0.1-0.9-0.1-1.2c-0.1-0.3-0.1-0.5-0.1-0.7c0-0.2,0.1-0.5,0.4-0.7
	c0.3-0.2,0.7-0.3,1.2-0.3c0.6-0.1,1.2,0.1,1.9,0.3c0.6,0.3,1,0.6,1,1.1c-0.4,1.5-0.7,4-0.8,7.5c-0.2,3.6-0.2,6.4,0,8.4
	c0.1,1.1,0.3,1.7,0.5,1.7c0,0,0.5-3,1.3-8.9c0.8-5.9,2.2-8.9,4.1-9.1c1.4-0.1,2.4,0.7,3.1,2.4c0.5,1.1,0.8,2.6,0.9,4.3l0.7,8
	c0.4-3.8,0.8-6.8,1.2-9.2c0.8-4.5,2-6.9,3.6-7c1.2-0.1,2.1,0.7,2.7,2.4c0.4,1.2,0.8,3.2,1,6c0.1,0.9,0.2,1.8,0.3,2.8
	c0,0.9,0.1,1.9,0.2,2.8c0.2,1.9,0.4,3.3,0.7,4.3c0.3,0.9,0.8,1.4,1.5,1.3C104.4,294.2,104.6,294.3,104.7,294.6 M76.6,295.7
	c0.1,0.6-0.2,1.1-0.8,1.5c-0.6,0.5-1.2,0.7-1.8,0.8c-1.8,0.2-3.3-0.7-4.4-2.5c-0.8-1.4-1.3-3.1-1.5-5.2c-0.1-1.5-0.2-3.7-0.1-6.6
	c0.1-2.9,0.1-4.8,0-5.7c0-0.4,0.1-0.7,0.4-0.9c0.3-0.1,0.7-0.2,1.3-0.2c0.5,0,1,0.1,1.6,0.5c0.6,0.4,0.9,0.8,1,1.3
	c-0.5,1.7-0.7,4.1-0.8,7.1c-0.1,3,0,5.5,0.1,7.4c0.1,1.4,0.4,2.3,0.7,2.8c0.3,0.5,0.8,0.7,1.5,0.7c0.3,0,0.6-0.3,1-0.8
	c0.3-0.5,0.6-0.8,0.8-0.8c0.1,0,0.3,0,0.4,0.1C76.5,295.2,76.6,295.5,76.6,295.7 M73,271.5c0.1,0.6-0.2,1.1-0.8,1.7
	c-0.6,0.6-1.2,1-1.8,1c-0.6,0.1-1.3-0.1-1.9-0.4c-0.6-0.3-1-0.8-1-1.4c-0.1-0.7,0.2-1.3,0.7-1.8c0.5-0.5,1.1-0.8,1.9-0.8
	c0.6-0.1,1.2,0.1,1.9,0.4C72.6,270.6,73,271,73,271.5 M61.3,270.9c-0.2-1.8-0.4-3.3-0.6-4.5c-0.6-2.5-1.3-3.7-2.2-3.6
	c-1.3,0.1-2.2,2.7-2.7,7.8c-0.5,5.1-0.6,9.8-0.2,14c0.1,1.3,0.3,2.5,0.5,3.6c0.2,1.2,0.4,2.5,0.7,3.8c2-2.3,3.4-5.6,4.2-9.8
	C61.5,278.8,61.6,275,61.3,270.9 M62.9,268.4c0.3,3,0.4,5.5,0.4,7.5c0,2-0.2,3.9-0.6,5.7c-1,4.4-2.8,8.4-5.6,11.8
	c0.1,1.3,0.6,2.6,1.5,3.7c0.9,1.2,2,1.7,3.2,1.6c0.8-0.1,1.4-0.5,1.8-1.2c0.4-0.7,0.7-1.1,0.9-1.1c0.5,0,0.8,0.3,0.9,0.9
	c0.1,0.7-0.3,1.4-1.1,2c-0.8,0.6-1.7,0.9-2.5,1c-1.6,0.1-3.1-0.4-4.4-1.6c-1-0.9-1.9-2.2-2.9-3.9l-1.1,0.2c-0.4,0-1-0.1-1.6-0.3
	c-0.7-0.2-1.1-0.6-1.1-1.2c0-0.4,0.1-0.6,0.4-0.7c0.1,0,0.2,0,0.4,0.1c0.2,0.1,0.4,0.2,0.6,0.3c0.5,0.2,0.9,0.3,1.3,0.2
	c0.2,0,0.3,0,0.5-0.1c-0.5-1.6-0.9-3.2-1.3-4.7c-0.4-1.5-0.6-2.9-0.8-4.3c-0.2-2.4-0.2-5.2,0-8.5c0.2-4.4,0.8-7.9,1.7-10.5
	c1.1-3.5,2.7-5.3,4.7-5.5c0.9-0.1,1.6,0.1,2.1,0.6c0.5,0.5,1,1.3,1.5,2.5C62.3,264.1,62.7,266,62.9,268.4 M36.7,265
	c-0.2,0-0.6,1.9-1.3,5.6c-0.4,1.8-1,5.2-1.9,10.2c-0.6,3.7-1,5.5-1,5.5l5.8-0.6l-0.7-5.4c-0.1-1.3-0.2-2.8-0.2-4.5
	c-0.1-4-0.2-6.5-0.3-7.6c0-0.5-0.1-0.9-0.1-1.1c0-0.3-0.1-0.7-0.1-1C36.8,265.6,36.7,265.2,36.7,265 M49,299.7c0,0.4-0.1,0.7-0.4,1
	c-0.3,0.3-0.7,0.4-1.3,0.5c-0.5,0-0.9,0-1.3-0.2c-0.4-0.2-0.7-0.4-1-0.8c-0.3-0.3-0.8-1-1.4-1.9c-0.6-0.9-1-1.5-1.1-1.6
	c-1.7-2.5-3-5.4-3.9-8.7l-6.7,0.6c-1.1,4.7-2.7,8.5-5,11.5c-2.8,3.8-6.3,5.9-10.5,6.3c-3.3,0.3-6.2-0.5-8.8-2.4
	c-2.6-1.9-4-4.5-4.3-7.7c-0.1-1.5,0-3.1,0.4-4.9c0.5-2.3,1.3-3.5,2.4-3.6c0.6-0.1,0.9,0.2,1,0.7c-0.8,1-1.4,2.3-1.9,3.7
	c-0.5,1.4-0.7,2.8-0.5,4.2c0.2,2.6,1.3,4.6,3.2,6c1.9,1.4,4.2,2,6.9,1.8c3.7-0.3,7-2.1,9.8-5.3c2.3-2.6,4.1-6,5.4-10.1
	c-1.4,0.1-2.6,0.2-3.7,0.1c-2.1,0-3.2-0.4-3.3-1c0-0.3,0.3-0.5,0.9-0.5l6.7-0.9c1.3-5,2.3-9.7,3-13.9c0.4-3.5,0.8-7,1.3-10.5
	c0.8-0.8,1.8-1.3,2.9-1.4c0.6-0.1,1.4,0.1,2.4,0.6c0.9,0.4,1.5,0.9,1.6,1.5c-0.3,1.1-0.4,3.4-0.5,6.9c-0.1,3.5,0,6.3,0.1,8.2
	l0.9,7.3l4.4-0.5c0.6-0.1,1,0.1,1,0.4c0,0.5-0.7,1-2.2,1.5c-1.5,0.5-2.5,0.7-2.8,0.7c0.2,1.9,0.8,4.3,1.9,7.2
	c0.3,0.7,0.6,1.6,0.9,2.7c0.3,1.1,0.6,1.8,0.8,2.2c0.2,0.3,0.5,0.5,0.9,0.4c0.5-0.4,1-0.6,1.3-0.6L49,299.7z"/>
<path fill="none" stroke="#FFFFFF" stroke-width="0.3" stroke-miterlimit="22.926" d="M324.6,257.5c-0.1-0.7-0.4-1.4-1-2.1
	c-0.6-0.7-1.2-1-2-0.9c-2.1,0.2-3.6,2.2-4.6,6.1c-0.8,3.1-1.1,6-0.8,8.7c0.1,1.5,0.5,2.8,1,3.9c0.8,1.6,1.8,2.3,3.1,2.2
	c2.1-0.2,3.4-2.8,4.1-7.7C324.9,264.1,324.9,260.7,324.6,257.5z M332.4,272.9c0,0.4-0.1,0.7-0.5,1c-0.4,0.3-0.9,0.5-1.4,0.5
	c-1.4,0.1-2.7-0.7-3.7-2.5c-0.4-0.7-0.8-1.6-1.2-2.6c-0.7,2.1-1.4,3.6-2,4.5c-1,1.6-2.3,2.5-3.9,2.7c-2.1,0.2-3.9-0.9-5.4-3.3
	c-1.1-1.9-1.8-4-2-6.4c-0.3-2.9,0.4-6.1,1.9-9.6c1.6-3.6,3.1-5.4,4.7-5.6c0.3,0,0.7,0,1.1,0.2c0.4,0.2,0.7,0.3,1,0.5
	c0.3,0.1,0.5,0.3,0.7,0.4c1.4,0.7,2.5,1.2,3.1,1.5c0.5-0.5,1-0.8,1.5-0.9c0.5,0,1,0.1,1.5,0.3c0.5,0.3,0.8,0.7,0.8,1.2
	c-0.3,1.6-0.5,3.5-0.6,5.6c-0.1,2.2-0.1,4.3,0.1,6.3c0.1,1.4,0.4,2.8,0.7,4.2c0.3,1.4,0.9,2.1,1.7,2c0.3,0,0.6-0.2,0.8-0.4
	c0.2-0.3,0.3-0.4,0.4-0.4C332.2,272.1,332.4,272.3,332.4,272.9z M311.1,274.6c0,0.4-0.2,0.9-0.7,1.5c-0.6,0.6-1.1,0.9-1.5,0.9
	c-1.5,0.1-2.8-0.8-3.8-2.8c-0.8-1.5-1.3-3.2-1.4-5c-0.1-1.5-0.2-3-0.1-4.6c0.1-1.6,0.2-3.1,0.4-4.7c-0.1,0-0.6,0.2-1.7,0.5
	c-0.4,0.1-0.8,0.2-1.2,0.2c-0.4,3.1-0.7,5.9-0.9,8.6c-0.2,2.7-0.2,4.9-0.1,6.5c0,0.4,0.1,0.8,0.1,1.1c0,0.4,0.1,0.7,0.2,1
	c0.1,0.7-0.3,1.1-0.9,1.1c-0.4,0-0.8-0.2-1-0.6c-0.2-0.4-0.4-0.9-0.4-1.4c-0.2-1.7-0.1-3.6,0.2-5.9c0.8-6.6,1.3-10,1.3-10.3
	c0-0.3-0.2-0.8-0.4-1.5c-0.2-0.7-0.4-1.2-0.4-1.7c-0.1-1.6-0.2-3,0-4.3c0.1-1.2,0.5-1.8,1.3-1.9c0.4,0,0.8,0.1,1.2,0.3
	c0.3,0.3,0.5,0.6,0.6,1.1c0,0.5,0,1.1-0.1,1.8c-0.1,0.7-0.2,1.5-0.3,2.2c0,0.5,0.2,0.9,0.4,1.2c0.2,0.4,0.5,0.6,1,0.5
	c0.6-0.1,1.1-0.4,1.5-1.2c0.4-0.7,0.8-1,1.2-1.1c0.6-0.1,1.3,0.1,2,0.5c0.7,0.5,1,1,1.1,1.7c-0.4,1.4-0.8,2.6-1,3.6
	c-0.6,3-0.8,5.6-0.6,7.9c0.1,1.3,0.4,2.5,0.8,3.5c0.4,1,0.8,1.5,1.3,1.5c0.2,0,0.5-0.3,0.7-0.7c0.2-0.4,0.4-0.6,0.6-0.6
	c0,0,0.1,0,0.1,0C310.9,273.9,311.1,274.1,311.1,274.6z M296.2,275.9c0,0.4-0.1,0.7-0.5,1c-0.4,0.3-0.8,0.4-1.2,0.5
	c-1.1,0.1-2.1-0.4-3-1.4c-0.7-0.8-1.2-1.9-1.6-3.1c-0.6,2.4-1.3,4.1-2.1,4.9c-0.8,0.8-1.9,1.3-3.1,1.4c-2,0.2-3.5-0.8-4.6-2.9
	c-0.8-1.6-1.3-3.5-1.5-5.7c-0.3-3.6-0.5-6-0.5-7.2c0-3,0.5-4.5,1.5-4.6c0.5,0,1,0,1.6,0.3c0.6,0.3,0.9,0.6,1,1.1
	c-0.1,2.4-0.3,4.6-0.3,6.6c-0.1,2-0.1,3.6,0,4.8c0.2,1.7,0.4,3.1,0.7,4c0.6,1.6,1.5,2.4,2.7,2.3c1.5-0.1,2.5-2,3.1-5.5
	c0.5-3.5,0.5-8,0-13.5c0-0.4,0.1-0.7,0.4-1c0.3-0.3,0.7-0.4,1.2-0.5c0.6-0.1,1.2,0.1,1.7,0.5c0.5,0.4,0.8,0.9,0.8,1.6
	c-0.1,2.5-0.1,4.9-0.2,7.2c0,2.3,0,4,0.1,5.2c0.1,1.4,0.3,2.5,0.7,3.3c0.3,0.9,0.7,1.3,1.1,1.2c0.2,0,0.4-0.2,0.7-0.5
	c0.3-0.3,0.5-0.5,0.6-0.5C296,275.1,296.2,275.3,296.2,275.9z M275.1,261.2c0.1,0.6-0.7,1-2.3,1.3c-1.6,0.4-2.8,0.6-3.7,0.7
	c-0.1,1.2-0.2,2.6-0.1,4c0,1.5,0.1,3.1,0.2,4.7c0,0.5,0.1,0.9,0.1,1.2c0.2,1.8,0.4,3.1,0.7,3.9c0.5,1.5,1.4,2.1,2.6,2
	c0.6-0.1,1-0.3,1.5-0.8c0.4-0.4,0.8-0.9,1.3-1.5c0.5,0,0.8,0.3,0.9,0.9c0.1,0.8-0.3,1.5-1.2,2.1c-0.9,0.6-1.8,1-2.6,1
	c-2.3,0.2-4-0.7-5.3-2.8c-0.9-1.5-1.5-3.5-1.7-6.1c-0.2-1.7-0.2-3.3-0.1-5c0-1.7,0.1-2.9,0.1-3.5c-0.7,0-1.1-0.1-1.4-0.1
	c-0.7-0.2-1.1-0.5-1.1-0.9c0-0.2,0.3-0.5,1.1-0.8c0.7-0.2,1.2-0.4,1.6-0.4c-0.1-0.8,0-2.4,0.2-4.6c0.1-1.1,0.2-2.2,0.3-3.3
	c0-0.7,0-1.5-0.1-2.4c-0.1-0.8-0.1-1.5-0.2-1.8c0-0.4,0.2-0.7,0.6-1c0.4-0.2,0.9-0.4,1.3-0.4c0.5,0,1,0.1,1.6,0.4
	c0.6,0.4,0.9,0.8,1,1.3c0,0.1,0,0.3-0.1,0.5c-0.3,0.6-0.4,1.2-0.5,1.6c-0.2,1.1-0.3,2.8-0.4,5.1c-0.1,2.3-0.1,3.7-0.1,4.3
	c1.4-0.1,2.7-0.2,3.9-0.2C274.4,260.7,275,260.9,275.1,261.2z M255.1,263.9c-0.1-0.7-0.4-1.4-1-2.1c-0.6-0.7-1.2-1-2-0.9
	c-2.1,0.2-3.6,2.2-4.6,6.1c-0.8,3.1-1.1,6-0.8,8.7c0.1,1.5,0.5,2.8,1,3.9c0.8,1.6,1.8,2.3,3.1,2.2c2.1-0.2,3.4-2.8,4.1-7.7
	C255.3,270.4,255.4,267.1,255.1,263.9z M262.9,279.3c0,0.4-0.1,0.7-0.5,1c-0.4,0.3-0.9,0.5-1.4,0.5c-1.4,0.1-2.7-0.7-3.7-2.5
	c-0.4-0.7-0.8-1.6-1.2-2.6c-0.7,2.1-1.4,3.6-2,4.5c-1,1.6-2.3,2.5-3.9,2.7c-2.1,0.2-3.9-0.9-5.4-3.3c-1.1-1.9-1.8-4-2-6.4
	c-0.3-2.9,0.4-6.1,1.9-9.6c1.6-3.6,3.1-5.4,4.7-5.6c0.3,0,0.7,0,1.1,0.2c0.4,0.2,0.7,0.3,1,0.5c0.3,0.1,0.5,0.3,0.7,0.4
	c1.4,0.7,2.5,1.2,3.1,1.5c0.5-0.5,1-0.8,1.5-0.9c0.5,0,1,0.1,1.5,0.3c0.5,0.3,0.8,0.7,0.8,1.2c-0.3,1.6-0.5,3.5-0.6,5.6
	c-0.1,2.2-0.1,4.3,0.1,6.3c0.1,1.4,0.4,2.8,0.7,4.2c0.3,1.4,0.9,2.1,1.7,2c0.3,0,0.6-0.2,0.8-0.4c0.2-0.3,0.3-0.4,0.5-0.4
	C262.7,278.4,262.9,278.7,262.9,279.3z M237.4,242.1c-0.8,0.7-1.4,2-1.9,3.8c-0.5,1.9-0.6,4.5-0.3,7.7c0.2,1.7,0.6,5.1,1.4,10.1
	c0.4,2.9,0.7,4.9,0.8,6.1c0.4,4.3,0.3,7.6-0.1,9.8c-0.5,2.2-1.6,3.4-3,3.5c-2.5,0.2-4.9-1.4-7.2-5c-1.8-2.8-3.5-6.9-5.1-12.2
	c-0.6-1.9-1.7-6.1-3.4-12.6c-0.1,6.5-0.3,11.5-0.8,14.9c-0.7,5.7-2.1,10.1-4.2,13.4c-1.4,2.2-2.7,3.8-3.9,4.7
	c-1.2,1-2.9,1.6-5.1,1.8c-3.3,0.3-6.3-0.6-8.8-2.6c-2.6-2-4-4.7-4.3-8c-0.2-1.8,0.2-3.8,1.1-5.9c0.8-2,1.9-3.1,3.1-3.2
	c0.2,0,0.4,0,0.6,0.1c0.3,0.1,0.4,0.3,0.4,0.5c-1.1,1-2,2.1-2.8,3.3c-0.9,1.4-1.3,3.1-1.1,4.9c0.3,2.8,1.6,5,4,6.5
	c2.2,1.3,4.7,1.9,7.7,1.6c1.4-0.1,2.7-0.5,3.7-1.1c1-0.6,1.9-1.4,2.6-2.4c0.7-1,1.6-2.4,2.4-4.1c1.9-3.9,3.1-9.1,3.5-15.6
	c0.3-4.8,0.2-10.2-0.4-16.2c0-0.4,0.1-0.7,0.4-1c0.3-0.2,0.7-0.4,1.1-0.4c0.8-0.1,1.8,0.1,2.9,0.6c1.1,0.5,1.6,1.1,1.7,1.8
	c0.3,3.2,1,7.6,2.2,13.3c1.2,5.6,2.5,10.4,4,14.4c1.9,5,3.6,7.4,5.3,7.2c1-0.1,1.5-1,1.7-2.7c0.1-0.9,0-2.5-0.2-4.8
	c-0.2-2.2-0.4-4.2-0.7-6c-0.8-6.3-1.3-9.6-1.3-10.1c-0.3-3.3-0.2-6.7,0.2-10.1c0.5-4.2,1.5-6.4,2.9-6.5
	C237.1,241.5,237.3,241.7,237.4,242.1z M169.3,279.7c-0.3-3-0.9-5.5-1.9-7.6c-1-2.1-2.2-3-3.5-2.9c-0.4-0.2-0.7-0.3-1-0.3
	c-1.5,0.1-2.6,1.9-3.3,5.4c-0.6,2.9-0.8,5.7-0.5,8.5c0.2,1.7,0.6,3.2,1.4,4.6c1,1.7,2.3,2.5,3.8,2.4c1.7-0.2,3.1-1.4,4-3.9
	C169.2,283.9,169.5,281.8,169.3,279.7z M171.5,278c0.3,3.1-0.1,5.9-1,8.3c-1.3,3.1-3.3,4.8-6.1,5c-2.6,0.2-4.8-0.8-6.4-3.1
	c-1.4-1.9-2.2-4.3-2.5-7.1c-0.3-3,0.2-6.1,1.3-9.5c1.1-3.3,2.5-5,4.1-5.2c0.7-0.1,1.6,0.1,2.7,0.6c1,0.5,1.8,0.7,2.3,0.7
	c1.9,0,3.4,1.4,4.4,4C170.8,273.3,171.2,275.4,171.5,278z M152.5,272.4c0.1,0.6-0.7,1-2.3,1.3c-1.6,0.4-2.8,0.6-3.7,0.7
	c-0.1,1.2-0.2,2.6-0.1,4c0,1.5,0.1,3.1,0.2,4.7c0,0.5,0.1,0.9,0.1,1.2c0.2,1.8,0.4,3.1,0.7,3.9c0.5,1.5,1.4,2.1,2.6,2
	c0.6-0.1,1-0.3,1.5-0.8c0.4-0.4,0.8-0.9,1.3-1.5c0.5,0,0.8,0.3,0.9,0.9c0.1,0.8-0.3,1.5-1.2,2.1c-0.9,0.6-1.8,1-2.6,1
	c-2.3,0.2-4-0.7-5.3-2.8c-0.9-1.5-1.5-3.5-1.7-6.1c-0.2-1.7-0.2-3.3-0.1-5.1c0-1.7,0.1-2.9,0.1-3.5c-0.7,0-1.1-0.1-1.4-0.1
	c-0.7-0.2-1.1-0.5-1.1-0.9c0-0.2,0.3-0.5,1.1-0.8c0.7-0.2,1.2-0.4,1.6-0.4c-0.1-0.8,0-2.4,0.2-4.6c0.1-1.1,0.2-2.2,0.3-3.3
	c0-0.7,0-1.5-0.1-2.4c-0.1-0.8-0.1-1.5-0.2-1.8c0-0.4,0.2-0.7,0.6-1c0.4-0.2,0.9-0.4,1.3-0.4c0.5,0,1,0.1,1.6,0.4
	c0.6,0.4,0.9,0.8,1,1.3c0,0.1,0,0.3-0.1,0.5c-0.3,0.6-0.4,1.2-0.5,1.6c-0.2,1.1-0.3,2.8-0.4,5.1c-0.1,2.3-0.1,3.7-0.1,4.3
	c1.4-0.1,2.7-0.2,3.9-0.2C151.8,271.9,152.5,272.1,152.5,272.4z M140.8,291.4c0,0.2,0,0.3-0.2,0.4c-0.2,0.1-0.6,0.2-1,0.3
	c-1.8,0.2-3.2-0.7-4.2-2.5c-0.7-1.3-1.2-3.4-1.4-6.2c-0.1-1.2-0.2-2.3-0.2-3.3c-0.1-1.1-0.1-2.1-0.2-3.1c-0.1-0.9-0.2-1.6-0.4-2.2
	c-0.2-0.5-0.5-0.8-0.8-0.7c-1.1,0.1-1.8,1.8-2,5.1c-0.2,3.3-0.4,6.6-0.6,9.8c-0.3,3.5-1.2,5.3-2.4,5.4c-0.9,0.1-1.6-0.4-2.1-1.5
	c-0.5-1-0.8-2.1-0.9-3.3c-0.2-1.8-0.2-5.3-0.1-10.5c0-2.6,0-4.7-0.1-6.2c0-0.5,0-1.1,0-1.6c0.1-0.6,0.5-0.9,1.2-1
	c0.6-0.1,1.2,0,1.7,0.3c0.6,0.2,0.9,0.6,0.9,1.1c-0.4,2.9-0.7,5.9-0.9,9.2c-0.2,3.4-0.2,5.9-0.1,7.6c0.1,0.8,0.2,1.3,0.4,1.2
	c0.4-3,0.8-6,1.2-9c0.9-6.1,2.4-9.2,4.6-9.4c1.3-0.1,2.3,0.8,2.9,2.7c0.5,1.4,0.9,3.6,1.2,6.6c0.1,0.9,0.2,1.8,0.2,2.7
	c0,0.9,0.1,1.8,0.2,2.7c0.1,1.6,0.3,2.8,0.6,3.5c0.2,0.8,0.5,1.2,1,1.1C140.3,290.8,140.8,291,140.8,291.4z M117.7,277.3
	c-0.1-1.1-0.4-2-0.8-2.7c-0.6-1-1.4-1.4-2.4-1.3c-1.9,0.2-3.3,2.3-4.2,6.4c-0.4,1.7-0.6,3.3-0.6,4.8c0.4,0.1,0.8,0.5,1.2,1.1
	c0.4,0.6,1.1,0.9,2.2,0.8c1.7-0.2,3-1.3,3.9-3.5C117.6,281.1,117.9,279.2,117.7,277.3z M121.4,289c0.1,1.6-0.4,3.1-1.6,4.5
	c-1.3,1.4-2.7,2.1-4.3,2.3c-2.9,0.3-5.1-0.8-6.9-3.2c-1.4-2-2.3-4.5-2.6-7.6c-0.2-2.4,0.2-5.2,1.1-8.2c1.2-3.7,2.8-5.6,4.8-5.8
	c0.7-0.1,1.2,0,1.4,0.3c1.9,0.4,3.4,1.1,4.5,2.1c1.1,1,1.7,2.3,1.9,3.8c0.2,2.3-0.3,4.5-1.5,6.6c-1.4,2.4-3.2,3.6-5.4,3.8
	c-0.8,0.1-1.8,0-2.9-0.2c0.2,1.9,0.6,3.5,1.3,4.8c0.9,1.7,2.2,2.5,3.9,2.3c2.2-0.2,3.7-1.4,4.4-3.5c0.4-1,0.7-2.1,1-3.2
	C121,287.9,121.3,288.2,121.4,289z M104.7,294.6c0.1,0.6-0.3,0.9-1.1,0.9c-1.9,0.2-3.3-0.8-4.2-2.8c-0.7-1.5-1.2-3.8-1.5-6.7
	c-0.1-1.1-0.2-2.2-0.2-3.2c0-0.9-0.1-1.9-0.1-2.8c-0.1-1.6-0.4-2.3-0.8-2.3c-0.9,0.1-1.6,3.2-1.9,9.3c-0.3,6.1-1,9.2-2.1,9.3
	c-1,0.1-1.8-0.5-2.2-1.7c-0.5-1.2-0.8-2.8-1-5c-0.1-1.2-0.2-2.4-0.3-3.6c-0.1-1.2-0.1-2.4-0.2-3.6c-0.3-2.8-0.8-4.1-1.6-4
	c-1.1,0.1-1.8,3.4-2.2,10c-0.4,6.6-1.4,10-3.2,10.1c-1,0.1-1.6-0.4-2-1.6c-0.4-1.1-0.7-2.4-0.9-4c-0.2-1.7-0.2-4.2-0.1-7.6
	c0.1-3.4,0-5.9-0.1-7.4c0-0.5-0.1-0.9-0.1-1.2c-0.1-0.3-0.1-0.5-0.1-0.7c0-0.2,0.1-0.5,0.4-0.7c0.3-0.2,0.7-0.3,1.2-0.3
	c0.6-0.1,1.2,0.1,1.9,0.3c0.6,0.3,1,0.6,1,1.1c-0.4,1.5-0.7,4-0.8,7.5c-0.2,3.6-0.2,6.4,0,8.4c0.1,1.1,0.3,1.7,0.5,1.7
	c0,0,0.5-3,1.3-8.9c0.8-5.9,2.2-8.9,4.1-9.1c1.4-0.1,2.4,0.7,3.1,2.4c0.5,1.1,0.8,2.6,0.9,4.3l0.7,8c0.4-3.8,0.8-6.8,1.2-9.2
	c0.8-4.5,2-6.9,3.6-7c1.2-0.1,2.1,0.7,2.7,2.4c0.4,1.2,0.8,3.2,1,6c0.1,0.9,0.2,1.8,0.3,2.8c0,0.9,0.1,1.9,0.2,2.8
	c0.2,1.9,0.4,3.3,0.7,4.3c0.3,0.9,0.8,1.4,1.5,1.3C104.4,294.2,104.6,294.3,104.7,294.6z M76.6,295.7c0.1,0.6-0.2,1.1-0.8,1.5
	c-0.6,0.5-1.2,0.7-1.8,0.8c-1.8,0.2-3.3-0.7-4.4-2.5c-0.8-1.4-1.3-3.1-1.5-5.2c-0.1-1.5-0.2-3.7-0.1-6.6c0.1-2.9,0.1-4.8,0-5.7
	c0-0.4,0.1-0.7,0.4-0.9c0.3-0.1,0.7-0.2,1.3-0.2c0.5,0,1,0.1,1.6,0.5c0.6,0.4,0.9,0.8,1,1.3c-0.5,1.7-0.7,4.1-0.8,7.1
	c-0.1,3,0,5.5,0.1,7.4c0.1,1.4,0.4,2.3,0.7,2.8c0.3,0.5,0.8,0.7,1.5,0.7c0.3,0,0.6-0.3,1-0.8c0.3-0.5,0.6-0.8,0.8-0.8
	c0.1,0,0.3,0,0.4,0.1C76.5,295.2,76.6,295.5,76.6,295.7z M73,271.5c0.1,0.6-0.2,1.1-0.8,1.7c-0.6,0.6-1.2,1-1.8,1
	c-0.6,0.1-1.3-0.1-1.9-0.4c-0.6-0.3-1-0.8-1-1.4c-0.1-0.7,0.2-1.3,0.7-1.8c0.5-0.5,1.1-0.8,1.9-0.8c0.6-0.1,1.2,0.1,1.9,0.4
	C72.6,270.6,73,271,73,271.5z M61.3,270.9c-0.2-1.8-0.4-3.3-0.6-4.5c-0.6-2.5-1.3-3.7-2.2-3.6c-1.3,0.1-2.2,2.7-2.7,7.8
	c-0.5,5.1-0.6,9.8-0.2,14c0.1,1.3,0.3,2.5,0.5,3.6c0.2,1.2,0.4,2.5,0.7,3.8c2-2.3,3.4-5.6,4.2-9.8C61.5,278.8,61.6,275,61.3,270.9z
	 M62.9,268.4c0.3,3,0.4,5.5,0.4,7.5c0,2-0.2,3.9-0.6,5.7c-1,4.4-2.8,8.4-5.6,11.8c0.1,1.3,0.6,2.6,1.5,3.7c0.9,1.2,2,1.7,3.2,1.6
	c0.8-0.1,1.4-0.5,1.8-1.2c0.4-0.7,0.7-1.1,0.9-1.1c0.5,0,0.8,0.3,0.9,0.9c0.1,0.7-0.3,1.4-1.1,2c-0.8,0.6-1.7,0.9-2.5,1
	c-1.6,0.1-3.1-0.4-4.4-1.6c-1-0.9-1.9-2.2-2.9-3.9l-1.1,0.2c-0.4,0-1-0.1-1.6-0.3c-0.7-0.2-1.1-0.6-1.1-1.2c0-0.4,0.1-0.6,0.4-0.7
	c0.1,0,0.2,0,0.4,0.1c0.2,0.1,0.4,0.2,0.6,0.3c0.5,0.2,0.9,0.3,1.3,0.2c0.2,0,0.3,0,0.5-0.1c-0.5-1.6-0.9-3.2-1.3-4.7
	c-0.4-1.5-0.6-2.9-0.8-4.3c-0.2-2.4-0.2-5.2,0-8.5c0.2-4.4,0.8-7.9,1.7-10.5c1.1-3.5,2.7-5.3,4.7-5.5c0.9-0.1,1.6,0.1,2.1,0.6
	c0.5,0.5,1,1.3,1.5,2.5C62.3,264.1,62.7,266,62.9,268.4z M36.7,265c-0.2,0-0.6,1.9-1.3,5.6c-0.4,1.8-1,5.2-1.9,10.2
	c-0.6,3.7-1,5.5-1,5.5l5.8-0.6l-0.7-5.4c-0.1-1.3-0.2-2.8-0.2-4.5c-0.1-4-0.2-6.5-0.3-7.6c0-0.5-0.1-0.9-0.1-1.1
	c0-0.3-0.1-0.7-0.1-1C36.8,265.6,36.7,265.2,36.7,265z M49,299.7c0,0.4-0.1,0.7-0.4,1c-0.3,0.3-0.7,0.4-1.3,0.5
	c-0.5,0-0.9,0-1.3-0.2c-0.4-0.2-0.7-0.4-1-0.8c-0.3-0.3-0.8-1-1.4-1.9c-0.6-0.9-1-1.5-1.1-1.6c-1.7-2.5-3-5.4-3.9-8.7l-6.7,0.6
	c-1.1,4.7-2.7,8.5-5,11.5c-2.8,3.8-6.3,5.9-10.5,6.3c-3.3,0.3-6.2-0.5-8.8-2.4c-2.6-1.9-4-4.5-4.3-7.7c-0.1-1.5,0-3.1,0.4-4.9
	c0.5-2.3,1.3-3.5,2.4-3.6c0.6-0.1,0.9,0.2,1,0.7c-0.8,1-1.4,2.3-1.9,3.7c-0.5,1.4-0.7,2.8-0.5,4.2c0.2,2.6,1.3,4.6,3.2,6
	c1.9,1.4,4.2,2,6.9,1.8c3.7-0.3,7-2.1,9.8-5.3c2.3-2.6,4.1-6,5.4-10.1c-1.4,0.1-2.6,0.2-3.7,0.1c-2.1,0-3.2-0.4-3.3-1
	c0-0.3,0.3-0.5,0.9-0.5l6.7-0.9c1.3-5,2.3-9.7,3-13.9c0.4-3.5,0.8-7,1.3-10.5c0.8-0.8,1.8-1.3,2.9-1.4c0.6-0.1,1.4,0.1,2.4,0.6
	c0.9,0.4,1.5,0.9,1.6,1.5c-0.3,1.1-0.4,3.4-0.5,6.9c-0.1,3.5,0,6.3,0.1,8.2l0.9,7.3l4.4-0.5c0.6-0.1,1,0.1,1,0.4
	c0,0.5-0.7,1-2.2,1.5c-1.5,0.5-2.5,0.7-2.8,0.7c0.2,1.9,0.8,4.3,1.9,7.2c0.3,0.7,0.6,1.6,0.9,2.7c0.3,1.1,0.6,1.8,0.8,2.2
	c0.2,0.3,0.5,0.5,0.9,0.4c0.5-0.4,1-0.6,1.3-0.6L49,299.7z"/>
<path fill="#FFFFFF" d="M344.1,245.1c-0.2-1.8-0.4-3.3-0.6-4.5c-0.6-2.5-1.3-3.7-2.2-3.6c-1.3,0.1-2.2,2.7-2.7,7.8
	c-0.5,5.1-0.6,9.8-0.2,14c0.1,1.3,0.3,2.5,0.5,3.6c0.2,1.2,0.4,2.5,0.7,3.8c2-2.3,3.4-5.6,4.2-9.8
	C344.4,253,344.5,249.2,344.1,245.1 M345.8,242.6c0.3,3,0.4,5.5,0.4,7.5c0,2-0.2,3.9-0.6,5.7c-1,4.4-2.8,8.4-5.6,11.8
	c0.1,1.3,0.6,2.6,1.5,3.7c0.9,1.2,2,1.7,3.2,1.6c0.8-0.1,1.4-0.5,1.8-1.2c0.4-0.7,0.7-1.1,0.9-1.1c0.5,0,0.8,0.3,0.9,0.9
	c0.1,0.7-0.3,1.4-1.1,2c-0.8,0.6-1.7,0.9-2.5,1c-1.6,0.1-3.1-0.4-4.4-1.6c-1-0.9-1.9-2.2-2.9-3.9l-1.1,0.2c-0.4,0-1-0.1-1.6-0.3
	c-0.7-0.2-1.1-0.6-1.1-1.2c0-0.4,0.1-0.6,0.4-0.7c0.1,0,0.2,0,0.4,0.1c0.2,0.1,0.4,0.2,0.6,0.3c0.5,0.2,0.9,0.3,1.3,0.2
	c0.2,0,0.3,0,0.5-0.1c-0.5-1.6-0.9-3.2-1.3-4.7c-0.4-1.5-0.6-2.9-0.8-4.3c-0.2-2.4-0.2-5.2,0-8.5c0.2-4.4,0.8-7.9,1.7-10.5
	c1.1-3.5,2.7-5.3,4.7-5.5c0.9-0.1,1.6,0.1,2.1,0.6c0.5,0.5,1,1.3,1.5,2.5C345.2,238.3,345.6,240.2,345.8,242.6"/>
<path fill="none" stroke="#FFFFFF" stroke-width="0.3" stroke-miterlimit="22.926" d="M344.1,245.1c-0.2-1.8-0.4-3.3-0.6-4.5
	c-0.6-2.5-1.3-3.7-2.2-3.6c-1.3,0.1-2.2,2.7-2.7,7.8c-0.5,5.1-0.6,9.8-0.2,14c0.1,1.3,0.3,2.5,0.5,3.6c0.2,1.2,0.4,2.5,0.7,3.8
	c2-2.3,3.4-5.6,4.2-9.8C344.4,253,344.5,249.2,344.1,245.1z M345.8,242.6c0.3,3,0.4,5.5,0.4,7.5c0,2-0.2,3.9-0.6,5.7
	c-1,4.4-2.8,8.4-5.6,11.8c0.1,1.3,0.6,2.6,1.5,3.7c0.9,1.2,2,1.7,3.2,1.6c0.8-0.1,1.4-0.5,1.8-1.2c0.4-0.7,0.7-1.1,0.9-1.1
	c0.5,0,0.8,0.3,0.9,0.9c0.1,0.7-0.3,1.4-1.1,2c-0.8,0.6-1.7,0.9-2.5,1c-1.6,0.1-3.1-0.4-4.4-1.6c-1-0.9-1.9-2.2-2.9-3.9l-1.1,0.2
	c-0.4,0-1-0.1-1.6-0.3c-0.7-0.2-1.1-0.6-1.1-1.2c0-0.4,0.1-0.6,0.4-0.7c0.1,0,0.2,0,0.4,0.1c0.2,0.1,0.4,0.2,0.6,0.3
	c0.5,0.2,0.9,0.3,1.3,0.2c0.2,0,0.3,0,0.5-0.1c-0.5-1.6-0.9-3.2-1.3-4.7c-0.4-1.5-0.6-2.9-0.8-4.3c-0.2-2.4-0.2-5.2,0-8.5
	c0.2-4.4,0.8-7.9,1.7-10.5c1.1-3.5,2.7-5.3,4.7-5.5c0.9-0.1,1.6,0.1,2.1,0.6c0.5,0.5,1,1.3,1.5,2.5
	C345.2,238.3,345.6,240.2,345.8,242.6z"/>
<path fill="#1D1D1B" d="M324.2,103.2v-2.8h1.6c1.1,0,1.6,0.6,1.6,1.4c0,0.9-0.5,1.4-1.6,1.4H324.2z M327.2,107.6h2.3l-1.7-3.1
	c1-0.5,1.6-1.5,1.6-2.7c0-1.8-1.1-3-3.2-3h-4v8.8h2v-2.8h1.6L327.2,107.6z M325.4,112c-5.2,0-8.6-3.8-8.6-8.5c0-4.8,3.4-8.5,8.6-8.5
	c5.2,0,8.6,3.8,8.6,8.5C334,108.2,330.6,112,325.4,112 M325.4,113.4c6.4,0,10.2-4.7,10.2-9.9c0-5.3-3.8-9.9-10.2-9.9
	c-6.4,0-10.2,4.6-10.2,9.9C315.3,108.7,319.1,113.4,325.4,113.4"/>
</svg>
