<?xml version="1.0" encoding="utf-8"?>
<!-- Generator: Adobe Illustrator 18.1.1, SVG Export Plug-In . SVG Version: 6.00 Build 0)  -->
<svg version="1.1" id="Capa_1" xmlns="http://www.w3.org/2000/svg" xmlns:xlink="http://www.w3.org/1999/xlink" x="0px" y="0px"
	 viewBox="-0.7 277.8 374.4 54.8" enable-background="new -0.7 277.8 374.4 54.8" xml:space="preserve">
<rect x="0" y="279.5" fill="none" width="396" height="53"/>
<g>
	<rect x="-0.7" y="277.8" fill="none" width="374.4" height="54.8"/>
	<g enable-background="new    ">
		<path fill="#FFFFFF" d="M66.4,297.4c0.3,0,0.7-0.1,1.2-0.1c0.5,0,0.9-0.1,1.4-0.1c0.5,0,1-0.1,1.5-0.1c0.5,0,1,0,1.5,0
			c1.2,0,2.4,0.1,3.5,0.4c1.1,0.2,2.1,0.7,2.9,1.3c0.8,0.6,1.5,1.4,2,2.4c0.5,1,0.7,2.2,0.7,3.7c0,1.6-0.3,2.9-0.8,3.9
			c-0.5,1-1.2,1.9-2.1,2.5c-0.9,0.6-1.8,1.1-2.9,1.3s-2.2,0.4-3.3,0.4c-0.4,0-0.8,0-1.1,0c-0.3,0-0.7,0-1.1-0.1v8.7
			c-0.5,0.1-1.1,0.1-1.7,0.1c-0.3,0-0.6,0-0.9,0c-0.3,0-0.6,0-0.9-0.1V297.4z M69.8,309.8c0.4,0,0.7,0.1,0.9,0.1s0.7,0,1.2,0
			c0.7,0,1.4-0.1,2.1-0.2c0.7-0.1,1.3-0.4,1.8-0.8c0.5-0.4,1-0.9,1.3-1.6c0.3-0.7,0.5-1.5,0.5-2.6c0-0.9-0.1-1.7-0.4-2.3
			c-0.3-0.6-0.7-1.1-1.2-1.5c-0.5-0.4-1.1-0.6-1.8-0.8c-0.7-0.2-1.4-0.2-2.2-0.2c-0.8,0-1.5,0-2.2,0.1V309.8z"/>
		<path fill="#FFFFFF" d="M85,304.3c0.2,0,0.5-0.1,0.7-0.1c0.2,0,0.5,0,0.7,0c0.2,0,0.5,0,0.7,0c0.2,0,0.5,0.1,0.7,0.1
			c0.1,0.3,0.1,0.8,0.2,1.3s0.1,1,0.1,1.4c0.5-0.8,1.1-1.4,1.9-2s1.8-0.8,3-0.8c0.2,0,0.4,0,0.6,0c0.2,0,0.4,0,0.5,0
			c0,0.2,0.1,0.4,0.1,0.6c0,0.2,0,0.5,0,0.7c0,0.3,0,0.5,0,0.8c0,0.3-0.1,0.6-0.1,0.8c-0.2,0-0.4-0.1-0.6-0.1c-0.2,0-0.3,0-0.5,0
			c-0.6,0-1.2,0.1-1.7,0.2c-0.5,0.2-1,0.5-1.5,0.9c-0.4,0.4-0.8,1-1,1.7s-0.4,1.7-0.4,2.8v8.5c-0.2,0-0.5,0.1-0.8,0.1
			c-0.3,0-0.6,0-0.8,0c-0.2,0-0.5,0-0.8,0c-0.3,0-0.6-0.1-0.9-0.1V304.3z"/>
		<path fill="#FFFFFF" d="M103.9,321.8c-1.3,0-2.5-0.2-3.5-0.7c-1-0.5-1.8-1.1-2.5-1.9c-0.7-0.8-1.2-1.7-1.5-2.8
			c-0.3-1.1-0.5-2.3-0.5-3.5s0.2-2.4,0.5-3.5c0.3-1.1,0.8-2,1.5-2.8c0.7-0.8,1.5-1.4,2.5-1.9c1-0.5,2.2-0.7,3.5-0.7
			c1.3,0,2.5,0.2,3.5,0.7s1.8,1.1,2.5,1.9c0.7,0.8,1.2,1.7,1.5,2.8c0.3,1.1,0.5,2.3,0.5,3.5s-0.2,2.4-0.5,3.5
			c-0.3,1.1-0.8,2-1.5,2.8c-0.7,0.8-1.5,1.4-2.5,1.9C106.4,321.6,105.2,321.8,103.9,321.8z M103.9,319.2c1.5,0,2.7-0.6,3.4-1.7
			c0.7-1.1,1.1-2.7,1.1-4.6s-0.4-3.5-1.1-4.6s-1.9-1.7-3.4-1.7c-1.5,0-2.7,0.6-3.4,1.7c-0.7,1.1-1.1,2.6-1.1,4.6s0.4,3.5,1.1,4.6
			C101.2,318.7,102.4,319.2,103.9,319.2z"/>
		<path fill="#FFFFFF" d="M125.1,297.4c0.3,0,0.6-0.1,0.9-0.1c0.3,0,0.7,0,1,0s0.7,0,1,0c0.4,0,0.7,0.1,0.9,0.1l6.2,15l6.2-15
			c0.2,0,0.5-0.1,0.8-0.1c0.3,0,0.7,0,1,0c0.3,0,0.6,0,1,0c0.4,0,0.7,0.1,0.9,0.1l1.1,24c-0.3,0-0.5,0.1-0.8,0.1c-0.3,0-0.6,0-0.9,0
			c-0.3,0-0.6,0-0.9,0c-0.3,0-0.5-0.1-0.8-0.1l-0.8-18.7l-5.9,13.7c-0.4,0.1-0.9,0.1-1.4,0.1c-0.4,0-0.8,0-1.3-0.1l-5.7-13.8
			l-0.8,18.8c-0.2,0-0.5,0.1-0.8,0.1c-0.3,0-0.5,0-0.8,0c-0.3,0-0.6,0-0.8,0c-0.3,0-0.5-0.1-0.8-0.1L125.1,297.4z"/>
		<path fill="#FFFFFF" d="M153.8,313.7c0,1.9,0.5,3.2,1.5,4.1c0.9,0.9,2.3,1.3,4.1,1.3c1.6,0,3.1-0.3,4.5-0.8
			c0.2,0.3,0.3,0.7,0.4,1.2c0.1,0.5,0.2,1,0.2,1.4c-0.7,0.3-1.5,0.5-2.4,0.7c-0.9,0.2-1.9,0.2-2.9,0.2c-1.6,0-2.9-0.2-4-0.7
			c-1.1-0.4-2-1-2.8-1.8c-0.7-0.8-1.3-1.7-1.6-2.8s-0.5-2.3-0.5-3.6c0-1.3,0.2-2.5,0.5-3.6c0.3-1.1,0.8-2.1,1.5-2.9
			c0.7-0.8,1.5-1.5,2.5-1.9c1-0.5,2.2-0.7,3.6-0.7c1.2,0,2.2,0.2,3.1,0.6c0.9,0.4,1.6,1,2.2,1.7c0.6,0.7,1.1,1.5,1.4,2.5
			c0.3,1,0.5,2,0.5,3.2c0,0.3,0,0.6,0,1c0,0.3,0,0.6-0.1,0.9H153.8z M162.3,311.2c0-0.6-0.1-1.2-0.2-1.8c-0.2-0.6-0.4-1.1-0.7-1.5
			c-0.3-0.4-0.7-0.8-1.2-1c-0.5-0.3-1.1-0.4-1.8-0.4c-1.4,0-2.4,0.4-3.1,1.2c-0.7,0.8-1.2,2-1.3,3.4H162.3z"/>
		<path fill="#FFFFFF" d="M180.9,297c0.2,0,0.5-0.1,0.8-0.1c0.3,0,0.6,0,0.8,0c0.2,0,0.5,0,0.8,0c0.3,0,0.6,0.1,0.8,0.1v24
			c-0.8,0.2-1.8,0.5-2.8,0.6s-2.2,0.2-3.5,0.2c-1.2,0-2.3-0.2-3.4-0.5c-1.1-0.3-2-0.8-2.8-1.5c-0.8-0.7-1.4-1.6-1.9-2.7
			c-0.5-1.1-0.7-2.4-0.7-4c0-1.4,0.2-2.6,0.6-3.8s1-2.1,1.8-2.9c0.8-0.8,1.7-1.4,2.7-1.9c1.1-0.4,2.2-0.7,3.5-0.7
			c0.6,0,1.2,0,1.8,0.1c0.6,0.1,1.1,0.2,1.6,0.3V297z M180.9,307.2c-0.4-0.2-0.9-0.3-1.4-0.4c-0.5-0.1-1.1-0.1-1.7-0.1
			c-0.9,0-1.7,0.2-2.4,0.5c-0.7,0.3-1.2,0.8-1.7,1.4c-0.4,0.6-0.8,1.3-1,2.1c-0.2,0.8-0.3,1.7-0.3,2.6c0,2.1,0.5,3.6,1.5,4.5
			c1,0.9,2.3,1.4,4,1.4c0.6,0,1.1,0,1.6-0.1c0.5-0.1,0.9-0.1,1.3-0.2V307.2z"/>
		<path fill="#FFFFFF" d="M190.5,306.9h-2.2c0-0.2-0.1-0.4-0.1-0.6c0-0.2,0-0.5,0-0.7c0-0.2,0-0.5,0-0.7c0-0.2,0.1-0.4,0.1-0.6h5.4
			v17.1c-0.2,0-0.5,0.1-0.8,0.1c-0.3,0-0.6,0-0.8,0c-0.2,0-0.5,0-0.8,0c-0.3,0-0.6-0.1-0.8-0.1V306.9z M189.7,300.6
			c0-0.3-0.1-0.6-0.1-0.9c0-0.3,0-0.6,0-0.8c0-0.2,0-0.5,0-0.8c0-0.3,0-0.6,0.1-0.8c0.3,0,0.6-0.1,0.9-0.1c0.3,0,0.6,0,0.9,0
			c0.2,0,0.5,0,0.9,0c0.3,0,0.6,0.1,0.9,0.1c0,0.2,0.1,0.5,0.1,0.8c0,0.3,0,0.6,0,0.8c0,0.2,0,0.5,0,0.8c0,0.3,0,0.6-0.1,0.9
			c-0.3,0-0.6,0.1-0.9,0.1c-0.3,0-0.6,0-0.9,0c-0.3,0-0.6,0-0.9,0C190.3,300.6,190,300.6,189.7,300.6z"/>
		<path fill="#FFFFFF" d="M206,321.8c-1.3,0-2.5-0.2-3.5-0.7c-1-0.5-1.8-1.1-2.5-1.9c-0.7-0.8-1.2-1.7-1.5-2.8
			c-0.3-1.1-0.5-2.3-0.5-3.5s0.2-2.4,0.5-3.5c0.3-1.1,0.8-2,1.5-2.8c0.7-0.8,1.5-1.4,2.5-1.9c1-0.5,2.2-0.7,3.5-0.7s2.5,0.2,3.5,0.7
			c1,0.5,1.8,1.1,2.5,1.9c0.7,0.8,1.2,1.7,1.5,2.8c0.3,1.1,0.5,2.3,0.5,3.5s-0.2,2.4-0.5,3.5c-0.3,1.1-0.8,2-1.5,2.8
			c-0.7,0.8-1.5,1.4-2.5,1.9C208.5,321.6,207.4,321.8,206,321.8z M206,319.2c1.5,0,2.7-0.6,3.4-1.7c0.7-1.1,1.1-2.7,1.1-4.6
			s-0.4-3.5-1.1-4.6s-1.9-1.7-3.4-1.7c-1.5,0-2.7,0.6-3.4,1.7c-0.7,1.1-1.1,2.6-1.1,4.6s0.4,3.5,1.1,4.6
			C203.4,318.7,204.5,319.2,206,319.2z"/>
		<path fill="#FFFFFF" d="M218,318.3c0.6,0.2,1.3,0.4,2,0.6c0.7,0.1,1.4,0.2,2.2,0.2c0.5,0,1-0.1,1.5-0.2c0.5-0.1,0.9-0.3,1.2-0.5
			c0.3-0.2,0.6-0.5,0.8-0.8c0.2-0.3,0.3-0.7,0.3-1.1c0-0.4-0.1-0.8-0.3-1.1s-0.4-0.5-0.7-0.7c-0.3-0.2-0.6-0.4-1-0.5
			c-0.4-0.1-0.8-0.3-1.2-0.4l-1.2-0.4c-1.4-0.5-2.5-1.1-3.1-1.8c-0.6-0.7-1-1.6-1-2.7c0-1.5,0.5-2.7,1.6-3.6
			c1.1-0.9,2.7-1.3,4.8-1.3c0.9,0,1.7,0.1,2.6,0.2c0.8,0.2,1.6,0.4,2.2,0.6c0,0.4-0.1,0.9-0.3,1.3s-0.3,0.9-0.5,1.2
			c-0.5-0.2-1.1-0.4-1.8-0.5c-0.7-0.2-1.4-0.2-2.2-0.2c-0.8,0-1.6,0.1-2.2,0.4c-0.6,0.3-1,0.8-1,1.5c0,0.4,0.1,0.7,0.2,1
			c0.2,0.3,0.4,0.5,0.6,0.7c0.3,0.2,0.6,0.4,0.9,0.5c0.3,0.1,0.7,0.3,1.1,0.4l1.5,0.5c0.5,0.2,1,0.4,1.5,0.6
			c0.5,0.2,0.9,0.6,1.2,0.9s0.6,0.8,0.8,1.3c0.2,0.5,0.3,1.2,0.3,1.9c0,0.8-0.2,1.6-0.5,2.3s-0.8,1.3-1.4,1.7s-1.4,0.9-2.2,1.1
			s-1.8,0.4-2.9,0.4c-1.1,0-2-0.1-2.8-0.2c-0.8-0.1-1.5-0.3-2.2-0.6c0-0.4,0.1-0.9,0.3-1.4S217.9,318.8,218,318.3z"/>
		<path fill="#FFFFFF" d="M241.7,297.4c0.8-0.1,1.7-0.2,2.7-0.3c1.1-0.1,2.1-0.1,3.1-0.1c4.2,0,7.3,1.1,9.4,3.2s3.1,5.2,3.1,9.2
			c0,4.2-1.1,7.3-3.2,9.3c-2.1,2-5.3,3-9.5,3c-1,0-2.1,0-3.1-0.1c-1-0.1-1.9-0.2-2.6-0.3V297.4z M245.2,318.6c0.3,0,0.7,0.1,1.2,0.1
			c0.5,0,0.9,0,1.5,0c1.3,0,2.5-0.2,3.6-0.5c1.1-0.3,2-0.8,2.8-1.5c0.8-0.7,1.4-1.7,1.8-2.9s0.6-2.7,0.6-4.6c0-1.7-0.2-3.1-0.6-4.3
			c-0.4-1.2-1-2.1-1.8-2.9c-0.8-0.7-1.7-1.3-2.8-1.6s-2.2-0.5-3.5-0.5c-0.4,0-0.9,0-1.4,0c-0.5,0-0.9,0-1.3,0.1V318.6z"/>
		<path fill="#FFFFFF" d="M265.8,306.9h-2.2c0-0.2-0.1-0.4-0.1-0.6c0-0.2,0-0.5,0-0.7c0-0.2,0-0.5,0-0.7c0-0.2,0.1-0.4,0.1-0.6h5.4
			v17.1c-0.2,0-0.5,0.1-0.8,0.1c-0.3,0-0.6,0-0.8,0c-0.2,0-0.5,0-0.8,0c-0.3,0-0.6-0.1-0.8-0.1V306.9z M265,300.6
			c0-0.3-0.1-0.6-0.1-0.9c0-0.3,0-0.6,0-0.8c0-0.2,0-0.5,0-0.8c0-0.3,0-0.6,0.1-0.8c0.3,0,0.6-0.1,0.9-0.1c0.3,0,0.6,0,0.9,0
			s0.5,0,0.9,0c0.3,0,0.6,0.1,0.9,0.1c0,0.2,0.1,0.5,0.1,0.8c0,0.3,0,0.6,0,0.8c0,0.2,0,0.5,0,0.8c0,0.3,0,0.6-0.1,0.9
			c-0.3,0-0.6,0.1-0.9,0.1c-0.3,0-0.6,0-0.9,0c-0.3,0-0.6,0-0.9,0C265.6,300.6,265.3,300.6,265,300.6z"/>
		<path fill="#FFFFFF" d="M283.6,319.2c2,0,3.4,0.5,4.3,1.3c0.9,0.8,1.3,1.9,1.3,3.3c0,0.9-0.2,1.7-0.7,2.5
			c-0.5,0.7-1.1,1.3-1.9,1.9c-0.8,0.5-1.8,0.9-2.9,1.2s-2.3,0.4-3.7,0.4c-2.3,0-4-0.4-5.2-1.1c-1.2-0.7-1.8-1.8-1.8-3.4
			c0-0.9,0.2-1.7,0.7-2.5c0.5-0.7,1.1-1.3,1.9-1.7c-0.4-0.3-0.8-0.7-1.1-1.1c-0.3-0.4-0.5-1-0.5-1.6c0-0.8,0.2-1.5,0.6-2.1
			c0.4-0.6,0.9-1.1,1.5-1.6c-0.7-0.5-1.3-1.2-1.8-2c-0.4-0.8-0.7-1.7-0.7-2.8c0-0.8,0.2-1.6,0.5-2.4c0.3-0.7,0.8-1.4,1.4-1.9
			c0.6-0.5,1.3-1,2.2-1.3c0.9-0.3,1.9-0.5,3-0.5c1,0,1.9,0.1,2.7,0.4c0.8,0.3,1.5,0.7,2.1,1.1c0.4-0.4,1-0.7,1.8-0.9
			c0.8-0.2,1.6-0.4,2.5-0.4c0.1,0.4,0.1,0.9,0.1,1.4c0,0.2,0,0.5,0,0.8s-0.1,0.5-0.1,0.8h-3c0.2,0.4,0.4,0.8,0.6,1.2
			c0.1,0.4,0.2,1,0.2,1.5c0,0.9-0.2,1.7-0.5,2.5c-0.3,0.7-0.8,1.4-1.4,1.9s-1.3,0.9-2.2,1.2c-0.8,0.3-1.8,0.4-2.8,0.4
			c-0.9,0-1.7-0.1-2.5-0.3c-0.3,0.2-0.6,0.5-0.9,0.8c-0.3,0.4-0.5,0.8-0.5,1.2c0,0.4,0.1,0.8,0.4,1.1c0.3,0.3,0.9,0.5,1.9,0.5
			L283.6,319.2z M279.1,321.9c-1,0-1.8,0.2-2.3,0.8c-0.5,0.6-0.8,1.2-0.8,2c0,0.5,0.1,0.9,0.3,1.2s0.5,0.6,0.9,0.8
			c0.4,0.2,0.8,0.3,1.3,0.4c0.5,0.1,1.1,0.1,1.7,0.1c1.8,0,3.2-0.3,4.2-0.9c1-0.6,1.5-1.3,1.5-2.2c0-0.7-0.2-1.2-0.6-1.5
			c-0.4-0.4-1.2-0.5-2.3-0.6L279.1,321.9z M280.6,313.5c1.2,0,2.1-0.3,2.7-1c0.6-0.7,0.9-1.5,0.9-2.6c0-1.1-0.3-1.9-0.9-2.6
			c-0.6-0.7-1.5-1-2.7-1c-1.2,0-2.1,0.3-2.7,1c-0.6,0.7-0.9,1.6-0.9,2.6c0,1,0.3,1.9,0.9,2.6C278.5,313.2,279.4,313.5,280.6,313.5z"
			/>
		<path fill="#FFFFFF" d="M293.8,306.9h-2.2c0-0.2-0.1-0.4-0.1-0.6c0-0.2,0-0.5,0-0.7c0-0.2,0-0.5,0-0.7c0-0.2,0.1-0.4,0.1-0.6h5.4
			v17.1c-0.2,0-0.5,0.1-0.8,0.1c-0.3,0-0.6,0-0.8,0c-0.2,0-0.5,0-0.8,0c-0.3,0-0.6-0.1-0.8-0.1V306.9z M293.1,300.6
			c0-0.3-0.1-0.6-0.1-0.9c0-0.3,0-0.6,0-0.8c0-0.2,0-0.5,0-0.8c0-0.3,0-0.6,0.1-0.8c0.3,0,0.6-0.1,0.9-0.1c0.3,0,0.6,0,0.9,0
			s0.5,0,0.9,0c0.3,0,0.6,0.1,0.9,0.1c0,0.2,0.1,0.5,0.1,0.8c0,0.3,0,0.6,0,0.8c0,0.2,0,0.5,0,0.8c0,0.3,0,0.6-0.1,0.9
			c-0.3,0-0.6,0.1-0.9,0.1c-0.3,0-0.6,0-0.9,0c-0.3,0-0.6,0-0.9,0C293.7,300.6,293.4,300.6,293.1,300.6z"/>
		<path fill="#FFFFFF" d="M303.1,307h-2.6l-0.1-0.5l5.7-6.4h0.3v4.2h4.3c0.1,0.4,0.1,0.8,0.1,1.3c0,0.2,0,0.5,0,0.7
			c0,0.2-0.1,0.4-0.1,0.7h-4.3v7.8c0,0.9,0,1.7,0.1,2.2c0.1,0.6,0.2,1,0.4,1.3c0.2,0.3,0.4,0.5,0.8,0.6c0.3,0.1,0.7,0.2,1.2,0.2
			c0.4,0,0.7,0,1.1-0.1c0.3-0.1,0.6-0.1,0.9-0.2c0.2,0.4,0.3,0.9,0.3,1.4s0,0.9,0,1.2c-0.4,0.1-0.9,0.2-1.4,0.2
			c-0.5,0.1-1,0.1-1.6,0.1c-1.6,0-2.9-0.4-3.8-1.2c-0.9-0.8-1.4-2.1-1.4-3.9V307z"/>
		<path fill="#FFFFFF" d="M323.5,310.2c0-1.3-0.3-2.2-1-2.7c-0.7-0.5-1.6-0.8-2.9-0.8c-0.8,0-1.5,0.1-2.2,0.2
			c-0.7,0.1-1.3,0.3-2,0.5c-0.4-0.7-0.6-1.6-0.6-2.6c0.8-0.2,1.6-0.4,2.5-0.6c0.9-0.1,1.8-0.2,2.6-0.2c2.2,0,3.9,0.5,5.1,1.5
			c1.2,1,1.7,2.6,1.7,4.9V321c-0.8,0.2-1.7,0.4-2.8,0.6c-1.1,0.2-2.2,0.3-3.4,0.3c-1.1,0-2.1-0.1-3-0.3c-0.9-0.2-1.6-0.5-2.2-1
			c-0.6-0.4-1.1-1-1.4-1.7c-0.3-0.7-0.5-1.5-0.5-2.5c0-1,0.2-1.8,0.6-2.5c0.4-0.7,0.9-1.3,1.6-1.8c0.7-0.5,1.4-0.8,2.3-1.1
			c0.9-0.2,1.8-0.4,2.7-0.4c0.7,0,1.3,0,1.8,0s0.8,0.1,1.2,0.1V310.2z M323.5,313.4c-0.3,0-0.8-0.1-1.3-0.1c-0.5,0-0.9-0.1-1.3-0.1
			c-1.4,0-2.4,0.3-3.2,0.8c-0.7,0.5-1.1,1.3-1.1,2.3c0,0.7,0.1,1.2,0.4,1.6c0.2,0.4,0.6,0.7,0.9,0.9c0.4,0.2,0.8,0.3,1.2,0.4
			c0.4,0,0.9,0.1,1.3,0.1c0.5,0,1,0,1.6-0.1c0.5-0.1,1-0.1,1.5-0.2V313.4z"/>
		<path fill="#FFFFFF" d="M331.6,297c0.2,0,0.5-0.1,0.8-0.1c0.3,0,0.6,0,0.8,0c0.2,0,0.5,0,0.8,0c0.3,0,0.6,0.1,0.8,0.1v19.3
			c0,0.6,0.1,1.1,0.2,1.5c0.1,0.4,0.3,0.6,0.5,0.8c0.2,0.2,0.4,0.3,0.7,0.4c0.3,0.1,0.5,0.1,0.8,0.1c0.2,0,0.4,0,0.7,0
			c0.3,0,0.5-0.1,0.7-0.1c0.2,0.8,0.3,1.6,0.3,2.5c-0.3,0.1-0.7,0.2-1.1,0.2c-0.4,0-0.9,0-1.2,0c-0.6,0-1.2-0.1-1.8-0.2
			s-1-0.4-1.5-0.8c-0.4-0.4-0.8-0.8-1-1.4c-0.2-0.6-0.4-1.3-0.4-2.2V297z"/>
		<path fill="#FFFFFF" d="M344.1,313.7c0,1.9,0.5,3.2,1.5,4.1c0.9,0.9,2.3,1.3,4.1,1.3c1.6,0,3.1-0.3,4.5-0.8
			c0.2,0.3,0.3,0.7,0.4,1.2s0.2,1,0.2,1.4c-0.7,0.3-1.5,0.5-2.4,0.7c-0.9,0.2-1.9,0.2-2.9,0.2c-1.6,0-2.9-0.2-4-0.7
			c-1.1-0.4-2-1-2.8-1.8c-0.7-0.8-1.3-1.7-1.6-2.8c-0.3-1.1-0.5-2.3-0.5-3.6c0-1.3,0.2-2.5,0.5-3.6c0.3-1.1,0.8-2.1,1.5-2.9
			c0.7-0.8,1.5-1.5,2.5-1.9c1-0.5,2.2-0.7,3.6-0.7c1.2,0,2.2,0.2,3.1,0.6c0.9,0.4,1.6,1,2.2,1.7s1.1,1.5,1.4,2.5
			c0.3,1,0.5,2,0.5,3.2c0,0.3,0,0.6,0,1c0,0.3,0,0.6-0.1,0.9H344.1z M352.6,311.2c0-0.6-0.1-1.2-0.2-1.8c-0.2-0.6-0.4-1.1-0.7-1.5
			c-0.3-0.4-0.7-0.8-1.2-1c-0.5-0.3-1.1-0.4-1.8-0.4c-1.4,0-2.4,0.4-3.1,1.2c-0.7,0.8-1.2,2-1.3,3.4H352.6z"/>
		<path fill="#FFFFFF" d="M359.9,318.3c0.6,0.2,1.3,0.4,2,0.6c0.7,0.1,1.4,0.2,2.2,0.2c0.5,0,1-0.1,1.5-0.2c0.5-0.1,0.9-0.3,1.2-0.5
			c0.3-0.2,0.6-0.5,0.8-0.8c0.2-0.3,0.3-0.7,0.3-1.1c0-0.4-0.1-0.8-0.3-1.1s-0.4-0.5-0.7-0.7c-0.3-0.2-0.6-0.4-1-0.5
			c-0.4-0.1-0.8-0.3-1.2-0.4l-1.2-0.4c-1.4-0.5-2.5-1.1-3.1-1.8c-0.6-0.7-1-1.6-1-2.7c0-1.5,0.5-2.7,1.6-3.6
			c1.1-0.9,2.7-1.3,4.8-1.3c0.9,0,1.7,0.1,2.6,0.2c0.8,0.2,1.6,0.4,2.2,0.6c0,0.4-0.1,0.9-0.3,1.3s-0.3,0.9-0.5,1.2
			c-0.5-0.2-1.1-0.4-1.8-0.5c-0.7-0.2-1.4-0.2-2.2-0.2c-0.8,0-1.6,0.1-2.2,0.4c-0.6,0.3-1,0.8-1,1.5c0,0.4,0.1,0.7,0.2,1
			c0.2,0.3,0.4,0.5,0.6,0.7c0.3,0.2,0.6,0.4,0.9,0.5c0.3,0.1,0.7,0.3,1.1,0.4l1.5,0.5c0.5,0.2,1,0.4,1.5,0.6
			c0.5,0.2,0.9,0.6,1.2,0.9s0.6,0.8,0.8,1.3c0.2,0.5,0.3,1.2,0.3,1.9c0,0.8-0.2,1.6-0.5,2.3s-0.8,1.3-1.4,1.7s-1.4,0.9-2.2,1.1
			s-1.8,0.4-2.9,0.4c-1.1,0-2-0.1-2.8-0.2c-0.8-0.1-1.5-0.3-2.2-0.6c0-0.4,0.1-0.9,0.3-1.4S359.7,318.8,359.9,318.3z"/>
	</g>
	<g>
		<polygon fill="#FFFFFF" points="63,280.3 54.6,324 37.1,314.1 		"/>
		<polygon fill="#FFFFFF" points="1.6,304.3 63,280.3 19.8,306.6 		"/>
		<polygon fill="#DADADA" points="29.1,325.1 19.8,306.6 63,280.3 33.8,312 		"/>
		<polygon fill="#9D9D9C" points="37.1,314.1 33.8,312 63,280.3 		"/>
		<polygon fill="#3C3C3B" points="29.1,325.1 37.1,314.1 33.8,312 		"/>
	</g>
</g>
</svg>
