<?xml version="1.0" encoding="utf-8"?>
<!-- Generator: Adobe Illustrator 18.1.1, SVG Export Plug-In . SVG Version: 6.00 Build 0)  -->
<svg version="1.1" baseProfile="tiny" id="Capa_1" xmlns="http://www.w3.org/2000/svg" xmlns:xlink="http://www.w3.org/1999/xlink"
	 x="0px" y="0px" viewBox="7 104.6 389 388.4" xml:space="preserve">
<rect x="7" y="104.6" fill="#FFFFFF" stroke="#000000" stroke-miterlimit="10" width="388.4" height="388.4"/>
<path fill="#FFDA85" d="M20.9,347.7c1.1,1.9,3.7,1.9,5.9,0.1c2.1-1.8,2.9-4.9,1.8-6.9c-1.1-1.9-3.7-2-5.9-0.1
	C20.5,342.7,19.7,345.8,20.9,347.7"/>
<path fill="#FFDA85" d="M43.8,340.4c1.1,1.8,3.5,1.8,5.4,0.1c2-1.7,2.7-4.6,1.6-6.4s-3.5-1.8-5.4-0.1
	C43.4,335.7,42.7,338.6,43.8,340.4"/>
<path fill="#FFDA85" d="M49.3,316.4c2.1-1.8,2.9-4.9,1.8-6.9c-1.1-1.9-3.7-2-5.9-0.1c-2.1,1.9-2.9,4.9-1.8,6.9
	C44.5,318.2,47.2,318.2,49.3,316.4"/>
<path fill="#FFDA85" d="M49.3,292.3c2.3-2,3.1-5.3,1.9-7.3c-1.2-2-4-2.1-6.3-0.1c-2.3,2-3.1,5.3-1.9,7.3
	C44.3,294.3,47,294.3,49.3,292.3"/>
<path fill="#FFDA85" d="M68.3,351.4c-1.8,1.6-2.5,4.3-1.6,6c1,1.6,3.3,1.7,5.2,0.1c1.8-1.6,2.5-4.3,1.5-6
	C72.4,349.8,70.1,349.8,68.3,351.4"/>
<path fill="#FFDA85" d="M71.9,285.2c2.3-2,3.1-5.3,1.8-7.3c-1.2-2-4-2.1-6.3-0.1s-3.1,5.3-1.9,7.4C66.9,287.2,69.7,287.2,71.9,285.2
	"/>
<path fill="#FFDA85" d="M73.7,253.5c-1.2-2-4-2.1-6.3-0.1c-2.3,2-3.1,5.3-1.9,7.3c1.2,2,4,2,6.3,0.1
	C74.1,258.8,74.9,255.6,73.7,253.5"/>
<path fill="#FFDA85" d="M91.1,368.9c-1.7,1.5-2.3,4-1.4,5.4c0.9,1.6,3,1.6,4.7,0.1c1.7-1.5,2.3-4,1.4-5.4
	C94.9,367.4,92.8,367.4,91.1,368.9"/>
<path fill="#FFDA85" d="M91,344.5c-1.7,1.5-2.3,4-1.4,5.5c0.9,1.6,3,1.6,4.7,0.1c1.7-1.5,2.3-4,1.4-5.5
	C94.8,343.1,92.7,343,91,344.5"/>
<path fill="#FFDA85" d="M88.9,301.8c1.1,1.8,3.5,1.8,5.4,0.1c2-1.7,2.7-4.6,1.6-6.4c-1.1-1.8-3.5-1.8-5.4-0.1
	C88.6,297.1,87.8,300,88.9,301.8"/>
<path fill="#FFDA85" d="M94.4,277.8c2.1-1.9,2.9-4.9,1.8-6.9c-1.1-1.9-3.7-2-5.9-0.1c-2.1,1.8-2.9,4.9-1.8,6.9
	C89.7,279.6,92.3,279.7,94.4,277.8"/>
<path fill="#FFDA85" d="M94.4,253.7c2.3-2,3.1-5.3,1.9-7.3c-1.2-2-4-2.1-6.3-0.1c-2.3,2-3.1,5.3-1.9,7.3
	C89.4,255.7,92.1,255.7,94.4,253.7"/>
<path fill="#FFDA85" d="M114.1,386.5c-1.3,1.2-1.9,3.2-1.1,4.4c0.8,1.3,2.4,1.3,3.8,0.1c1.3-1.2,1.9-3.2,1.1-4.4
	C117.1,385.3,115.4,385.3,114.1,386.5"/>
<path fill="#FFDA85" d="M113.8,362c-1.5,1.3-2.1,3.6-1.3,4.9c0.8,1.4,2.8,1.4,4.2,0.1c1.6-1.3,2.1-3.6,1.3-5
	C117.3,360.6,115.4,360.6,113.8,362"/>
<path fill="#FFDA85" d="M113.2,288.3c-2,1.8-2.7,4.6-1.6,6.4s3.5,1.8,5.4,0.1c1.9-1.7,2.7-4.6,1.6-6.4
	C117.6,286.6,115.1,286.6,113.2,288.3"/>
<path fill="#FFDA85" d="M111.1,270.6c1.1,1.9,3.7,2,5.9,0.1c2.1-1.8,2.9-4.9,1.8-6.9c-1.1-1.9-3.7-2-5.9-0.1
	C110.8,265.6,110,268.6,111.1,270.6"/>
<path fill="#FFDA85" d="M116.9,246.3c2.1-1.8,2.9-4.9,1.8-6.9c-1.1-1.9-3.7-2-5.9-0.1c-2.1,1.9-2.9,4.9-1.8,6.9
	C112.2,248.2,114.8,248.2,116.9,246.3"/>
<path fill="#FFDA85" d="M118.8,214.9c-1.2-2-4-2.1-6.2-0.1c-2.3,2-3.2,5.3-1.9,7.3c1.2,2,4,2.1,6.4,0.1
	C119.3,220.3,120,216.9,118.8,214.9"/>
<path fill="#FFDA85" d="M119,190.3c-1.3-2.2-4.3-2.2-6.7-0.1c-2.4,2.2-3.3,5.7-2,7.9c1.3,2.2,4.3,2.2,6.7,0.1
	C119.4,196,120.3,192.5,119,190.3"/>
<path fill="#FFDA85" d="M136.7,379.4c-1.4,1.3-1.9,3.2-1.1,4.5c0.7,1.2,2.4,1.3,3.8,0.1c1.3-1.2,1.9-3.2,1.1-4.4
	C139.8,378.2,138.1,378.2,136.7,379.4"/>
<path fill="#FFDA85" d="M136.5,354.8c-1.6,1.3-2.1,3.6-1.3,5c0.8,1.3,2.8,1.4,4.2,0c1.5-1.3,2.1-3.6,1.3-4.9S138,353.5,136.5,354.8"
	/>
<path fill="#FFDA85" d="M135.9,281.4c-1.8,1.6-2.5,4.3-1.6,6c1,1.7,3.2,1.7,5.1,0c1.8-1.6,2.5-4.2,1.5-5.9
	C140,279.8,137.8,279.7,135.9,281.4"/>
<path fill="#FFDA85" d="M134,263.2c1.1,1.8,3.5,1.8,5.4,0.1c1.9-1.7,2.7-4.6,1.6-6.4c-1.1-1.8-3.5-1.8-5.4-0.1
	C133.7,258.5,133,261.4,134,263.2"/>
<path fill="#FFDA85" d="M139.5,239.2c2.1-1.8,3-4.9,1.8-6.9s-3.8-2-5.9-0.1c-2.1,1.9-2.9,4.9-1.8,6.9
	C134.8,241,137.4,241,139.5,239.2"/>
<path fill="#FFDA85" d="M139.6,215.1c2.3-2,3.1-5.3,1.9-7.4c-1.2-2-4-2-6.3-0.1c-2.3,2-3.1,5.3-1.9,7.3
	C134.5,217.1,137.3,217.2,139.6,215.1"/>
<path fill="#FFDA85" d="M141.6,183.2c-1.3-2.2-4.3-2.3-6.7-0.1c-2.4,2.1-3.3,5.7-2,7.8c1.3,2.2,4.3,2.2,6.7,0.1
	C142.1,188.9,142.9,185.4,141.6,183.2"/>
<path fill="#FFDA85" d="M158.8,400.6c0.6,1,1.9,1,3,0.1c1.1-1,1.5-2.5,0.9-3.5c-0.6-1-1.9-1-3,0
	C158.7,398.1,158.2,399.6,158.8,400.6"/>
<path fill="#FFDA85" d="M158.5,376.5c0.6,1.1,2.2,1.1,3.4,0c1.3-1.1,1.7-2.9,1.1-4c-0.6-1.1-2.2-1.1-3.4-0.1
	C158.2,373.6,157.8,375.4,158.5,376.5"/>
<path fill="#FFDA85" d="M159.2,348c-1.3,1.2-1.9,3.2-1.1,4.5c0.7,1.3,2.5,1.3,3.8,0c1.4-1.3,1.9-3.2,1.1-4.4
	C162.3,346.8,160.6,346.7,159.2,348"/>
<path fill="#FFDA85" d="M158.5,274.2c-1.8,1.6-2.5,4.3-1.6,6c1,1.6,3.2,1.6,5.1,0c1.8-1.6,2.5-4.3,1.6-5.9
	C162.6,272.7,160.4,272.6,158.5,274.2"/>
<path fill="#FFDA85" d="M158.3,249.7c-2,1.8-2.7,4.6-1.7,6.4c1.1,1.8,3.5,1.8,5.5,0.1c2-1.8,2.7-4.6,1.6-6.4
	C162.7,248,160.3,248,158.3,249.7"/>
<path fill="#FFDA85" d="M156.3,232c1.1,1.9,3.7,1.9,5.9,0.1c2.1-1.8,2.9-4.9,1.8-6.9c-1.1-1.9-3.7-2-5.9-0.1
	C155.9,227,155.1,230.1,156.3,232"/>
<path fill="#FFDA85" d="M162.1,207.8c2-1.8,2.9-4.9,1.7-6.9c-1.1-1.9-3.7-1.9-5.8-0.1c-2.1,1.8-3,4.9-1.8,6.9
	C157.3,209.6,159.9,209.6,162.1,207.8"/>
<path fill="#FFDA85" d="M164,176.3c-1.2-2-4-2.1-6.3-0.1s-3.1,5.3-1.9,7.4c1.2,2,4,2,6.3,0.1C164.4,181.6,165.2,178.4,164,176.3"/>
<path fill="#FFDA85" d="M181.8,417.5c0.5,0.8,1.6,0.8,2.5,0c0.9-0.8,1.3-2.1,0.8-3c-0.5-0.8-1.6-0.8-2.5-0.1
	C181.7,415.3,181.3,416.7,181.8,417.5"/>
<path fill="#FFDA85" d="M181.5,393.4c0.6,1,1.9,1,3,0.1c1.1-0.9,1.5-2.5,0.9-3.5c-0.6-1-1.9-0.9-3,0
	C181.3,390.9,180.9,392.5,181.5,393.4"/>
<path fill="#FFDA85" d="M181.1,369.4c0.6,1.1,2.2,1.1,3.4,0.1c1.2-1.1,1.6-2.9,1-4c-0.6-1.1-2.2-1.1-3.4-0.1
	C180.8,366.5,180.4,368.2,181.1,369.4"/>
<path fill="#FFDA85" d="M181.8,340.8c-1.4,1.3-1.8,3.2-1.1,4.4c0.8,1.3,2.4,1.3,3.8,0.1c1.3-1.2,1.9-3.2,1.1-4.5
	C184.9,339.6,183.2,339.6,181.8,340.8"/>
<path fill="#FFDA85" d="M181.6,291.9c-1.6,1.4-2.1,3.6-1.3,4.9c0.8,1.4,2.7,1.5,4.2,0.1c1.5-1.3,2.1-3.6,1.3-5
	C184.9,290.5,183,290.5,181.6,291.9"/>
<path fill="#FFDA85" d="M181.3,267.4c-1.7,1.5-2.3,4-1.4,5.5c0.9,1.6,3,1.6,4.7,0.1c1.7-1.5,2.3-4,1.4-5.4
	C185,265.9,183,265.9,181.3,267.4"/>
<path fill="#FFDA85" d="M181.1,242.8c-1.8,1.6-2.5,4.2-1.6,5.9c1,1.7,3.2,1.8,5.1,0.1c1.8-1.6,2.5-4.3,1.5-6
	C185.2,241.2,182.9,241.2,181.1,242.8"/>
<path fill="#FFDA85" d="M179.2,224.6c1.1,1.8,3.5,1.8,5.4,0.1c1.9-1.7,2.7-4.6,1.6-6.4c-1.1-1.8-3.5-1.8-5.4-0.1
	C178.9,220,178.2,222.9,179.2,224.6"/>
<path fill="#FFDA85" d="M184.7,200.6c2.1-1.8,2.9-4.9,1.8-6.9c-1.1-1.9-3.7-1.9-5.9-0.1c-2.1,1.9-2.9,4.9-1.8,6.9
	C179.9,202.4,182.5,202.5,184.7,200.6"/>
<path fill="#FFDA85" d="M184.7,176.6c2.3-2,3.1-5.3,1.9-7.3s-4-2.1-6.3-0.1c-2.3,2-3.1,5.3-1.9,7.4
	C179.6,178.5,182.5,178.5,184.7,176.6"/>
<path fill="#FFDA85" d="M204.4,386c0.5,0.8,1.6,0.8,2.5,0.1c0.9-0.8,1.3-2.2,0.8-3c-0.5-0.8-1.6-0.8-2.5,0
	C204.2,383.9,203.9,385.2,204.4,386"/>
<path fill="#FFDA85" d="M203.9,362c0.6,1,1.9,0.9,3,0c1.1-1,1.5-2.5,0.9-3.5c-0.6-1-1.9-1-3-0.1C203.8,359.4,203.4,361,203.9,362"/>
<path fill="#FFFFFF" d="M213.3,337c0.6,1.1,2.2,1.1,3.4,0.1c1.3-1.1,1.7-2.9,1.1-4s-2.1-1.1-3.4,0C213.1,334.1,212.7,336,213.3,337"
	/>
<path fill="#FFDA85" d="M204.2,284.7c-1.6,1.3-2.1,3.6-1.3,4.9c0.8,1.4,2.8,1.4,4.2,0.1c1.6-1.3,2.1-3.6,1.3-5
	C207.5,283.5,205.6,283.4,204.2,284.7"/>
<path fill="#FFDA85" d="M203.9,260.2c-1.7,1.5-2.3,4-1.4,5.5c0.9,1.5,3,1.6,4.7,0.1c1.7-1.5,2.3-4,1.4-5.4
	C207.7,258.8,205.6,258.7,203.9,260.2"/>
<path fill="#FFDA85" d="M203.7,235.7c-1.8,1.6-2.5,4.3-1.6,5.9c1,1.7,3.3,1.7,5.1,0.1c1.8-1.6,2.5-4.3,1.6-6
	C207.8,234,205.5,234,203.7,235.7"/>
<path fill="#FFDA85" d="M203.4,211.1c-2,1.8-2.7,4.6-1.6,6.4s3.5,1.8,5.4,0.1c2-1.8,2.7-4.6,1.6-6.4
	C207.8,209.4,205.4,209.4,203.4,211.1"/>
<path fill="#FFDA85" d="M201.4,193.4c1.1,1.9,3.7,1.9,5.9,0.1c2-1.8,2.9-4.9,1.8-6.9c-1.1-1.9-3.8-1.9-5.9-0.1
	C201.1,188.4,200.3,191.5,201.4,193.4"/>
<path fill="#FFDA85" d="M207.2,169.1c2.1-1.8,2.9-4.9,1.8-6.9c-1.1-1.9-3.7-2-5.9-0.1c-2.1,1.8-2.9,4.9-1.8,6.9
	C202.5,171,205.1,171,207.2,169.1"/>
<path fill="#FFDA85" d="M227,378.9c0.5,0.8,1.6,0.8,2.5,0.1c0.9-0.8,1.3-2.1,0.8-3c-0.5-0.8-1.6-0.8-2.5-0.1
	C226.8,376.7,226.5,378.1,227,378.9"/>
<path fill="#FFDA85" d="M226.6,354.8c0.6,1,1.9,1,3,0.1s1.5-2.5,0.8-3.5c-0.6-1-1.9-1-3-0.1C226.4,352.3,226,353.9,226.6,354.8"/>
<path fill="#FFDA85" d="M226.8,277.6c-1.6,1.3-2.1,3.6-1.3,5c0.8,1.4,2.7,1.4,4.2,0.1c1.6-1.3,2.1-3.6,1.3-4.9
	C230.1,276.3,228.3,276.3,226.8,277.6"/>
<path fill="#FFDA85" d="M226.7,253.3c-1.5,1.3-2.1,3.6-1.3,4.9c0.8,1.3,2.8,1.4,4.2,0.1c1.6-1.4,2.1-3.6,1.3-4.9
	C230.1,252,228.2,252,226.7,253.3"/>
<path fill="#FFDA85" d="M226.4,228.7c-1.7,1.5-2.3,4-1.4,5.4c0.9,1.5,3,1.6,4.7,0.1c1.7-1.5,2.3-4,1.4-5.5
	C230.2,227.3,228.1,227.3,226.4,228.7"/>
<path fill="#FFDA85" d="M226.2,204.2c-1.8,1.6-2.5,4.3-1.5,5.9c1,1.7,3.2,1.7,5.1,0.1c1.8-1.6,2.5-4.3,1.6-5.9
	C230.3,202.6,228,202.5,226.2,204.2"/>
<path fill="#FFDA85" d="M226,179.7c-2,1.8-2.7,4.6-1.6,6.4c1.1,1.8,3.5,1.8,5.4,0.1c2-1.8,2.7-4.6,1.6-6.4
	C230.4,177.9,228,177.9,226,179.7"/>
<path fill="#FFDA85" d="M249.9,395.9c0.4,0.7,1.4,0.8,2.2,0.1c0.8-0.7,1.1-1.9,0.7-2.6c-0.4-0.7-1.4-0.8-2.3,0
	C249.8,394,249.5,395.1,249.9,395.9"/>
<path fill="#FFDA85" d="M249.6,371.8c0.5,0.8,1.6,0.8,2.5,0c0.9-0.8,1.3-2.2,0.8-3c-0.5-0.8-1.6-0.8-2.5,0
	C249.4,369.6,249.1,371,249.6,371.8"/>
<path fill="#FFDA85" d="M249.5,347.5c0.5,0.8,1.6,0.8,2.5,0.1c0.9-0.8,1.3-2.2,0.8-3c-0.5-0.8-1.6-0.8-2.6,0
	C249.4,345.3,249,346.6,249.5,347.5"/>
<path fill="#FFDA85" d="M249.5,270.8c-1.3,1.2-1.9,3.2-1.1,4.4c0.7,1.3,2.5,1.3,3.8,0.1c1.3-1.2,1.9-3.2,1.1-4.4
	C252.6,269.6,250.9,269.6,249.5,270.8"/>
<path fill="#FFDA85" d="M249.3,246.2c-1.5,1.3-2.1,3.6-1.3,4.9c0.8,1.3,2.8,1.4,4.2,0.1c1.6-1.3,2.1-3.6,1.3-4.9
	C252.7,244.8,250.8,244.8,249.3,246.2"/>
<path fill="#FFDA85" d="M249.1,221.6c-1.7,1.5-2.3,4-1.4,5.5c0.9,1.6,3,1.6,4.7,0.1c1.7-1.5,2.3-4,1.4-5.5
	C252.8,220.1,250.7,220.1,249.1,221.6"/>
<path fill="#FFDA85" d="M272.8,388.6c0.4,0.6,1.1,0.6,1.8,0c0.6-0.6,0.9-1.5,0.6-2.1c-0.4-0.6-1.2-0.6-1.8,0
	C272.7,387,272.4,387.9,272.8,388.6"/>
<path fill="#FFDA85" d="M272.4,364.4c0.4,0.7,1.4,0.8,2.2,0.1c0.8-0.7,1.1-1.9,0.7-2.6c-0.4-0.7-1.4-0.7-2.2,0
	C272.3,362.6,272,363.7,272.4,364.4"/>
<path fill="#FFDA85" d="M271.4,292.2c0.6,1.1,2.2,1.1,3.4,0.1c1.2-1.1,1.7-2.9,1.1-4c-0.6-1.1-2.2-1.1-3.4-0.1
	C271.2,289.3,270.8,291,271.4,292.2"/>
<path fill="#FFDA85" d="M272.2,263.6c-1.3,1.2-1.9,3.2-1.1,4.4c0.7,1.3,2.5,1.3,3.8,0.1c1.3-1.2,1.9-3.2,1.1-4.5
	C275.2,262.4,273.5,262.4,272.2,263.6"/>
<path fill="#FFDA85" d="M272,239.3c-1.3,1.2-1.9,3.2-1.1,4.4c0.7,1.3,2.5,1.3,3.8,0.1c1.4-1.3,1.9-3.2,1.1-4.5
	C275.1,238.1,273.4,238.1,272,239.3"/>
<path fill="#FFDA85" d="M271.8,214.8c-1.5,1.3-2.1,3.5-1.3,4.9c0.8,1.4,2.8,1.4,4.2,0.1c1.6-1.4,2.1-3.6,1.3-5
	C275.2,213.4,273.4,213.3,271.8,214.8"/>
<path fill="#FFDA85" d="M295.4,381.4c0.4,0.6,1.1,0.6,1.8,0c0.6-0.6,0.9-1.5,0.6-2.1c-0.4-0.6-1.1-0.6-1.8,0
	C295.3,379.9,295,380.8,295.4,381.4"/>
<path fill="#FFDA85" d="M295,357.3c0.4,0.7,1.4,0.8,2.2,0.1c0.8-0.7,1.1-1.9,0.7-2.6c-0.4-0.7-1.4-0.8-2.3,0
	C294.9,355.4,294.6,356.6,295,357.3"/>
<path fill="#FFFFFF" d="M304.7,332.1c0.4,0.7,1.4,0.8,2.2,0.1c0.8-0.7,1.1-1.9,0.7-2.6s-1.4-0.7-2.3,0
	C304.5,330.2,304.2,331.4,304.7,332.1"/>
<path fill="#FFDA85" d="M294.3,284.8c0.6,1,1.9,1,3,0.1c1.1-0.9,1.5-2.5,0.8-3.5c-0.6-1-1.9-1-3-0.1
	C294.1,282.3,293.7,283.8,294.3,284.8"/>
<path fill="#FFDA85" d="M293.9,260.7c0.6,1.1,2.2,1.1,3.4,0.1c1.2-1.1,1.7-2.9,1.1-4c-0.6-1.1-2.2-1.1-3.4,0
	C293.7,257.8,293.2,259.6,293.9,260.7"/>
<path fill="#FFDA85" d="M294.7,232.2c-1.3,1.2-1.8,3.2-1.1,4.4c0.8,1.3,2.5,1.3,3.8,0.1s1.9-3.2,1.1-4.4
	C297.8,231,296,230.9,294.7,232.2"/>
<path fill="#FFDA85" d="M317.9,349.9c0.4,0.6,1.1,0.6,1.8,0s0.9-1.5,0.6-2s-1.1-0.6-1.8,0C317.9,348.4,317.6,349.4,317.9,349.9"/>
<path fill="#FFDA85" d="M316.9,277.6c0.6,1,1.9,1,3,0.1c1.1-0.9,1.5-2.5,0.8-3.5c-0.6-0.9-1.9-1-3,0
	C316.7,275.1,316.3,276.7,316.9,277.6"/>
<path fill="#FFDA85" d="M316.5,253.6c0.6,1.1,2.2,1.1,3.4,0c1.2-1.1,1.7-2.9,1.1-4c-0.6-1.1-2.2-1.1-3.4-0.1
	C316.3,250.7,315.9,252.5,316.5,253.6"/>
<path fill="#FFDA85" d="M317.3,225c-1.3,1.2-1.8,3.2-1.1,4.4c0.7,1.3,2.4,1.3,3.8,0.1c1.3-1.2,1.9-3.2,1.1-4.4
	C320.4,223.9,318.6,223.8,317.3,225"/>
<path fill="#FFDA85" d="M340.1,294.4c0.4,0.7,1.4,0.7,2.2,0c0.8-0.7,1.1-1.8,0.6-2.5c-0.4-0.8-1.4-0.8-2.2-0.1
	S339.7,293.6,340.1,294.4"/>
<path fill="#FFDA85" d="M363.8,359.5c0.2,0.4,0.6,0.4,0.9,0.1c0.4-0.3,0.5-0.8,0.3-1.1c-0.1-0.3-0.6-0.3-0.9,0
	C363.8,358.7,363.7,359.2,363.8,359.5"/>
<path fill="#FFDA85" d="M362.7,287.3c0.4,0.7,1.4,0.8,2.2,0c0.8-0.7,1.1-1.8,0.6-2.5s-1.4-0.8-2.2-0.1
	C362.6,285.4,362.3,286.5,362.7,287.3"/>
<path fill="#512C1D" d="M342.6,309c0-5.6-4.7-10-10.5-10c-0.4,0-0.9,0.1-1.3,0.1c0.1-2.3,0.2-4.5,0.2-6.8c0-2.7-0.1-5.3-0.3-8
	c0.6,0.1,1.3,0.2,1.9,0.2c5.8,0,10.5-4.5,10.5-10c0-4.4-2.9-8.1-6.9-9.5c2.3-1.8,3.7-4.6,3.7-7.6c0-4.2-2.7-7.8-6.4-9.3
	c1.1-1.6,1.8-3.6,1.8-5.7c0-5.5-4.6-10-10.2-10c0.8-1.5,1.4-3.1,1.4-4.9c0-5.4-4.4-9.7-9.9-10c0.6-1.3,1-2.7,1-4.2
	c0-5.6-4.7-10-10.5-10c-0.7,0-1.5,0.1-2.1,0.2c0.4-1.1,0.6-2.2,0.6-3.5c0-5.6-4.7-10-10.5-10c-0.6,0-1.2,0.1-1.8,0.2
	c0.1-0.6,0.2-1.2,0.2-1.8c0-5.6-4.7-10-10.5-10c-1.6,0-3.2,0.4-4.6,1.1c-0.4-5.3-4.8-9.5-10.4-9.5c-2.4,0-4.6,0.8-6.4,2.1
	c0-0.1,0-0.1,0-0.2c0-5.6-4.7-10-10.5-10c-2.3,0-4.4,0.7-6.1,1.9c-0.9-4.6-5.2-8.1-10.2-8.1c-2.8,0-5.4,1.1-7.3,2.8
	c-1.4-3.9-5.3-6.7-9.8-6.7c-4.1,0-7.6,2.3-9.3,5.5c-1.7-3.2-5.2-5.5-9.3-5.5c-4.5,0-8.3,2.8-9.8,6.6c-1.8-3-5.2-5.2-9-5.2
	c-4.4,0-8.1,2.6-9.7,6.3c-1.8-1.6-4.2-2.5-6.9-2.5c-4.7,0-8.5,3-9.9,7.1c-1.8-1.3-4-2.2-6.4-2.2c-5.8,0-10.5,4.5-10.5,10
	c0,0.1,0.1,0.3,0.1,0.4c-1.8-1.3-4-2.1-6.4-2.1c-5.8,0-10.5,4.5-10.5,10c0,0.4,0.1,0.8,0.1,1.2c-1.4-0.7-3-1.2-4.8-1.2
	c-5.6,0-10.2,4.2-10.4,9.6c-0.6-0.1-1.3-0.2-2-0.2c-5.8,0-10.5,4.5-10.5,10c0,1.3,0.3,2.7,0.8,3.8c-0.6-0.1-1.3-0.2-2-0.2
	c-5.8,0-10.5,4.5-10.5,10c0,1.1,0.2,2.2,0.6,3.2c-0.2,0-0.4-0.1-0.6-0.1c-5.8,0-10.5,4.5-10.5,10c0,2,0.6,3.9,1.7,5.4
	c-4.9,0.8-8.7,4.9-8.7,9.9c0,2.5,0.9,4.7,2.5,6.4c-4,1.4-6.9,5.1-6.9,9.4c0,3.5,1.8,6.4,4.5,8.3c-4.2,1.3-7.3,5.1-7.3,9.5
	c0,5.6,4.7,10,10.5,10c0.5,0,0.9-0.1,1.4-0.1c-0.1,2.3-0.2,4.7-0.2,7c0,2.6,0.1,5.2,0.3,7.7c-0.6-0.1-1.3-0.2-2-0.2
	c-5.8,0-10.5,4.5-10.5,10c0,4.4,2.9,8.1,6.9,9.5c-2.3,1.8-3.7,4.6-3.7,7.6c0,4.2,2.7,7.8,6.4,9.3c-1.1,1.6-1.8,3.6-1.8,5.7
	c0,5.5,4.6,10,10.2,10c-0.8,1.5-1.4,3.1-1.4,4.9c0,5.4,4.4,9.7,9.9,10c-0.6,1.3-1,2.7-1,4.2c0,5.6,4.7,10,10.5,10
	c0.7,0,1.5-0.1,2.1-0.2c-0.4,1.1-0.6,2.2-0.6,3.5c0,5.6,4.7,10,10.5,10c0.6,0,1.2-0.1,1.8-0.1c-0.1,0.6-0.2,1.2-0.2,1.8
	c0,5.6,4.7,10,10.5,10c1.6,0,3.2-0.4,4.6-1.1c0.4,5.3,4.8,9.5,10.4,9.5c2.4,0,4.6-0.8,6.4-2.1c0,0.1,0,0.1,0,0.2
	c0,5.6,4.7,10,10.5,10c2.3,0,4.4-0.7,6.1-1.9c0.9,4.6,5.2,8.1,10.2,8.1c2.8,0,5.4-1.1,7.3-2.8c1.4,3.9,5.3,6.7,9.8,6.7
	c4.1,0,7.6-2.3,9.3-5.5c1.7,3.2,5.2,5.5,9.3,5.5c4.5,0,8.3-2.8,9.8-6.6c1.8,3,5.2,5.2,9,5.2c4.4,0,8.1-2.6,9.7-6.3
	c1.8,1.6,4.2,2.5,6.9,2.5c4.7,0,8.6-3,9.9-7.1c1.8,1.3,4,2.2,6.4,2.2c5.8,0,10.5-4.5,10.5-10c0-0.1-0.1-0.3-0.1-0.4
	c1.8,1.3,4,2.1,6.4,2.1c5.8,0,10.5-4.5,10.5-10c0-0.4-0.1-0.8-0.1-1.2c1.4,0.7,3,1.2,4.8,1.2c5.6,0,10.2-4.2,10.4-9.6
	c0.6,0.1,1.3,0.2,2,0.2c5.8,0,10.5-4.5,10.5-10c0-1.3-0.3-2.7-0.8-3.8c0.6,0.1,1.3,0.2,2,0.2c5.8,0,10.5-4.5,10.5-10
	c0-1.1-0.2-2.2-0.6-3.2c0.2,0,0.4,0.1,0.6,0.1c5.8,0,10.5-4.5,10.5-10c0-2-0.6-3.9-1.7-5.4c4.9-0.8,8.7-4.9,8.7-9.9
	c0-2.5-0.9-4.7-2.5-6.4c4-1.4,6.9-5.1,6.9-9.4c0-3.5-1.8-6.4-4.5-8.3C339.5,317.3,342.6,313.6,342.6,309"/>
<path fill="#ED1C24" d="M199.6,410.6c-67.7,0-122.7-53-122.7-118.2S132,174.1,199.6,174.1c67.7,0,122.7,53,122.7,118.2
	S267.4,410.6,199.6,410.6"/>
<path fill="#FFF200" d="M199.6,398.6c-60.8,0-110.2-47.6-110.2-106.2s49.4-106.2,110.2-106.2s110.2,47.6,110.2,106.2
	C309.9,350.9,260.4,398.6,199.6,398.6"/>
<path fill="#FFFFFF" d="M199.6,386.5c-53.9,0-97.7-42.2-97.7-94.1s43.9-94.1,97.7-94.1s97.7,42.2,97.7,94.1S253.5,386.5,199.6,386.5
	"/>
<path fill="#ED1C24" d="M291.1,292.4c0,48.7-41,88.1-91.5,88.1s-91.5-39.4-91.5-88.1c0-48.7,41-88.1,91.5-88.1
	C250.2,204.3,291.1,243.7,291.1,292.4"/>
<path fill="#FFF200" d="M279.8,226.4c-4.3,0-8.4,1.1-12,2.9v-12.2h-23.2v12.9c-3.3-1.3-6.5-1.8-8.7-1.9c-0.8-0.1-1.6-0.1-2.4-0.1
	c-7,0-13.1,2.1-17.9,6.1c-3.8-3.6-9.3-6.1-16.2-6.1h-0.4c-8,0-13.8,2.4-17.7,5.9c-4.7-4.6-11.2-7.4-18.3-7.4
	c-4.9,0-9.4,1.3-13.3,3.7c-1.3-2.9-3-5.4-5.4-7.6c-4-3.7-9.3-5.9-14.3-5.9c-0.2,0-0.4,0-0.7,0c-1.1,0.1-2.8,0.1-4.6,0.1
	c-3.7,0-8-0.1-8.1-0.1l-9.5-0.2v0.3h-2.5V279h23.2v-17.2h2.6h0.6l0.5-0.1c2-0.2,4.1-0.7,6-1.5c3.2,11,13.3,19.1,25.4,19.1
	c1.6,0,3-0.1,4.5-0.4h6.8h15h8.2v-28.5c0.4-0.1,0.8-0.1,1.3-0.1V279h23.2v-2.7c3.3,1.5,6.9,2.3,10.7,2.3h0.1l0,0
	c4.5,0,8.4-1.1,11.7-2.6v3h23.2v-2.5c3.6,1.8,7.7,2.9,12,2.9c1.6,0,3-0.1,4.5-0.4h21.8v-23.2c0.1-1,0.1-2,0.1-2.9
	C306.2,238.3,294.3,226.4,279.8,226.4 M282.8,254.1c-0.4,1.6-1.7,2.9-3.1,2.9c-1.8,0-3.2-1.9-3.2-4.1s1.6-4.1,3.2-4.1
	c1.3,0,2.7,1.2,3.1,2.9V254.1z M166.2,254.1c-0.4,1.6-1.7,2.9-3.1,2.9c-1.8,0-3.2-1.9-3.2-4.1s1.6-4.1,3.2-4.1
	c1.3,0,2.7,1.2,3.1,2.9V254.1z M127.9,239.4v-0.5c0.1,0,0.4,0,0.5,0c0,0.1,0.1,0.3,0.1,0.5H127.9z"/>
<polygon fill="#FFF200" points="9.8,360.7 35.1,319.8 9.8,278.8 392.7,278.8 363.3,320.4 393,360.7 "/>
<polygon fill="#512C1D" points="20.8,284.9 380.9,284.9 355.6,320.5 380.9,354.7 20.8,354.7 42.3,319.8 "/>
<line fill="none" stroke="#FFFFFF" stroke-width="0.864" stroke-miterlimit="1" stroke-dasharray="2.4,2.4" x1="369.3" y1="292.3" x2="30.6" y2="292.3"/>
<line fill="none" stroke="#FFFFFF" stroke-width="0.864" stroke-miterlimit="1" stroke-dasharray="2.4,2.4" x1="369.3" y1="349.5" x2="30.6" y2="349.5"/>
<path fill="#512C1D" d="M163.1,235.5c-9.4,0-17,7.8-17,17.4c0,9.6,7.6,17.4,17,17.4c4.9,0,9.3-2.1,12.5-5.6v5.2h4.4v-14.6
	c0.1-0.8,0.1-1.6,0.1-2.3C180.1,243.2,172.5,235.5,163.1,235.5 M163.1,266c-7,0-12.6-5.9-12.6-13.1c0-7.3,5.7-13.1,12.6-13.1
	c6.3,0,11.5,4.8,12.5,11.1v4.2C174.6,261.2,169.4,266,163.1,266z"/>
<path fill="#512C1D" d="M296.8,252.8c0-9.6-7.6-17.4-17.1-17.4c-9.4,0-17,7.8-17,17.4c0,9.6,7.6,17.4,17,17.4
	c4.9,0,9.3-2.1,12.5-5.6v5.2h4.4v-14.6C296.7,254.5,296.8,253.7,296.8,252.8 M279.8,266c-7,0-12.6-5.9-12.6-13.1
	c0-7.3,5.7-13.1,12.6-13.1c6.3,0,11.5,4.8,12.5,11.1v4.2C291.3,261.2,286.1,266,279.8,266z"/>
<path fill="#512C1D" d="M199.4,237L199.4,237c-0.1,0-0.2,0-0.3,0c-15,0-15.3,11.2-15.3,11.3v21.5h4.4v-21.5c0-0.7,0.4-7.2,11.2-7.1
	c8,0,8.9,6.3,9,6.8v21.8h4.4v-22C212.4,244.1,209.2,237,199.4,237"/>
<path fill="#512C1D" d="M249.4,254.2l-0.1-2.2c-0.1-3.9-0.5-14.1-14.1-15c-5.5-0.4-10.2,1-13.6,4c-3.2,2.8-5.2,7.1-5.2,11.7
	c-0.1,4.4,1.8,9,5.1,12.3c3,3,6.9,4.5,11.3,4.5l0,0c12.1,0,16.1-10.7,16.3-11.1L245,257c0,0.1-3.2,8.3-12.1,8.3l0,0
	c-4,0-6.6-1.8-8.2-3.2c-2-2-3.4-4.7-3.7-7.5H247L249.4,254.2z M221.2,250.2c0.6-2.4,1.8-4.5,3.5-6.1c2.5-2.2,5.9-3.1,10.2-2.8
	c7.6,0.5,9.3,4.5,9.8,8.9H221.2z"/>
<rect x="254" y="226.1" fill="#512C1D" width="4.4" height="43.7"/>
<path fill="#512C1D" d="M129.8,225.6c-3.3,0.1-13.3,0-13.4,0v0.1h-2.3v44.2h4.4v-17.2h12h0.1c4-0.4,11.7-3.7,11.6-13.2
	c0-5.4-2.4-8.7-4.4-10.5C135.5,226.8,132.4,225.5,129.8,225.6 M130.3,248.4h-11.7v-18.6c3.2,0,8.9,0.1,11.4,0c1.2,0,3.2,0.6,4.9,2.2
	c1.4,1.3,3,3.6,3,7.5C137.8,247,131.4,248.3,130.3,248.4z"/>
<path fill="#FFFFFF" d="M312.7,324c0-8.4-7-15.2-15.5-15.2c-8.5,0-15.5,6.9-15.5,15.2c0,8.4,7,15.2,15.5,15.2c3.7,0,7.1-1.3,9.8-3.5
	v2.3h5.5v-12C312.6,325.4,312.7,324.7,312.7,324 M297.2,333.9c-5.5,0-10-4.4-10-9.9c0-5.4,4.4-9.9,10-9.9c5,0,9.1,3.7,9.8,8.4v2.9
	C306.3,330.2,302.2,333.9,297.2,333.9z"/>
<path fill="#FFFFFF" d="M199.5,324c0-8.4-7-15.2-15.5-15.2s-15.5,6.9-15.5,15.2c0,8.4,7,15.2,15.5,15.2c3.7,0,7.1-1.3,9.8-3.5v2.3
	h5.5v-12C199.4,325.4,199.5,324.7,199.5,324 M184,333.9c-5.5,0-10-4.4-10-9.9c0-5.4,4.4-9.9,10-9.9c5,0,9.1,3.7,9.8,8.4v2.9
	C193.1,330.2,189,333.9,184,333.9z"/>
<path fill="#FFFFFF" d="M131.7,339.2c-3.9,0-7.4-1.4-10.2-4.1c-3-3-4.9-7.3-4.7-11.6c0.1-4.4,1.9-8.4,4.9-11.1
	c3-2.7,7.3-3.9,12.1-3.5c12.4,0.8,12.7,10.8,12.9,14.1l0.1,2.8l-2.8,0.1h-21.5c0.4,2,1.5,4.1,3,5.5c1.7,1.7,3.9,2.5,6.3,2.5
	c7,0,9.5-6.6,9.6-6.9l5.2,1.8C146.4,329.2,142.6,339.2,131.7,339.2L131.7,339.2z M122.7,320.6h18.2c-0.5-3.4-2-6-7.6-6.4
	c-3.4-0.2-6.1,0.5-8.1,2.2C124.1,317.4,123.2,318.9,122.7,320.6z"/>
<path fill="#FFFFFF" d="M110.3,318.4c2.1-1.6,3.7-4,3.7-7.5c0-2.8-1.1-5.3-3.2-7.2c-2.6-2.4-5.9-3.2-7.9-3.1c-1.7,0.1-5.4,0.1-8,0
	l0,0h-2.4c-0.2,0-0.4,0-0.4,0l0,0h-2.8V338h2.8H95h8.7h0.1c3.5-0.4,10.2-3.1,10.2-10.9c0-4.2-2-6.9-3.6-8.4
	C110.4,318.6,110.4,318.5,110.3,318.4 M103.2,305.9c0.8-0.1,2.6,0.5,3.9,1.6c1,0.9,1.5,2,1.5,3.4c0,3.7-4.3,4.4-5.2,4.6H95v-9.6
	C97.6,306,101.4,306,103.2,305.9z M103.4,332.6H95v-11.7c2.6,0,6.4,0.1,8.2,0c0.6,0,2.1,0.4,3.4,1.6s1.9,2.8,1.9,4.6
	C108.5,331.6,104.4,332.5,103.4,332.6z"/>
<rect x="150" y="300.9" fill="#FFFFFF" width="5.5" height="37.1"/>
<rect x="160" y="300.9" fill="#FFFFFF" width="5.5" height="37.1"/>
<polygon fill="#FFFFFF" points="215.4,341.6 196.7,302.1 201.7,299.9 215.2,328.5 228.1,299.9 233.2,302 "/>
<rect x="237.3" y="300.9" fill="#FFFFFF" width="5.5" height="6.2"/>
<rect x="237.3" y="309.3" fill="#FFFFFF" width="5.5" height="28"/>
<path fill="#FFFFFF" d="M254.6,338.4c-1.8,0-3.5-0.4-4.8-0.9c-4.4-1.9-4.2-6.2-4.2-8.1v-0.6h5.5c0,0.2,0,0.5,0,0.7
	c-0.1,2.1,0.1,2.8,0.9,3.1c1.3,0.6,4.2,0.7,5.8-0.4c0.6-0.4,1.1-0.8,1.1-2.2c-0.1-3.1-1.8-4-5.8-5.5c-0.8-0.4-1.7-0.7-2.5-1.1
	c-3.6-1.6-5.7-5.7-4.7-9.3c0.7-2.8,3.4-5.7,8.9-5.4c8.4,0.4,10.7,5.2,10.7,7.6h-5.5h2.8l-2.8,0.1c-0.1-0.8-1.3-2.3-5.4-2.5
	c-1.1-0.1-3,0.1-3.3,1.4c-0.3,1.1,0.4,2.5,1.7,3.2c0.8,0.4,1.6,0.6,2.3,1c4,1.6,9,3.6,9.2,10.3c0.1,2.8-1.2,5.2-3.5,6.7
	C259.1,337.9,256.8,338.4,254.6,338.4"/>
<path fill="#FFFFFF" d="M274.4,330.7c-0.9-1-0.8-2.1-0.8-2.1v-13.8h6.9v-5.3h-6.8V301H268v27.2c-0.1,0.8-0.1,3.5,2.1,6
	c2.1,2.3,5.5,3.6,10.1,3.7l0.1-5.3C277.5,332.4,275.4,331.8,274.4,330.7"/>
<polygon fill="#ED1C24" points="150.5,378 154.5,376 153.8,380.3 157,383.3 152.5,383.9 150.5,387.9 148.6,383.9 144,383.3 
	147.3,380.3 146.5,376 "/>
<polygon fill="#ED1C24" points="171.2,385.7 175.2,383.7 174.4,388 177.7,391 173.1,391.7 171.2,395.6 169.2,391.7 164.7,391 
	167.9,388 167.1,383.7 "/>
<polygon fill="#ED1C24" points="198.7,388.7 202.7,386.7 202,391 205.2,394 200.8,394.6 198.7,398.6 196.7,394.6 192.3,394 
	195.5,391 194.8,386.7 "/>
<polygon fill="#ED1C24" points="226.3,386.2 230.3,384.3 229.5,388.6 232.8,391.5 228.3,392.2 226.3,396.1 224.3,392.2 219.8,391.5 
	223.1,388.6 222.3,384.3 "/>
<polygon fill="#ED1C24" points="245,379.8 249.1,377.8 248.3,382.1 251.5,385.1 247.1,385.7 245,389.6 243.1,385.7 238.6,385.1 
	241.9,382.1 241.1,377.8 "/>
</svg>
