<?xml version="1.0" encoding="utf-8"?>
<!-- Generator: Adobe Illustrator 18.1.1, SVG Export Plug-In . SVG Version: 6.00 Build 0)  -->
<svg version="1.1" baseProfile="tiny" id="Capa_1" xmlns="http://www.w3.org/2000/svg" xmlns:xlink="http://www.w3.org/1999/xlink"
	 x="0px" y="0px" viewBox="0 0 144.8 203.8" xml:space="preserve">
<path fill="#FFF200" d="M11.4,203.8h133.3V0H11.4C5.1,0,0,5.1,0,11.4v181C0,198.7,5.1,203.8,11.4,203.8z"/>
<g>
	<path fill="#512C1D" d="M122.9,47.2c-4.1-0.2-73.8,0-73.8,0L47.6,36l-20.5-6.6c0,0-3.2,2.5-2.3,7.3c6.8,2,15.6,4.9,15.6,4.9l7.5,54
		c0,0,0.3,4.3,4.7,4.5c4.4,0.2,65.1,0,65.1,0s3.9-0.8,3.9-3.9c0-3-3.5-4-3.5-4l-62.7,0.1l-0.5-4.9l66.6-9.7c0,0,2.2-0.4,2.6-3.1
		c0.4-2.7,1.8-24.1,1.8-24.1S127,47.4,122.9,47.2z M50.1,55.1h18.2l1.3,11l-17.8,1.8L50.1,55.1z M53.4,80.1l-1.3-9.7l18.1-2l1.3,9.1
		L53.4,80.1z M72,55.1h19.3l1.4,8.4l-19.5,2.1L72,55.1z M74.7,76.8l-1.2-8.9l19.8-2.3l1,8.7L74.7,76.8z M116.8,71.2l-19,2.7
		l-1.2-8.7l20.7-2.2L116.8,71.2z M117.9,60.7L96.2,63l-0.9-7.8h22.6V60.7z"/>
	<circle fill="#512C1D" cx="63.3" cy="113.4" r="7"/>
	<circle fill="#512C1D" cx="106.5" cy="113.4" r="7"/>
</g>
<text transform="matrix(1 0 0 1 20.6167 178.0822)" fill="#512C1D" font-family="'Futura-Medium'" font-size="30.5601">P</text>
<text transform="matrix(1 0 0 1 36.3594 178.0822)" fill="#512C1D" font-family="'Futura-Medium'" font-size="30.5601">e</text>
<text transform="matrix(1 0 0 1 53.2662 178.0822)" fill="#512C1D" font-family="'Futura-Medium'" font-size="30.5601">d</text>
<text transform="matrix(1 0 0 1 71.5899 178.0822)" fill="#512C1D" font-family="'Futura-Medium'" font-size="30.5601">i</text>
<text transform="matrix(1 0 0 1 79.2002 178.0822)" fill="#512C1D" font-family="'Futura-Medium'" font-size="30.5601">d</text>
<text transform="matrix(1 0 0 1 97.5245 178.0822)" fill="#512C1D" font-family="'Futura-Medium'" font-size="30.5601">o</text>
<text transform="matrix(1 0 0 1 115.8931 178.0822)" fill="#512C1D" font-family="'Futura-Medium'" font-size="30.5601">s</text>
</svg>
