<?xml version="1.0" encoding="utf-8"?>
<!-- Generator: Adobe Illustrator 18.1.1, SVG Export Plug-In . SVG Version: 6.00 Build 0)  -->
<svg version="1.1" id="Capa_1" xmlns="http://www.w3.org/2000/svg" xmlns:xlink="http://www.w3.org/1999/xlink" x="0px" y="0px"
	 viewBox="0 0 700 700" enable-background="new 0 0 700 700" xml:space="preserve">
<rect x="-2.3" fill="none" width="702.3" height="702.3"/>
<g>
	<path fill="#512C1D" d="M425.4,285.5c-10.1-10-22.7-10-32.7,0c-7.7,7.6-15.3,15.2-22.8,22.9c-2.1,2.1-3.8,2.6-6.3,1.2
		c-5-2.7-10.2-4.9-15-7.8c-22.2-13.9-40.8-31.9-57.2-52.1c-8.2-10-15.4-20.8-20.5-32.8c-1-2.4-0.8-4,1.2-6
		c7.7-7.4,15.1-15,22.6-22.6c10.5-10.5,10.5-22.9-0.1-33.5c-6-6-12-12-17.9-18c-6.2-6.2-12.3-12.4-18.5-18.5
		c-10.1-9.8-22.7-9.8-32.7,0.1c-7.7,7.6-15.1,15.4-22.9,22.8c-7.3,6.9-10.9,15.3-11.7,25.1c-0.2,2-0.2,3.9-0.2,5.9v0.1
		c0,13.8,3.6,27,8.5,39.8c11.3,30.5,28.5,57.5,49.4,82.4c28.2,33.6,61.9,60.1,101.3,79.3c17.7,8.6,36.1,15.2,56.1,16.3
		c13.8,0.8,25.7-2.7,35.3-13.4c6.6-7.3,13.9-14,20.9-21c10.3-10.4,10.3-23,0.1-33.3C450,309.9,437.7,297.7,425.4,285.5z"/>
	<path fill="#512C1D" d="M413.1,234.3l23.7-4c-3.7-21.8-14-41.5-29.6-57.2c-16.5-16.5-37.4-26.9-60.4-30.2l-3.3,23.9
		c17.8,2.5,34,10.5,46.8,23.3C402.3,202.1,410.2,217.4,413.1,234.3L413.1,234.3z"/>
	<path fill="#512C1D" d="M450.2,131.2c-27.4-27.4-62-44.7-100.3-50l-3.3,23.9c33,4.6,63,19.6,86.7,43.2c22.4,22.4,37.2,50.8,42.5,82
		l23.7-4.1C493.2,190,476.2,157.2,450.2,131.2L450.2,131.2z"/>
</g>
<g enable-background="new    ">
	<path fill="#512C1D" d="M50.6,585.3v-11.5c5.7,0,9.5-0.6,11.5-1.9c3.5-2.2,5.3-5.8,5.3-10.7c0-3.8-1.3-6.9-3.8-9.3
		c-2.5-2.4-5.8-3.6-9.8-3.6c-3.7,0-6.6,0.9-8.7,2.7c-2,1.8-3.4,5-4.4,9.4H27.3c1.4-8.4,4.2-14.5,8.5-18.4c4.3-3.9,10.3-5.9,18.1-5.9
		c7.8,0,14.2,2.3,19.1,6.9c4.9,4.6,7.4,10.5,7.4,17.7c0,8.2-3.2,14.5-9.7,19c7.4,4.3,11.1,11.4,11.1,21.2c0,8-2.7,14.5-8.1,19.6
		c-5.4,5.1-12.3,7.6-20.7,7.6c-10.7,0-18.7-3.9-23.9-11.8c-2.2-3.3-3.5-7.9-4.1-13.7h13c0.7,4.3,2.4,7.6,5.1,9.9
		c2.7,2.3,6.2,3.4,10.5,3.4c4.3,0,7.9-1.4,10.8-4.3c2.8-3,4.3-6.7,4.3-11.3c0-6-2.1-10.3-6.4-12.8C59.7,586,55.8,585.3,50.6,585.3z"
		/>
</g>
<g enable-background="new    ">
	<path fill="#512C1D" d="M122.6,614h33.2v12.6H95.9l30.9-37.5c3-3.7,5.6-7,7.6-9.7c2.1-2.7,3.6-5,4.7-6.9c2.2-3.6,3.3-6.9,3.3-9.8
		c0-4.2-1.5-7.6-4.4-10.4c-2.9-2.8-6.5-4.2-10.9-4.2c-9,0-14.2,5.3-15.5,16H98.4c2.2-18.8,11.6-28.2,28.5-28.2
		c8.1,0,14.9,2.6,20.4,7.7c5.5,5.2,8.3,11.5,8.3,19.2c0,4.8-1.3,9.6-3.9,14.3c-1.3,2.4-3.2,5.3-5.7,8.6c-2.5,3.3-5.7,7.3-9.6,11.8
		L122.6,614z"/>
</g>
<g enable-background="new    ">
	<path fill="#512C1D" d="M188,550.1h-15.4l7.4-12.6h21.5v89.1H188V550.1z"/>
</g>
<g enable-background="new    ">
	<path fill="#512C1D" d="M249.2,614h33.2v12.6h-59.9l30.9-37.5c3-3.7,5.6-7,7.6-9.7c2.1-2.7,3.6-5,4.7-6.9c2.2-3.6,3.3-6.9,3.3-9.8
		c0-4.2-1.5-7.6-4.4-10.4c-2.9-2.8-6.5-4.2-10.9-4.2c-9,0-14.2,5.3-15.5,16H225c2.2-18.8,11.6-28.2,28.5-28.2
		c8.1,0,14.9,2.6,20.4,7.7c5.5,5.2,8.3,11.5,8.3,19.2c0,4.8-1.3,9.6-3.9,14.3c-1.3,2.4-3.2,5.3-5.7,8.6c-2.5,3.3-5.7,7.3-9.6,11.8
		L249.2,614z"/>
</g>
<g enable-background="new    ">
	<path fill="#512C1D" d="M314.7,550.1h-15.4l7.4-12.6h21.5v89.1h-13.4V550.1z"/>
</g>
<g enable-background="new    ">
	<path fill="#512C1D" d="M370.4,550.1h-15.4l7.4-12.6h21.5v89.1h-13.4V550.1z"/>
</g>
<g enable-background="new    ">
	<path fill="#512C1D" d="M450.4,550.1h-44v-12.6h66.4l-56.2,92.2L406,623L450.4,550.1z"/>
</g>
<g enable-background="new    ">
	<path fill="#512C1D" d="M507.6,534.4l9.9,7.4l-21.3,29c1.2-0.2,2.1-0.3,2.9-0.3c0.8-0.1,1.4-0.1,1.9-0.1c7.2,0,13.5,2.8,18.8,8.3
		c5.2,5.5,7.8,12,7.8,19.7c0,8.2-2.9,15.2-8.8,21c-5.8,5.8-12.8,8.7-21,8.7c-8.1,0-15.2-2.9-21.2-8.6c-6-5.7-8.9-12.5-8.9-20.4
		c0-7,2.9-14.5,8.7-22.4L507.6,534.4z M514.5,599.2c0-4.7-1.6-8.7-4.9-12c-3.3-3.3-7.3-5-11.9-5c-4.7,0-8.7,1.6-11.9,4.9
		c-3.3,3.3-4.9,7.2-4.9,11.9c0,4.7,1.6,8.6,4.9,11.9c3.3,3.3,7.3,4.9,12,4.9c4.6,0,8.6-1.6,11.8-4.9
		C512.9,607.7,514.5,603.7,514.5,599.2z"/>
</g>
<g enable-background="new    ">
	<path fill="#512C1D" d="M580.6,534.4l9.9,7.4l-21.3,29c1.2-0.2,2.1-0.3,2.9-0.3c0.8-0.1,1.4-0.1,1.9-0.1c7.2,0,13.5,2.8,18.8,8.3
		c5.2,5.5,7.8,12,7.8,19.7c0,8.2-2.9,15.2-8.8,21c-5.8,5.8-12.8,8.7-21,8.7c-8.1,0-15.2-2.9-21.2-8.6c-6-5.7-8.9-12.5-8.9-20.4
		c0-7,2.9-14.5,8.7-22.4L580.6,534.4z M587.5,599.2c0-4.7-1.6-8.7-4.9-12c-3.3-3.3-7.3-5-11.9-5c-4.7,0-8.7,1.6-11.9,4.9
		c-3.3,3.3-4.9,7.2-4.9,11.9c0,4.7,1.6,8.6,4.9,11.9c3.3,3.3,7.3,4.9,12,4.9c4.6,0,8.6-1.6,11.8-4.9
		C585.8,607.7,587.5,603.7,587.5,599.2z"/>
</g>
<g enable-background="new    ">
	<path fill="#512C1D" d="M636.7,614h33.2v12.6h-59.9l30.9-37.5c3-3.7,5.6-7,7.6-9.7c2.1-2.7,3.6-5,4.7-6.9c2.2-3.6,3.3-6.9,3.3-9.8
		c0-4.2-1.5-7.6-4.4-10.4c-2.9-2.8-6.5-4.2-10.9-4.2c-9,0-14.2,5.3-15.5,16h-13.4c2.2-18.8,11.6-28.2,28.5-28.2
		c8.1,0,14.9,2.6,20.4,7.7c5.5,5.2,8.3,11.5,8.3,19.2c0,4.8-1.3,9.6-3.9,14.3c-1.3,2.4-3.2,5.3-5.7,8.6c-2.5,3.3-5.7,7.3-9.6,11.8
		L636.7,614z"/>
</g>
</svg>
