<?xml version="1.0" encoding="utf-8"?>
<!-- Generator: Adobe Illustrator 18.1.1, SVG Export Plug-In . SVG Version: 6.00 Build 0)  -->
<svg version="1.1" baseProfile="tiny" id="Capa_1" xmlns="http://www.w3.org/2000/svg" xmlns:xlink="http://www.w3.org/1999/xlink"
	 x="0px" y="0px" viewBox="0 0 300 300" xml:space="preserve">
<g>
	<path fill="#512C1D" d="M145.9,14.2c-37.7,0-68.3,30.6-68.3,68.3c0,12.9,3.6,25,9.8,35.3L75,154.2l37.6-12.1
		c9.9,5.5,21.2,8.7,33.3,8.7c37.7,0,68.3-30.6,68.3-68.3S183.6,14.2,145.9,14.2z M146,139.7c-11.7,0-22.7-3.5-31.8-9.6L92,137.5
		l7.3-21.8c-6.7-9.4-10.7-20.9-10.7-33.3C88.6,50.7,114.3,25,146,25s57.3,25.7,57.3,57.3S177.6,139.7,146,139.7z"/>
	<path fill="#512C1D" d="M123,51.7c0,0-3,0.1-5.4,3c-2.5,2.8-5.2,7.8-4.7,13.6c0.5,5.8,4.1,15.7,12.8,24.6s13.2,13.5,23.7,17.5
		c10.5,4,16.1,6.2,23,2.1c7.2-4.1,7.7-7.7,8.2-12.4c0-2.6-0.3-2.1-2.5-3.2c-2.2-1.2-11.8-5.7-11.8-5.7s-3-1.9-4.5,0.5
		c-1.6,2.5-5.4,6.7-5.4,6.7s-0.9,1.3-3.5,0.3c-2.6-1-14-5.7-22-19c-1.3-2.3-0.3-3.8-0.3-3.8l4.3-5c0,0,1.4-1.1,0.1-4.3
		c-1.6-3.6-5.3-12.9-5.3-12.9s-0.5-1.8-3-1.8C123,51.7,123,51.7,123,51.7z"/>
</g>
<text transform="matrix(1 0 0 1 2.6416 270.0107)" fill="#512C1D" font-family="'Futura-Medium'" font-size="52.9704">3</text>
<text transform="matrix(1 0 0 1 35.3344 270.0107)" fill="#512C1D" font-family="'Futura-Medium'" font-size="52.9704">2</text>
<text transform="matrix(1 0 0 1 63.5781 270.0107)" fill="#512C1D" font-family="'Futura-Medium'" font-size="52.9704">1</text>
<text transform="matrix(1 0 0 1 92.081 270.0107)" fill="#512C1D" font-family="'Futura-Medium'" font-size="52.9704">2</text>
<text transform="matrix(1 0 0 1 120.3251 270.0107)" fill="#512C1D" font-family="'Futura-Medium'" font-size="52.9704">1</text>
<text transform="matrix(1 0 0 1 145.2841 270.0107)" fill="#512C1D" font-family="'Futura-Medium'" font-size="52.9704">1</text>
<text transform="matrix(1 0 0 1 173.0625 270.0107)" fill="#512C1D" font-family="'Futura-Medium'" font-size="52.9704">7</text>
<text transform="matrix(1 0 0 1 200.3496 270.0107)" fill="#512C1D" font-family="'Futura-Medium'" font-size="52.9704">6</text>
<text transform="matrix(1 0 0 1 233.0419 270.0107)" fill="#512C1D" font-family="'Futura-Medium'" font-size="52.9704">6</text>
<text transform="matrix(1 0 0 1 265.7343 270.0107)" fill="#512C1D" font-family="'Futura-Medium'" font-size="52.9704">2</text>
<rect x="-1" fill="none" width="301" height="301"/>
</svg>
