<?xml version="1.0" encoding="utf-8"?>
<!-- Generator: Adobe Illustrator 18.1.1, SVG Export Plug-In . SVG Version: 6.00 Build 0)  -->
<svg version="1.1" baseProfile="tiny" id="Capa_1" xmlns="http://www.w3.org/2000/svg" xmlns:xlink="http://www.w3.org/1999/xlink"
	 x="0px" y="0px" viewBox="0 0 42.6 42.6" xml:space="preserve">
<g>
	<path fill="#512C1D" d="M21.6,0.2C10.3,0.2,1,9.4,1,20.8c0,3.9,1.1,7.5,3,10.7l-3.8,11l11.3-3.6c3,1.7,6.4,2.6,10.1,2.6
		c11.4,0,20.6-9.2,20.6-20.6S33,0.2,21.6,0.2z M21.7,38.1c-3.5,0-6.8-1.1-9.6-2.9l-6.7,2.2l2.2-6.6c-2-2.8-3.2-6.3-3.2-10.1
		c0-9.6,7.7-17.3,17.3-17.3S39,11.2,39,20.8S31.2,38.1,21.7,38.1z"/>
	<path fill="#512C1D" d="M14.7,11.5c0,0-0.9,0-1.6,0.9s-1.6,2.3-1.4,4.1c0.2,1.8,1.2,4.7,3.9,7.4s4,4.1,7.1,5.3
		c3.2,1.2,4.8,1.9,7,0.6c2.2-1.2,2.3-2.3,2.5-3.7c0-0.8-0.1-0.6-0.7-1c-0.7-0.4-3.6-1.7-3.6-1.7s-0.9-0.6-1.4,0.2
		c-0.5,0.7-1.6,2-1.6,2s-0.3,0.4-1.1,0.1s-4.2-1.7-6.6-5.7c-0.4-0.7-0.1-1.1-0.1-1.1l1.3-1.5c0,0,0.4-0.3,0-1.3
		c-0.5-1.1-1.6-3.9-1.6-3.9s-0.2-0.5-0.9-0.5C14.7,11.5,14.7,11.5,14.7,11.5z"/>
</g>
<rect x="0" y="0" fill="none" width="42.6" height="42.6"/>
</svg>
