<?xml version="1.0" encoding="utf-8"?>
<!-- Generator: Adobe Illustrator 18.1.1, SVG Export Plug-In . SVG Version: 6.00 Build 0)  -->
<svg version="1.1" baseProfile="tiny" id="Capa_1" xmlns="http://www.w3.org/2000/svg" xmlns:xlink="http://www.w3.org/1999/xlink"
	 x="0px" y="0px" viewBox="0 0 42.6 42.6" xml:space="preserve">
<rect x="0" y="0" fill="none" width="42.6" height="42.6"/>
<path fill="#512C1D" d="M29.3,42.4h11.3c1,0,1.8-0.8,1.8-1.8V2.1c0-1-0.8-1.8-1.8-1.8H2.1c-1,0-1.8,0.8-1.8,1.8v38.4
	c0,1,0.8,1.8,1.8,1.8h20.6V26h-5.6v-6.4h5.6c0,0,0-3,0-5s1.5-8,7.1-8c6.3-0.1,6.1,0.3,6.1,0.3l-0.1,5.7h-4.1c0,0-2.5,0.4-2.5,2.7
	s0.1,4.4,0.1,4.4h6.3l-0.7,6.4h-5.5L29.3,42.4z"/>
</svg>
