<?xml version="1.0" encoding="utf-8"?>
<!-- Generator: Adobe Illustrator 18.1.1, SVG Export Plug-In . SVG Version: 6.00 Build 0)  -->
<svg version="1.1" baseProfile="tiny" id="Capa_1" xmlns="http://www.w3.org/2000/svg" xmlns:xlink="http://www.w3.org/1999/xlink"
	 x="0px" y="0px" viewBox="0 0 42.6 42.6" xml:space="preserve">
<rect x="0" y="0" fill="none" width="42.6" height="42.6"/>
<g>
	<path fill="#512C1D" d="M36.4,19.9h-0.9V5.2c0-1.5-1.2-2.7-2.7-2.7H9.8c-1.5,0-2.7,1.2-2.7,2.7v14.7H6.2c-3.2,0-5.8,2.6-5.8,5.8
		v8.5c0,3.2,2.6,5.8,5.8,5.8h30.3c3.2,0,5.8-2.6,5.8-5.8v-8.5C42.3,22.5,39.7,19.9,36.4,19.9z M9,5.7C9,5,9.5,4.5,10.2,4.5h22.3
		c0.7,0,1.2,0.5,1.2,1.2v14.3H9V5.7z M34.8,33.4c-0.4,0.5-1.5,1.4-1.5,1.4s-0.3,0.3-0.6,0.3c-0.3,0-0.7-0.3-0.7-0.3
		s-3.5-1.7-4.3-2.1c-0.8-0.4-0.7-1.3-0.7-1.3s0-0.9,0-1.7c0-0.8,0-0.9-1.3-1.3c-2.2-0.7-4.5-0.6-4.5-0.6c-2.5,0-5.5,0.9-5.5,0.9
		s-0.4,0.2-0.5,0.8c-0.1,0.6,0.2,1.6,0.2,2.7c0.1,1.1-0.8,1.2-0.8,1.2s-4.9,1.4-5.3,1.4c-0.4-0.1-1.7-1.7-1.7-2.7
		c0-1.7,0.8-3.1,1.4-4c0.6-0.9,1.7-1.5,3-2.2c3.9-2.3,9.2-2.1,9.2-2.1c3.8,0,7.3,1.2,9.7,2.1s3.2,2.5,3.7,3.7S35.2,33,34.8,33.4z"/>
	<path fill="#512C1D" d="M31.1,8.9H11.5c-0.4,0-0.8-0.4-0.8-0.8V7.8c0-0.4,0.4-0.8,0.8-0.8h19.6c0.4,0,0.8,0.4,0.8,0.8v0.3
		C31.9,8.6,31.6,8.9,31.1,8.9z"/>
	<path fill="#512C1D" d="M31.1,13H11.5c-0.4,0-0.8-0.4-0.8-0.8v-0.3c0-0.4,0.4-0.8,0.8-0.8h19.6c0.4,0,0.8,0.4,0.8,0.8v0.3
		C31.9,12.6,31.6,13,31.1,13z"/>
	<path fill="#512C1D" d="M31.1,17H11.5c-0.4,0-0.8-0.4-0.8-0.8v-0.3c0-0.4,0.4-0.8,0.8-0.8h19.6c0.4,0,0.8,0.4,0.8,0.8v0.3
		C31.9,16.6,31.6,17,31.1,17z"/>
</g>
</svg>
