<?xml version="1.0" encoding="utf-8"?>
<!-- Generator: Adobe Illustrator 18.1.1, SVG Export Plug-In . SVG Version: 6.00 Build 0)  -->
<svg version="1.1" baseProfile="tiny" id="Capa_1" xmlns="http://www.w3.org/2000/svg" xmlns:xlink="http://www.w3.org/1999/xlink"
	 x="0px" y="0px" viewBox="0 0 42.6 42.6" xml:space="preserve">
<rect x="0" y="0" fill="none" width="42.6" height="42.6"/>
<g>
	<path fill="#512C1D" d="M41.9,13.2c0,0,0.5-4.9-3.4-9C34.6,0,27.5,0.6,27.5,0.6C11.7,0.1,8.2,1.5,8.2,1.5s-3,1.3-4.9,3.5
		C1.5,7.2,1.1,9.8,1.1,9.8s-0.6,0.9-0.5,11.5s0.9,13.2,0.9,13.2s1.1,3.5,3.9,5.3c2.8,1.8,6.2,2,6.2,2s1.1,0.3,9.8,0.3
		s11.4-0.5,11.4-0.5s3.8-0.6,6.1-3.4s2.6-4.1,3-10S41.9,13.2,41.9,13.2z M36.6,35.3c-1.6,2-4.8,2.8-4.8,2.8s-2.9,0.3-10.1,0.3
		c-7.2,0-9.6-0.1-9.6-0.1S9.5,38.2,7.8,37c-1.7-1.2-2.7-3.4-2.7-3.4s-0.8-1-0.8-11.2s0.3-11.1,0.3-11.1s0-2.6,2.5-4.9
		c2.5-2.3,9.4-2,9.4-2s4.7-0.1,10.7,0c0,0,6.2-0.3,8.5,2.1s2.2,4.4,2.2,4.4s0.3,5.4,0.3,11.4s-0.1,8-0.1,8S38.1,33.3,36.6,35.3z"/>
	<path fill="#512C1D" d="M21.3,10.7c-5.9,0-10.6,4.8-10.6,10.6S15.4,32,21.3,32s10.6-4.8,10.6-10.6S27.2,10.7,21.3,10.7z M21.4,28.2
		c-3.8,0-6.9-3.1-6.9-6.9s3.1-6.9,6.9-6.9s6.9,3.1,6.9,6.9S25.2,28.2,21.4,28.2z"/>
	<circle fill="#512C1D" cx="32.4" cy="10.4" r="2.6"/>
</g>
</svg>
