<?xml version="1.0" encoding="utf-8"?>
<!-- Generator: Adobe Illustrator 18.1.1, SVG Export Plug-In . SVG Version: 6.00 Build 0)  -->
<svg version="1.1" baseProfile="tiny" id="Capa_1" xmlns="http://www.w3.org/2000/svg" xmlns:xlink="http://www.w3.org/1999/xlink"
	 x="0px" y="0px" viewBox="0 108 396 396" xml:space="preserve">
<rect y="108" fill="none" width="396" height="396"/>
<g>
	<g>
		<path fill="#512C1D" d="M171.9,433.6c-1.6-31.8-19-60.4-46.5-76.4l-43.9-48.8c-5.8-6.7-15.1-9.5-23.7-7.2v-83.4
			c0-13.9-11.4-25.3-25.3-25.3S7,203.9,7,217.9v120.1c0,9.8,2.6,19.3,7.2,27.6l56.2,101.3v23.7c0,3.5,2.8,6.3,6.3,6.3h88.7
			c3.5,0,6.3-2.8,6.3-6.3L171.9,433.6L171.9,433.6z M159.3,484.5H83.1v-19c0-1.2-0.2-2.1-0.7-3L25.3,359.8
			c-3.7-6.5-5.6-13.9-5.6-21.6V217.9c0-7,5.6-12.8,12.8-12.8s12.8,5.6,12.8,12.8v91c-7.9,9.3-7.7,23,0.5,31.8l51.8,57.4l9.3-8.6
			l-52-57.1c-4.2-4.6-3.9-11.6,0.5-16s11.8-4.4,16.3,0c0.2,0.2,0.2,0.2,0.5,0.5l44.6,49.5c0.5,0.5,1.2,1.2,1.9,1.4
			c25.3,14.4,40.9,41.3,40.9,70.4L159.3,484.5L159.3,484.5z"/>
	</g>
</g>
<g>
	<g>
		<path fill="#512C1D" d="M362.3,192.5c-13.9,0-25.3,11.4-25.3,25.3V301c-2.1-0.5-4.2-0.7-6.3-0.7c-6.7,0.2-13,3-17.4,8.1
			l-43.9,48.8c-27.4,16-45.1,44.8-46.7,76.6h-0.2V491c0,3.5,2.8,6.3,6.3,6.3h88.7c3.5,0,6.3-2.8,6.3-6.3v-23.7l55.5-100.8
			c5.1-8.8,7.9-18.8,7.9-29V217.9C387.6,203.9,376.3,192.5,362.3,192.5z M375.1,337.2c0,7.9-2.1,15.8-6.3,22.8l-56.4,102.2
			c-0.5,0.9-0.7,2.1-0.7,3v19h-76.2V438c0-29.3,15.8-56.2,41.1-70.6c0.7-0.2,1.2-0.7,1.6-1.2l44.6-49.5c4.2-4.6,11.6-5.1,16.3-0.9
			c4.6,4.2,5.1,11.6,0.9,16.3l-52,57.1l9.3,8.6l52-57.1c8.1-9.1,8.4-22.8,0.5-32.1v-90.8c0-7,5.6-12.8,12.8-12.8
			c7,0,12.8,5.6,12.8,12.8L375.1,337.2L375.1,337.2z"/>
	</g>
</g>
<g>
	<g>
		<path fill="#512C1D" d="M273.4,275h-12.8c-22.8,0-44.1,11.1-57.1,29.7v-42.3h6.3c38.6,0,69.7-31.4,69.7-69.7
			c0-3.5-2.8-6.3-6.3-6.3h-12.8c-22.8,0-44.1,11.1-57.1,29.7v-42.7h6.3c28.1,0,50.6-22.8,50.9-50.9c0-3.5-2.8-6.3-6.3-6.3h-12.8
			c-18.6,0-35.5,10-44.4,26.2c-8.6-16-25.5-26.2-44.1-26.2h-12.8c-3.5,0-6.3,2.8-6.3,6.3c0,28.1,22.8,50.6,50.9,50.9h6.3V216
			c-13-18.6-34.4-29.7-57.1-29.7H121c-3.5,0-6.3,2.8-6.3,6.3c0,38.6,31.4,69.7,69.7,69.7h6.3v42.5c-13-18.6-34.4-29.7-57.1-29.7
			h-12.8c-3.5,0-6.3,2.8-6.3,6.3c0,38.6,31.4,69.7,69.7,69.7h6.3v50.9h12.8v-50.9h6.3c38.6,0,69.7-31.4,69.7-69.7
			C279.9,277.8,277.1,275,273.4,275z M260.8,198.8h6c-3.3,29-27.9,50.9-56.9,50.9h-6C207.4,220.9,231.8,199,260.8,198.8z
			 M241.8,129.1h5.8c-3,18.3-19,31.6-37.6,31.8h-5.8C207.4,142.6,223.2,129.1,241.8,129.1z M184.6,160.7
			c-18.6,0-34.4-13.5-37.6-31.8h5.8c18.6,0,34.4,13.5,37.6,31.8H184.6z M184.6,249.7c-29,0-53.4-21.8-56.7-50.9h6
			c29,0,53.4,21.8,56.7,50.9H184.6z M184.6,338.4c-29,0-53.4-21.8-56.7-50.9h6c29,0,53.4,21.8,56.7,50.9H184.6z M210,338.4h-6
			c3.3-28.8,27.6-50.6,56.7-50.9h6C263.6,316.6,239,338.4,210,338.4z"/>
	</g>
</g>
</svg>
