<?xml version="1.0" encoding="utf-8"?>
<!-- Generator: Adobe Illustrator 18.1.1, SVG Export Plug-In . SVG Version: 6.00 Build 0)  -->
<svg version="1.1" baseProfile="tiny" id="Capa_1" xmlns="http://www.w3.org/2000/svg" xmlns:xlink="http://www.w3.org/1999/xlink"
	 x="0px" y="0px" viewBox="0 108 396 396" xml:space="preserve">
<rect y="108" fill="none" width="396" height="396"/>
<g>
	<path fill="#512C1D" d="M357.4,457.3l-51.3-123.6c-1.4-3.3-4.9-4.6-8.1-3.3c-3.3,1.4-4.6,4.9-3.3,8.1L341,450.3L298.7,438
		c-2.8-0.7-5.8,0.5-7.2,3l-21.1,38.6l-49.7-119.8c57.4-11.1,100.8-61.5,100.8-122.2c0-68.5-55.7-124.5-124.5-124.5
		S72.5,168.9,72.5,237.6c0,27.9,9.1,53.4,24.6,74.1L36.7,457.5c-0.9,2.1-0.5,4.6,1.2,6.5c1.6,1.9,3.9,2.6,6.3,1.9l49.9-14.4
		l25.1,45.5c1.2,2.1,3.3,3.3,5.3,3.3h0.2c2.3-0.2,4.4-1.6,5.3-3.7l47.8-115.4c1.4-3.3-0.2-6.7-3.3-8.1c-3.3-1.4-6.7,0.2-8.1,3.3
		L124,479.6l-21.1-38.6c-1.4-2.6-4.4-3.7-7.2-3l-42.3,12.3l53-128c22.8,24.4,55,39.5,90.8,39.5c3.7,0,7.4-0.2,10.9-0.5l55.7,134.7
		c0.9,2.1,3,3.7,5.3,3.7h0.2c2.3,0,4.4-1.2,5.3-3.3l25.1-45.5l49.9,14.4c2.3,0.7,4.6,0,6.3-1.9C357.9,462.2,358.4,459.6,357.4,457.3
		L357.4,457.3z M85.2,237.4c0-61.8,50.2-111.9,111.9-111.9s111.9,50.2,111.9,111.9S259,349.5,197.2,349.5S85.2,299.1,85.2,237.4
		L85.2,237.4z"/>
	<path fill="#512C1D" d="M268.5,214.1c-0.7-2.1-2.6-3.7-4.9-4.2l-41.6-7l-19.5-37.4c-1.2-2.1-3.3-3.3-5.6-3.3
		c-2.3,0-4.4,1.4-5.6,3.3L171.9,203l-41.6,7c-2.3,0.5-4.2,2.1-4.9,4.2s-0.2,4.6,1.4,6.3l29.5,30l-6.3,41.6c-0.2,2.3,0.7,4.6,2.6,5.8
		c1.9,1.4,4.4,1.6,6.3,0.5l38.3-18.3l37.6,18.8c0.9,0.5,1.9,0.7,2.8,0.7c1.4,0,2.6-0.5,3.7-1.2c1.9-1.4,2.8-3.7,2.6-5.8l-6.3-41.6
		l29.5-30.4C268.7,218.8,269.2,216.5,268.5,214.1z M226.7,244.1c-1.4,1.4-2.1,3.3-1.6,5.3l4.9,32.7l-30-14.9
		c-0.9-0.5-1.9-0.7-2.8-0.7s-1.9,0.2-2.8,0.7l-29.7,14.9l4.9-33c0.2-1.9-0.2-3.9-1.6-5.3l-23.5-23.7l33-5.3c1.9-0.2,3.5-1.6,4.4-3.3
		l15.3-29.5l15.3,29.5c0.9,1.6,2.6,3,4.4,3.3l33,5.6L226.7,244.1L226.7,244.1z"/>
	<path fill="#512C1D" d="M290.8,243.6c-3.5-0.5-6.5,1.9-7,5.3c-5.8,43.2-43,75.7-86.6,75.7c-48.1,0-87.3-39.3-87.3-87.3
		s39.3-87.3,87.3-87.3c43.7,0,80.8,32.5,86.6,75.7c0.5,3.5,3.5,5.8,7,5.3c3.5-0.5,5.8-3.5,5.3-7c-6.5-49.2-49-86.6-98.9-86.6
		c-55,0.2-99.6,45.1-99.6,99.9s44.8,99.6,99.6,99.6c49.7,0,92.2-37.2,98.9-86.6C296.6,247.1,294,244.1,290.8,243.6L290.8,243.6z"/>
</g>
</svg>
