<?xml version="1.0" encoding="utf-8"?>
<!-- Generator: Adobe Illustrator 18.1.1, SVG Export Plug-In . SVG Version: 6.00 Build 0)  -->
<svg version="1.1" baseProfile="tiny" id="Capa_1" xmlns="http://www.w3.org/2000/svg" xmlns:xlink="http://www.w3.org/1999/xlink"
	 x="0px" y="0px" viewBox="0 108 396 396" xml:space="preserve">
<rect y="108" fill="none" width="396" height="396"/>
<g>
	<g>
		<g>
			<path fill="#512C1D" d="M88.5,482.9l-11.1-15.8c-2.3-3.3-7-4.2-10.5-1.9c-3.3,2.3-4.2,7-1.9,10.5l11.1,15.8c1.4,2.1,3.7,3,6,3
				c1.4,0,3-0.5,4.2-1.4C90.1,490.8,90.8,486.1,88.5,482.9z"/>
		</g>
	</g>
	<g>
		<g>
			<path fill="#512C1D" d="M174,485.7l-12.1-57.8c-5.8-28.1-22.3-52.5-46.2-68.5l-26-17.4c-10.5-7-24.4-5.6-33,3.5v-89.7
				c0-11.6-7.9-21.6-19.5-24.2c-7.4-1.6-15.1,0.2-20.9,4.9c-5.8,4.6-9.3,11.8-9.3,19.3v115c0,15.1,4.6,29.5,13.2,41.8l13.2,18.6
				c1.4,2.1,3.7,3,6,3c1.4,0,3-0.5,4.2-1.4c3.3-2.3,4.2-7,1.9-10.5l-13.2-18.6c-7-9.8-10.7-21.1-10.7-33.2V255.7
				c0-3,1.4-5.8,3.7-7.9c2.3-1.9,5.3-2.6,8.4-1.9c4.6,0.9,7.9,5.1,7.9,9.8V347c0,13,4.6,25.3,13.5,34.8c0.5,0.5,0.7,0.9,1.2,1.4
				c4.9,5.1,10.7,11.4,16.3,17.2l7.7,8.1l0,0c6.5,7,11.4,12.1,11.4,12.1c2.8,3,7.4,3,10.5,0.2c3-2.8,3-7.4,0.2-10.5
				c-0.2-0.2-8.8-9.3-18.8-20l-17-18.1c0,0,0,0-0.2-0.2c-3.9-4.9-3.9-11.6,0.2-16.5c3.7-4.2,10-4.9,14.6-1.9l26,17.4
				c20.7,13.9,34.8,34.8,39.9,59.2l12.1,57.8c0.7,3.5,3.7,5.8,7.2,5.8c0.5,0,0.9,0,1.6-0.2C172.3,493.5,174.9,489.6,174,485.7z"/>
		</g>
	</g>
	<g>
		<g>
			<path fill="#512C1D" d="M62,445.5L62,445.5c-2.3-3.5-7-4.2-10.5-1.9c-3.3,2.3-4.2,7-1.6,10.5l0,0c1.4,2.1,3.7,3,6,3
				c1.4,0,3-0.5,4.4-1.4C63.6,453.4,64.3,448.7,62,445.5z"/>
		</g>
	</g>
	<g>
		<g>
			<path fill="#512C1D" d="M377.4,236.4c-5.8-4.6-13.5-6.5-20.9-4.9c-11.4,2.6-19.5,12.5-19.5,24.2v89.4c-8.6-8.8-22.8-10.5-33-3.5
				l-26,17.4c-23.9,16-40.2,40.4-46.2,68.5l-12.1,57.8c-0.9,3.9,1.6,7.9,5.8,8.8c0.5,0,0.9,0.2,1.6,0.2c3.5,0,6.5-2.3,7.2-5.8
				l11.8-57.8c5.1-24.4,19.3-45.3,39.9-59.2l26-17.4c4.6-3,10.9-2.3,14.6,1.9c4.2,4.6,4.2,11.6,0.2,16.5c0,0,0,0-0.2,0.2
				c0,0-35.5,37.9-35.8,38.1c-2.8,3-2.6,7.7,0.2,10.5c3,2.8,7.7,2.6,10.5-0.2c0,0,30.4-32.3,35.3-37.6c0.5-0.5,0.7-0.9,1.2-1.4
				c8.6-9.5,13.5-21.8,13.5-34.8v-91.5c0-4.6,3.3-8.8,7.9-9.8c3-0.7,6,0,8.4,1.9c2.3,1.9,3.7,4.6,3.7,7.9v115
				c0,12.1-3.7,23.5-10.7,33.2l-56,79c-2.3,3.3-1.6,7.9,1.9,10.5c1.4,0.9,2.8,1.4,4.2,1.4c2.3,0,4.6-1.2,6-3l56-79
				c8.8-12.3,13.2-26.7,13.2-41.8V255.7C386.7,248.3,383.2,241.1,377.4,236.4z"/>
		</g>
	</g>
	<g>
		<g>
			<path fill="#512C1D" d="M290.8,257.1l-13.2-3.3v-2.3c8.6-6,14.2-16,14.2-27.2v-17.2c0-18.3-14.9-33.2-33.2-33.2
				c-8.1,0-15.8,3-21.6,7.9c-6.5-15.8-22.1-26.9-40.2-26.9s-33.7,11.1-40.2,26.9c-5.8-5.1-13.2-8.1-21.6-8.1
				c-18.3,0-33.2,14.9-33.2,33.2v1.2v16c0,11.1,5.6,21.1,14.2,27.2v2.3l-13.2,3.3c-15.8,3.7-26.7,17.7-26.7,33.9v13.9
				c0,4.2,3.3,7.4,7.4,7.4h34.1c0,0.9,0,1.9,0,2.8v26.7c0,4.2,3.3,7.4,7.4,7.4h44.6c4.2,0,7.4-3.3,7.4-7.4s-3.3-7.4-7.4-7.4h-7.7
				v-15.3c0-4.2-3.3-7.4-7.4-7.4c-4.2,0-7.4,3.3-7.4,7.4v15.3h-14.6v-19.3c0-14.4,9.8-26.7,23.7-30l20.4-4.9l13.7,30.9
				c1.2,2.8,3.9,4.4,6.7,4.4l0,0c3,0,5.6-1.6,6.7-4.4l13.7-30.9l20.2,4.9c13.9,3.3,23.7,15.6,23.7,30v19.3h-14.6v-15.3
				c0-4.2-3.3-7.4-7.4-7.4s-7.4,3.3-7.4,7.4v15.3h-8.4c-4.2,0-7.4,3.3-7.4,7.4s3.3,7.4,7.4,7.4h45.3c4.2,0,7.4-3.3,7.4-7.4v-26.7
				c0-0.9,0-1.9,0-2.8h34.1c4.2,0,7.4-3.3,7.4-7.4v-13.9C317.5,274.8,306.3,260.8,290.8,257.1z M258.5,188.8
				c9.8,0,17.7,7.7,18.3,17.2h-10.2c-8.6,0-17.2-2.1-24.9-6C244.6,193.5,251.1,188.8,258.5,188.8z M240.2,223.2c0-0.5,0-0.7,0-1.2
				v-6.5c8.4,3.5,17.2,5.3,26.2,5.3h10.5v3.5c0,10.2-8.1,18.3-18.3,18.3s-18.3-8.1-18.3-18.3V223.2z M168.4,198.3L168.4,198.3
				c0-15.8,12.8-28.6,28.6-28.6c14.2,0,26,10.5,28.1,23.9l-12.5-7.4c-3-1.9-7.2-1.2-9.5,1.6c-6,7.2-15.1,11.4-24.6,11.4h-10.2v-0.9
				H168.4z M135.2,188.8c7.4,0,13.9,4.6,17,11.1c-7.7,3.9-16.3,6-24.9,6h-10.2C117.5,196.5,125.4,188.8,135.2,188.8z M116.8,220.9
				h10.5c9.1,0,18.1-1.9,26.2-5.3v8.8c0,10.2-8.1,18.3-18.3,18.3s-18.3-8.1-18.3-18.3L116.8,220.9L116.8,220.9z M152.6,270.6
				c-14.6,3.5-26,13.7-31.6,26.7H91v-6.5c0-9.3,6.3-17.4,15.3-19.5l18.8-4.4c3.3-0.7,5.8-3.7,5.8-7.2v-2.6c1.4,0.2,2.8,0.2,4.2,0.2
				c1.4,0,2.8,0,4.2-0.2v2.1v0.2c0,2.3,1.2,4.9,3.5,6.3c0.9,0.5,1.6,0.9,2.6,1.2l11.1,2.6L152.6,270.6z M173.3,259
				c-1.9-0.9-3.9-1.6-6-2.1l-13.2-3.3v-2.3c2.3-1.6,4.6-3.7,6.5-5.8c3.3,5.1,7.7,9.5,12.8,12.8L173.3,259L173.3,259z M205.5,269.9
				l-8.6,19.7l-8.8-19.7v-5.3c2.8,0.7,5.8,0.9,8.8,0.9s5.8-0.2,8.6-0.9V269.9z M197,250.6c-15.8,0-28.6-12.8-28.6-28.6v-7.9h10.2
				c11.8,0,23-4.4,31.6-12.1l15.3,9.1v12.1C224.8,238.5,212.3,250.6,197,250.6z M220.4,259v-0.5c5.1-3.3,9.5-7.7,12.8-12.8
				c1.9,2.1,3.9,4.2,6.3,5.8v2.3l-13.2,3.3C224.4,257.6,222.3,258.3,220.4,259z M302.6,297.3h-30.2c-5.6-13.2-17-23.2-31.6-26.7
				l-3.7-0.9l11.1-2.6c0.9-0.2,1.9-0.5,2.8-1.2c2.1-1.4,3.5-3.7,3.5-6.3v-0.2v-2.3c1.4,0.2,2.8,0.2,4.2,0.2c1.4,0,2.8,0,4.2-0.2v2.6
				c0,3.5,2.3,6.5,5.8,7.2l18.8,4.4c9.1,2.1,15.3,10.2,15.3,19.5L302.6,297.3L302.6,297.3z"/>
		</g>
	</g>
	<g>
		<g>
			<path fill="#512C1D" d="M202.1,336.3c-1.4-1.4-3.3-2.1-5.3-2.1c-1.9,0-3.9,0.7-5.3,2.1c-1.4,1.4-2.1,3.3-2.1,5.3
				c0,1.9,0.7,3.9,2.1,5.3c1.4,1.4,3.3,2.1,5.3,2.1c1.9,0,3.9-0.7,5.3-2.1c1.4-1.4,2.1-3.3,2.1-5.3S203.5,337.7,202.1,336.3z"/>
		</g>
	</g>
	<g>
		<g>
			<path fill="#512C1D" d="M196.7,115c-4.2,0-7.4,3.3-7.4,7.4v11.1c0,4.2,3.3,7.4,7.4,7.4c4.2,0,7.4-3.3,7.4-7.4v-11.1
				C204.2,118.2,200.9,115,196.7,115z"/>
		</g>
	</g>
	<g>
		<g>
			<path fill="#512C1D" d="M169.5,139.1l-7.9-7.9c-2.8-2.8-7.7-2.8-10.5,0c-2.8,2.8-2.8,7.7,0,10.5l7.7,7.7c1.4,1.4,3.3,2.1,5.3,2.1
				c1.9,0,3.7-0.7,5.3-2.1C172.3,146.8,172.3,141.9,169.5,139.1z"/>
		</g>
	</g>
	<g>
		<g>
			<path fill="#512C1D" d="M242.2,131.5c-2.8-2.8-7.7-2.8-10.5,0l-7.7,7.7c-2.8,2.8-2.8,7.7,0,10.5c1.4,1.4,3.3,2.1,5.3,2.1
				c1.9,0,3.7-0.7,5.3-2.1l7.7-7.7C245,139.1,245,134.5,242.2,131.5z"/>
		</g>
	</g>
</g>
</svg>
