<?xml version="1.0" encoding="utf-8"?>
<!-- Generator: Adobe Illustrator 18.1.1, SVG Export Plug-In . SVG Version: 6.00 Build 0)  -->
<svg version="1.1" baseProfile="tiny" id="Capa_1" xmlns="http://www.w3.org/2000/svg" xmlns:xlink="http://www.w3.org/1999/xlink"
	 x="0px" y="0px" viewBox="0 108 396 396" xml:space="preserve">
<g>
	<g>
		<g>
			<path fill="#512C1D" d="M335.6,167.9c-36.7-36.7-85.5-56.9-137.5-56.9s-101,20.2-137.7,56.9C23.7,204.9,3.5,253.6,3.5,305.7
				s20.2,100.8,57.1,137.7c36.7,36.7,85.7,57.1,137.7,57.1s100.8-20.2,137.7-57.1c36.7-36.7,57.1-85.7,57.1-137.7
				S372.5,204.9,335.6,167.9z M198.1,485.2c-98.9,0-179.5-80.6-179.5-179.5s80.6-179.5,179.5-179.5s179.5,80.6,179.5,179.5
				S297.1,485.2,198.1,485.2z"/>
		</g>
	</g>
	<g>
		<g>
			<path fill="#512C1D" d="M240.4,147c-3.9-1.2-8.1,1.4-9.3,5.3c-1.2,3.9,1.4,8.1,5.3,9.3c65,17.4,110.6,76.6,110.6,144
				c0,82.2-66.9,149.1-149.1,149.1S48.8,387.9,48.8,305.7c0.2-67.8,46-127,111.5-144.2c4.2-1.2,6.5-5.1,5.3-9.3
				c-1.2-4.2-5.1-6.5-9.3-5.3C84.1,165.6,33.7,230.9,33.7,305.7c0,43.9,17.2,85,48.1,116.1s72.2,48.1,116.1,48.1s85-17.2,116.1-48.1
				s48.3-72.2,48.3-116.1C362.3,231.3,312.2,166.1,240.4,147z"/>
		</g>
	</g>
	<g>
		<g>
			<path fill="#512C1D" d="M198.1,141.4h-0.5c-4.2,0-7.7,3.5-7.7,7.7c0,4.2,3.5,7.7,7.7,7.7l0,0h0.2c4.2,0,7.7-3.5,7.7-7.7
				C205.5,144.9,202.3,141.4,198.1,141.4z"/>
		</g>
	</g>
	<g>
		<g>
			<path fill="#512C1D" d="M288.9,212.1c-1.6-1.6-3.9-2.6-6.3-2.1L173,223c-0.2,0-0.5,0-0.7,0c-21.6,2.3-42,11.8-57.6,27.4
				c-18.1,17.9-27.9,42-27.9,67.4c0,25.5,10,49.5,28.1,67.6c0.7,0.7,1.4,1.4,2.1,2.1c-2.3,7.7-3.5,16-3.5,24.2
				c0,4.2,3.5,7.7,7.7,7.7s7.7-3.5,7.7-7.7c0-4.6,0.5-9.3,1.4-13.9c15.3,10.2,33.4,15.6,52.3,15.6c0,0,0,0,0.2,0
				c25.5,0,49.2-10,67.4-27.9c15.3-15.3,25.1-35.8,27.4-57.4l0,0l13.7-109.6C291.5,216,290.6,213.7,288.9,212.1z M262.5,325.9
				c0,0.2,0,0.2,0,0.5c-1.9,18.3-10,35.5-23,48.5c-15.1,15.1-35.1,23.5-56.4,23.5l0,0c-17.2,0-33.7-5.6-47.4-15.6
				c3.5-7.9,8.4-15.1,14.6-21.1l2.3-2.3h61.8c4.2,0,7.7-3.5,7.7-7.7c0-4.2-3.5-7.7-7.7-7.7h-46.5l24.6-24.6h41.6
				c4.2,0,7.7-3.5,7.7-7.7s-3.5-7.7-7.7-7.7h-26.7l43.4-43.7c3-3,3-7.9,0-10.7c-3-3-7.9-3-10.7,0l-43.4,43.4v-26.2
				c0-4.2-3.5-7.7-7.7-7.7s-7.7,3.5-7.7,7.7v41.6l-24.6,24.6v-27.6c0-4.2-3.5-7.7-7.7-7.7s-7.7,3.5-7.7,7.7v43l-2.3,2.3
				c-6.5,6.5-11.6,13.7-15.8,21.4c-13.7-14.9-21.1-33.9-21.1-54.1c0-21.4,8.4-41.6,23.5-56.7c13.2-13.2,30.4-21.4,49-23
				c0.2,0,0.7,0,0.9-0.2l99.2-11.8L262.5,325.9z"/>
		</g>
	</g>
	<g>
		<g>
			<path fill="#512C1D" d="M154.5,271.5c-1.4-1.4-3.5-2.3-5.3-2.3c-2.1,0-3.9,0.9-5.3,2.3s-2.3,3.5-2.3,5.3s0.7,3.9,2.3,5.3
				c1.4,1.4,3.5,2.3,5.3,2.3c2.1,0,3.9-0.9,5.3-2.3c1.4-1.4,2.3-3.5,2.3-5.3S155.8,272.9,154.5,271.5z"/>
		</g>
	</g>
</g>
<rect y="108" fill="none" width="396" height="396"/>
</svg>
