<?xml version="1.0" encoding="utf-8"?>
<!-- Generator: Adobe Illustrator 18.1.1, SVG Export Plug-In . SVG Version: 6.00 Build 0)  -->
<svg version="1.1" baseProfile="tiny" id="Capa_1" xmlns="http://www.w3.org/2000/svg" xmlns:xlink="http://www.w3.org/1999/xlink"
	 x="0px" y="0px" viewBox="0 108 396 396" xml:space="preserve">
<rect y="108" fill="none" width="396" height="396"/>
<g>
	<g>
		<g>
			<path fill="#512C1D" d="M141.4,439c-29.7-12.8-54.8-35.3-70.4-63.9c-1.4-2.8-4.9-3.7-7.7-2.3c-2.8,1.4-3.7,4.9-2.3,7.7
				c16.7,30.7,43.7,55,75.7,68.7c0.7,0.2,1.4,0.5,2.3,0.5c2.1,0,4.2-1.4,5.1-3.5C145.6,443.6,144.2,440.1,141.4,439z"/>
		</g>
	</g>
	<g>
		<g>
			<path fill="#512C1D" d="M333.1,373c-2.8-1.4-6-0.5-7.7,2.3c-15.6,28.3-40.6,51.1-70.4,63.9c-2.8,1.2-4.2,4.6-3,7.4
				c0.9,2.1,3,3.5,5.1,3.5c0.7,0,1.4-0.2,2.3-0.5c32.1-13.7,59-38.1,75.7-68.7C336.8,377.9,335.8,374.4,333.1,373z"/>
		</g>
	</g>
	<g>
		<g>
			<path fill="#512C1D" d="M331.7,224.4c-19-31.4-48.8-55-83.4-66.9c-3-0.9-6,0.7-7.2,3.5c-0.9,3,0.7,6,3.5,7.2
				c32.3,10.9,59.7,33,77.3,62c1.2,1.6,3,2.8,4.9,2.8c0.9,0,2.1-0.2,3-0.9C332.4,230.6,333.3,227.1,331.7,224.4z"/>
		</g>
	</g>
	<g>
		<g>
			<path fill="#512C1D" d="M155.4,161.2c-0.9-3-4.2-4.6-7.2-3.5c-34.6,11.6-64.3,35.5-83.4,66.9c-1.6,2.6-0.7,6,1.9,7.7
				c0.9,0.5,1.9,0.9,3,0.9c1.9,0,3.7-0.9,4.9-2.8c17.7-29,45.3-51.1,77.3-62C154.9,167.2,156.3,164.2,155.4,161.2z"/>
		</g>
	</g>
	<g>
		<g>
			<path fill="#512C1D" d="M230.2,188.8l-14.2-7c-0.2,0-0.2-0.2-0.2-0.2V173c7.2-5.3,12.1-14.2,12.1-23.9V137
				c0-13-10.7-23.7-23.7-23.7h-12.1c-13,0-23.7,10.7-23.7,23.7v12.1c0,9.8,4.6,18.3,12.1,23.9v8.6c0,0.2,0,0.2-0.2,0.2l-14.2,7
				c-6,3-9.8,9.1-9.8,15.8v16.7c0,3,2.6,5.6,5.6,5.6s5.6-2.6,5.6-5.6v-16.7c0-2.6,1.4-4.6,3.5-5.8l9.8-4.9l8.8,8.8
				c2.1,2.1,5.1,3.5,8.1,3.5s6-1.2,8.1-3.5l8.8-8.8l9.8,4.9c2.1,1.2,3.5,3.3,3.5,5.8v16.7c0,3,2.6,5.6,5.6,5.6s5.6-2.6,5.6-5.6
				v-16.7C239.9,197.9,236.2,191.8,230.2,188.8z M198.6,195.1c0,0,0,0-0.2,0s-0.2,0-0.2,0l-7.7-7.7c0.9-1.6,1.6-3.7,1.6-5.8v-3.5
				c2.1,0.5,4.2,0.7,6.5,0.7c2.1,0,4.4-0.2,6.5-0.7v3.5c0,2.1,0.5,4.2,1.6,5.8L198.6,195.1z M198.3,167.5
				c-10.2,0-18.3-8.4-18.3-18.3V137l0,0c0-7,5.6-12.5,12.5-12.5h11.8c7,0,12.5,5.6,12.5,12.5v12.1
				C216.7,159.3,208.3,167.5,198.3,167.5z"/>
		</g>
	</g>
	<g>
		<g>
			<path fill="#512C1D" d="M230.2,459.9l-14.2-7c-0.2,0-0.2-0.2-0.2-0.2v-8.6c7.2-5.3,12.1-14.2,12.1-23.9v-12.1
				c0-13-10.7-23.7-23.7-23.7h-12.1c-13,0-23.7,10.7-23.7,23.7v12.1c0,9.8,4.6,18.3,12.1,23.9v8.6c0,0.2,0,0.2-0.2,0.2l-14.2,7
				c-6,3-9.8,9.1-9.8,15.8v16.7c0,3,2.6,5.6,5.6,5.6s5.6-2.6,5.6-5.6v-16.7c0-2.6,1.4-4.6,3.5-5.8l9.8-4.9l8.8,8.8
				c2.1,2.1,5.1,3.5,8.1,3.5s6-1.2,8.1-3.5l8.8-8.8l9.8,4.9c2.1,1.2,3.5,3.3,3.5,5.8v16.7c0,3,2.6,5.6,5.6,5.6s5.6-2.6,5.6-5.6
				v-16.7C239.9,468.9,236.2,462.9,230.2,459.9z M198.6,466.1c0,0,0,0-0.2,0s-0.2,0-0.2,0l-7.7-7.7c0.9-1.6,1.6-3.7,1.6-5.8v-3.5
				c2.1,0.5,4.2,0.7,6.5,0.7c2.1,0,4.4-0.2,6.5-0.7v3.5c0,2.1,0.5,4.2,1.6,5.8L198.6,466.1z M198.3,438.5
				c-10.2,0-18.3-8.4-18.3-18.3v-12.1l0,0c0-7,5.6-12.5,12.5-12.5h11.8c7,0,12.5,5.6,12.5,12.5v12.1
				C216.7,430.4,208.3,438.5,198.3,438.5z"/>
		</g>
	</g>
	<g>
		<g>
			<path fill="#512C1D" d="M85.7,321.4l-14.2-7c-0.2,0-0.2-0.2-0.2-0.2v-8.8c7.2-5.3,12.1-14.2,12.1-23.9v-12.1
				c0-13-10.7-23.7-23.7-23.7H47.6c-13,0-23.7,10.7-23.7,23.7v12.1c0,9.8,4.6,18.3,12.1,23.9v8.6c0,0.2,0,0.2-0.2,0.2l-14.2,7
				c-6,3-9.8,9.1-9.8,15.8v16.7c0,3,2.6,5.6,5.6,5.6s5.6-2.6,5.6-5.6V337c0-2.6,1.4-4.6,3.5-5.8l9.8-4.9l8.8,8.8
				c2.3,2.3,5.3,3.5,8.1,3.5c3,0,6-1.2,8.1-3.5l8.8-8.8l9.8,4.9c2.1,1.2,3.5,3.3,3.5,5.8v16.7c0,3,2.6,5.6,5.6,5.6
				c3,0,5.6-2.6,5.6-5.6V337C95.5,330.5,91.7,324.5,85.7,321.4z M54.1,327.5c-0.2,0.2-0.5,0.2-0.5,0l-7.7-7.7
				c0.9-1.6,1.6-3.7,1.6-5.8v-3.5c2.1,0.5,4.2,0.7,6.5,0.7c2.3,0,4.4-0.2,6.5-0.7v3.5c0,2.1,0.5,4.2,1.6,5.8L54.1,327.5z
				 M53.7,300.1c-10.2,0-18.3-8.4-18.3-18.3v-12.1l0,0c0-7,5.6-12.5,12.5-12.5h12.1c7,0,12.5,5.6,12.5,12.5v12.1
				C72.2,291.7,63.9,300.1,53.7,300.1z"/>
		</g>
	</g>
	<g>
		<g>
			<path fill="#512C1D" d="M374.9,321.4l-14.2-7c-0.2,0-0.2-0.2-0.2-0.2v-8.8c7.2-5.3,12.1-14.2,12.1-23.9v-12.1
				c0-13-10.7-23.7-23.7-23.7h-12.1c-13,0-23.7,10.7-23.7,23.7v12.1c0,9.8,4.6,18.3,12.1,23.9v8.6c0,0.2,0,0.2-0.2,0.2l-14.2,7
				c-6,3-9.8,9.1-9.8,15.8v16.7c0,3,2.6,5.6,5.6,5.6s5.6-2.6,5.6-5.6V337c0-2.6,1.4-4.6,3.5-5.8l9.8-4.9l9.1,9.3
				c2.3,2.3,5.3,3.5,8.1,3.5c3,0,6-1.2,8.1-3.5l8.8-8.8l9.8,4.9c2.1,1.2,3.5,3.3,3.5,5.8v16.7c0,3,2.6,5.6,5.6,5.6s5.6-2.6,5.6-5.6
				v-16.7C384.6,330.5,380.9,324.5,374.9,321.4z M343,327.5c-0.2,0.2-0.5,0.2-0.5,0l-7.7-7.7c0.9-1.6,1.6-3.7,1.6-5.8v-3.5
				c2.1,0.5,4.2,0.7,6.5,0.7c2.3,0,4.4-0.2,6.5-0.7v3.5c0,2.1,0.5,4.2,1.6,5.8L343,327.5z M342.8,300.1c-10.2,0-18.3-8.4-18.3-18.3
				v-12.1l0,0c0-7,5.6-12.5,12.5-12.5h12.1c7,0,12.5,5.6,12.5,12.5v12.1C361.2,291.7,353,300.1,342.8,300.1z"/>
		</g>
	</g>
</g>
</svg>
