<?xml version="1.0" encoding="utf-8"?>
<!-- Generator: Adobe Illustrator 18.1.1, SVG Export Plug-In . SVG Version: 6.00 Build 0)  -->
<svg version="1.1" baseProfile="tiny" id="Capa_1" xmlns="http://www.w3.org/2000/svg" xmlns:xlink="http://www.w3.org/1999/xlink"
	 x="0px" y="0px" viewBox="0 0 42.6 42.6" xml:space="preserve">
<rect x="0" y="0" fill="none" width="42.6" height="42.6"/>
<path fill="#512C1D" d="M21.3,0.8c-8.2,0-14.8,6.6-14.8,14.8c0,0,0,0.2,0,0.7c0,1.1,0.2,2.1,0.5,3.1c0.7,3.3,2.6,8.7,7.4,15.4
	c5.1,6.8,7,7.6,7,7.6s1.8-1,6.8-7.8c3.6-5.5,5.9-8.3,7.2-14.1c0.5-1.5,0.8-3.1,0.8-4.8C36.1,7.4,29.5,0.8,21.3,0.8z M21.2,24.5
	c-5,0-9.1-4.1-9.1-9.1c0-5,4.1-9.1,9.1-9.1s9.1,4.1,9.1,9.1C30.3,20.4,26.3,24.5,21.2,24.5z"/>
</svg>
