<?xml version="1.0" encoding="utf-8"?>
<!-- Generator: Adobe Illustrator 18.1.1, SVG Export Plug-In . SVG Version: 6.00 Build 0)  -->
<svg version="1.1" baseProfile="tiny" id="Capa_1" xmlns="http://www.w3.org/2000/svg" xmlns:xlink="http://www.w3.org/1999/xlink"
	 x="0px" y="0px" viewBox="0 0 42.6 42.6" xml:space="preserve">
<rect x="0" y="0" fill="none" width="42.6" height="42.6"/>
<g>
	<path fill="#512C1D" d="M42,18.7c-0.4-3.5-1.7-6.7-3.8-9.6c-3.4-4.6-7.9-7.4-13.5-8.4c-1.1-0.2-2.3-0.2-3.4-0.4c-0.1,0-0.2,0-0.2,0
		C20.1,0.5,19,0.6,18,0.7C7.1,2.4-0.7,12.6,0.5,23.5c0.6,5.2,2.8,9.6,6.6,13.2c4.6,4.2,10.1,6,16.3,5.4c4.8-0.5,8.9-2.4,12.3-5.7
		C40.7,31.6,42.8,25.6,42,18.7z M37.6,29.5c-0.5-0.9-1.2-2.2-1.5-3.3c-0.4-1.6-1.5-0.1-1.6,1c-0.1,1-0.8,1.8-2.2,0.3
		c-1.4-1.6-1.6-1.2-2.1-1.2s-1.2,1-1,5.9c0.1,3.5,1.5,4,2.4,4.3c-1.7,1.1-3.6,2-5.7,2.6C17.8,41,9.4,37.2,5.5,29.7
		c-3.6-7-1.9-14.9,1.8-19.2c0.1,0.8,0.2,1.5,0.3,2.2c0.2,1.9,0.1,3.8-0.3,5.7c-0.1,0.4-0.1,0.9,0.1,1.3c0.1,0.2,0.4,0.5,0.6,0.5
		c0.2,0,0.5-0.3,0.6-0.5c0.1-0.4,0.1-0.8,0.2-1.2c0-0.3,0-0.6,0-1C9,17.7,9.3,17.8,9.4,18c0.5,0.5,0.9,0.9,1.3,1.4
		c0.2,0.2,0.4,0.5,0.4,0.8c0,0.6,0.2,0.9,0.5,1.4c0.3,0.5,0.5,1.1,0.7,1.7c0.1,0.2,0.1,0.5,0.2,0.7c0.2,0.5,0.6,0.8,1.2,0.9
		c0.6,0,0.9,0.3,1,0.9c-0.2,0-0.3,0-0.5,0.1c-0.8,0.1-1.1,0.4-1.1,1.2c0.1,1.5,0.6,2.9,1.7,3.9c0.3,0.3,0.6,0.6,0.9,0.9
		c0.7,0.7,0.9,1.5,0.6,2.4c-0.2,0.5-0.4,0.9-0.4,1.4c-0.1,0.5-0.1,1,0,1.5c0.1,0.5,0.1,1.5,0.6,1.5c0.9-0.2,1.4,0,1.5-1
		c0-0.2,0-0.2-0.1-0.4c-0.3-0.9,0.9-3.6,1.6-4c0.6-0.4,1.2-0.8,1.8-1.3c0.8-0.7,1.2-1.6,0.8-2.6c-0.3-1,0.1-1.7,0.7-2.3
		c0.7-0.6,1.2-1.4,1.1-2.4c0-1-0.7-1.7-1.5-1.6c-0.4,0-0.8,0.2-1.2,0.4c-0.6,0.2-1.2,0.5-1.8,0.6c-0.8,0.2-1.4-0.4-1.8-1.1
		c-0.3-0.5-0.4-0.6-0.9-0.2c-0.4,0.3-0.9,0.6-1.4,0.8c-0.5,0.3-0.7,0.2-1.1-0.2c-0.2-0.2-0.5-0.4-0.8-0.6c-0.2-0.1-0.5-0.2-0.6-0.3
		c-0.2-0.2-0.5-0.5-0.5-0.8c0-0.3,0.3-0.6,0.6-0.7c0.5-0.2,1-0.2,1.5-0.3c0.3-0.1,0.5-0.1,0.8-0.2c0.3-0.1,0.3-0.4,0.1-0.6
		c-0.1-0.1-0.3-0.2-0.4-0.2c-0.8-0.3-1.5-0.6-2.3-0.9c-0.2-0.1-0.4-0.2-0.5-0.3c-0.5-0.3-0.5-0.7-0.1-1c1.7-1.5,3.7-2,5.5,0.1
		c0.6,0.6,0.9,1.4,1.4,2.1c0.4,0.5,0.9,1,1.4,1.4c0.2,0.2,0.7,0.2,0.9,0.1c0.4-0.2,0.4-0.6,0.2-1c-0.2-0.3-0.3-0.6-0.6-0.9
		c-1-1.3-0.9-3.8,1-4.9c0.7-0.4,1.3-0.7,1.6-1.7c-0.4,0.1-0.7,0.2-0.9,0.3c-1.5,0.5-0.5-0.7,0.2-0.9c0.4-0.1-0.4-0.4-0.4-0.4
		c0,0,0.5-0.2,1.1-0.4c0.4-0.2,0.8-0.4,1.1-0.6C25,10,25,9.7,25.2,9.4c0,0-0.1-0.1-0.1-0.1c-0.4,0.1-0.8,0.1-1.2,0.2
		C23.2,9.5,23,9.4,23,8.7c0-0.5-0.5-0.7-1-0.5c-0.3,0.2-0.6,0.4-0.8,0.6c-0.7,0.4-1.2,0.3-1.4-0.5c-0.2-0.4-0.4-0.5-0.8-0.3
		c-0.2,0.1-0.4,0.3-0.6,0.4c-0.3,0.2-0.7,0.4-1.1,0.5c-0.4,0.1-0.8,0.2-1-0.2c-0.3-0.4,0-0.8,0.3-1.1C17,7.4,17.5,7.1,18,6.9
		c0.7-0.4,1.3-0.7,2-1.1c0.5-0.3,0.7-0.8,0.5-1.3C20.3,4,20,3.8,19.6,4c-0.4,0.2-0.7,0.5-1.1,0.6c-0.3,0.1-0.6,0.1-0.9,0.1
		c-0.1,0-0.2-0.3-0.2-0.5c0-0.1,0.2-0.3,0.3-0.3c0.9-0.1,1.8-0.3,2.7-0.4c0.1,0,0.3,0.1,0.4,0.2c0.6,0.8,1.5,1.1,2.3,1.4
		c0.7,0.2,0.9,0.1,1-0.7c1-0.2,1.9-0.7,2.9-0.1c0.5,0.3,1,0.8,1.5,1.2c0.1,0.1,0,0.5,0,0.7c-0.1,0.3-0.2,0.6-0.3,0.9
		c-0.1,0.6,0.2,1,0.8,1c0.2,0,0.4,0,0.6-0.1c0.5,0,0.7,0.2,0.7,0.7c-0.1,0.8,0.1,0.9,0.9,0.7c0.2,0,0.5,0.1,0.7,0.1
		c0.1,0,0.2,0.2,0.4,0.3c0.7,0.6,1.3,0.3,1.5-0.6c0-0.1,0-0.2,0-0.3c0.1-0.4,0.3-0.5,0.6-0.2c0.6,0.6,1.1,1.3,1.7,2
		c-0.6,0.6-0.7,1.3-0.5,2c0.2,0.8,0,1.4-0.4,2.1c-0.3,0.7-0.6,1.3-0.8,2c-0.3,1,0,1.5,1.1,1.7c1,0.2,1.2,0.4,1.2,1.4
		c0.1,1.3,0.7,2.2,1.9,2.8c0.3,0.1,0.5,0.2,0.8,0.3C39.2,25.3,38.6,27.4,37.6,29.5z"/>
</g>
</svg>
